<?xml version="1.0" standalone="no"?><!DOCTYPE svg PUBLIC "-//W3C//DTD SVG 1.1//EN" "http://www.w3.org/Graphics/SVG/1.1/DTD/svg11.dtd"><svg t="1704346280969" class="icon" viewBox="0 0 1073 1024" version="1.1" xmlns="http://www.w3.org/2000/svg" p-id="1819" xmlns:xlink="http://www.w3.org/1999/xlink" width="209.5703125" height="200"><path d="M410.664828 49.790431c108.643561-20.313274 224.41395 2.545841 317.783417 61.448609 75.754766 47.551007 136.84732 118.31623 172.230409 200.536307C945.682865 414.767846 949.297826 535.018037 911.165573 640.708155c-32.174775 90.569711-94.998921 169.684567-175.335629 222.224163-73.92199 48.874043-162.811655 74.736239-251.395858 73.107741-96.220772-0.560333-191.677887-34.008506-267.635976-92.860681-81.202504-62.314405-139.799808-153.241125-162.506193-253.075903C31.738265 494.340897 42.63374 391.450537 83.921806 302.255409 143.232175 171.619483 269.184974 74.024129 410.664828 49.790431m-164.338969 302.916926c-62.772599 42.256001-88.889665 129.415029-59.717971 199.213272C205.80145 600.997995 249.635357 639.486304 300.800371 652.163009c58.75099 14.153426 122.898172-1.832777 169.735159-39.659568C538.297673 559.149596 575.716862 479.525953 621.230814 408.454313c21.17907 38.743179 43.579037 76.875433 64.707514 115.669204-22.298782-15.578601-43.783315-32.17573-65.674495-48.212525-16.74986 11.607585-34.21183 22.196643-50.095894 35.077626C632.329613 557.469551 695.102211 603.136235 757.314477 649.566575c12.626113 10.894521 35.739144 9.774809 44.241509-5.7532 5.599514-10.385734 4.988589-23.826096-1.273398-33.804228-51.470476-91.231228-102.583943-182.666735-153.851096-274.050695-8.756281-17.666248-36.502801-19.346293-47.091858-2.64798-36.248885 56.103965-66.184236 116.228583-105.639526 170.2449-25.761012 34.924895-56.612751 68.932446-97.900817 85.121973-34.4667 13.237038-75.602035 14.153426-108.235958-4.683126-33.702089-18.78596-56.510612-56.357881-55.492085-95.151652 0.102139-38.387124 23.164578-75.093249 56.816075-93.013412 33.092118-18.327766 73.769258-16.494989 108.642606-4.480757 37.67406 13.033714 66.540291 41.695668 97.646901 65.369032 16.443443-11.505446 34.21183-21.483578 49.433422-34.415154-23.774549-21.382394-49.841023-40.932011-75.652628-60.074026-63.688987-45.260036-156.752992-56.510612-222.631765-9.520893z" fill="#17B257" p-id="1820"></path></svg>