<?xml version="1.0" standalone="no"?><!DOCTYPE svg PUBLIC "-//W3C//DTD SVG 1.1//EN" "http://www.w3.org/Graphics/SVG/1.1/DTD/svg11.dtd"><svg t="1704346098845" class="icon" viewBox="0 0 1024 1024" version="1.1" xmlns="http://www.w3.org/2000/svg" p-id="1407" xmlns:xlink="http://www.w3.org/1999/xlink" width="200" height="200"><path d="M128.324267 512.443733c0-85.6064-0.324267-170.884267 0-256.490666 0.328533-71.2832 47.197867-122.0608 118.805333-122.709334 176.418133-1.301333 353.160533-1.301333 529.578667 0 71.2832 0.648533 118.4768 50.773333 118.805333 122.709334 0.648533 171.861333 0.648533 343.722667 0 515.584-0.328533 73.885867-50.7776 123.0336-124.663467 123.0336-172.842667 0.324267-345.6768 0.324267-518.510933 0-73.5616 0-124.014933-50.1248-124.3392-123.362134 0-85.930667 0.324267-172.509867 0.324267-258.7648z m236.957866 89.5104V335.701333c0-22.784-10.410667-39.3856-33.847466-40.686933-23.4368-1.301333-36.458667 13.341867-36.778667 36.778667-0.328533 119.1296-0.6528 238.2592 0.9728 357.717333 0 11.067733 11.716267 27.016533 21.806933 31.249067 10.090667 4.228267 26.039467-1.954133 37.76-7.488 8.789333-3.908267 14.971733-13.994667 22.1312-21.1584 43.618133-42.6368 87.232-84.949333 132.151467-128.896 5.533867 5.2096 12.369067 11.392 18.875733 17.902933 43.618133 43.9424 87.232 87.8848 131.1744 131.498667 16.597333 16.277333 35.805867 18.2272 52.078934 0.981333 14.976-15.953067 13.346133-34.180267-1.301334-50.453333-3.255467-3.584-6.510933-6.8352-9.7664-10.090667l-156.885333-157.866667c-27.989333-28.317867-42.641067-27.989333-70.6304-0.648533a34915.438933 34915.438933 0 0 1-107.741867 107.413333z m209.9456-111.645866c43.613867-43.2896 86.907733-85.930667 130.197334-128.896 16.597333-16.597333 22.1312-35.153067 4.881066-54.6816-14.3232-16.273067-36.778667-14.3232-56.635733 5.205333-37.1072 37.1072-73.885867 74.8672-110.6688 112.298667-7.483733 7.483733-14.318933 15.624533-20.829867 22.459733 19.2 15.9488 35.805867 29.6192 53.056 43.613867z" fill="#584F60" p-id="1408"></path></svg>