<?xml version="1.0" standalone="no"?><!DOCTYPE svg PUBLIC "-//W3C//DTD SVG 1.1//EN" "http://www.w3.org/Graphics/SVG/1.1/DTD/svg11.dtd"><svg t="1713841484007" class="icon" viewBox="0 0 1026 1024" version="1.1" xmlns="http://www.w3.org/2000/svg" p-id="6975" xmlns:xlink="http://www.w3.org/1999/xlink" width="200.390625" height="200"><path d="M0 451.1232v461.9264l1024 2.304v-352.7168l-145.92 3.1232v205.1072l-737.28-0.3072V450.56z" fill="#EF177A" p-id="6976"></path><path d="M0 455.68h142.7968V229.2736l351.2832-1.4336V88.1664L0 96.1536z" fill="#2718ED" p-id="6977"></path><path d="M729.4464 94.72c-7.9872 24.8832-24.8832 90.0096 5.5808 157.7472 5.5296 12.3392 17.5616 38.2976 44.8512 63.1296 36.0448 32.7168 75.9296 42.7008 95.2832 47.3088 68.9152 16.384 127.3344-1.5872 151.3472-10.496v107.8272c-34.816 9.8816-92.4672 21.3504-162.56 13.1584-24.8832-2.9184-90.9824-11.3664-156.9792-52.5824-41.0112-25.6512-62.3616-51.6608-67.2768-57.856-6.9632-8.704-21.9648-28.8256-33.6384-57.856-7.936-19.7632-12.4416-39.0144-16.7936-84.1216-2.8672-29.5424-5.5808-68.8128-5.5808-115.712l145.7664-10.5472z" fill="#FE8136" p-id="6978"></path></svg>