<?xml version="1.0" standalone="no"?><!DOCTYPE svg PUBLIC "-//W3C//DTD SVG 1.1//EN" "http://www.w3.org/Graphics/SVG/1.1/DTD/svg11.dtd"><svg t="1704346173172" class="icon" viewBox="0 0 1026 1024" version="1.1" xmlns="http://www.w3.org/2000/svg" p-id="1541" xmlns:xlink="http://www.w3.org/1999/xlink" width="200.390625" height="200"><path d="M892.08896 339.2c9.6 12.8 19.2 25.6 28.8 41.6 9.6-16 22.4-35.2 32-51.2 16-25.6 35.2-44.8 44.8-76.8 19.2-64-25.6-112-86.4-112-3.2 0-9.6 0-12.8 3.2-16 3.2-28.8 12.8-38.4 25.6l-19.2 28.8c-12.8 28.8-3.2 60.8 9.6 80 16 16 28.8 38.4 41.6 60.8m-12.8-128c6.4-19.2 19.2-22.4 38.4-32 57.6 0 60.8 80 6.4 89.6-28.8 6.4-51.2-28.8-44.8-57.6m0 0M274.48896 681.6c35.2-48 67.2-83.2 86.4-147.2 44.8-140.8-44.8-256-182.4-256-12.8 6.4-28.8 3.2-41.6 6.4-32 9.6-64 28.8-83.2 51.2-16 19.2-32 41.6-41.6 67.2-25.6 64-6.4 131.2 19.2 176 32 51.2 64 102.4 99.2 150.4 19.2 25.6 35.2 54.4 54.4 80h3.2c12.8-19.2 22.4-38.4 35.2-54.4 16-22.4 32-48 51.2-73.6M98.48896 444.8c9.6-28.8 32-51.2 57.6-64 9.6-3.2 19.2-3.2 28.8-6.4 64 0 118.4 64 92.8 134.4-12.8 35.2-38.4 57.6-80 64-64 12.8-118.4-64-99.2-128m0 0M940.08896 636.8c-48-32-92.8-60.8-140.8-92.8-16-9.6-32-22.4-48-32-32-16-64-35.2-96-51.2-16-9.6-38.4-19.2-51.2-32 64-12.8 128-12.8 195.2-25.6 35.2-3.2 67.2-6.4 102.4-12.8-6.4-6.4-19.2-28.8-28.8-32-9.6 0-16 0-25.6 3.2-32 3.2-60.8 3.2-92.8 6.4-25.6 3.2-48 0-73.6 3.2-70.4 6.4-144 12.8-214.4 19.2 32 25.6 64 51.2 96 73.6 35.2 22.4 73.6 41.6 105.6 64 41.6 32 86.4 67.2 128 99.2v3.2c-102.4 6.4-208 12.8-310.4 19.2-22.4 0-41.6 3.2-64 3.2-25.6 3.2-48 6.4-73.6 9.6-12.8 3.2-22.4 3.2-35.2 6.4-35.2 57.6-67.2 115.2-102.4 169.6v3.2c115.2-25.6 233.6-44.8 348.8-70.4 64-9.6 124.8-22.4 188.8-32 89.6-16 179.2-32 268.8-44.8-19.2-22.4-48-41.6-76.8-57.6m0 0" fill="#1672ec" p-id="1542"></path></svg>