<svg width="1131" height="575" xmlns="http://www.w3.org/2000/svg" xmlns:xlink="http://www.w3.org/1999/xlink" overflow="hidden"><defs><clipPath id="clip0"><rect x="125" y="137" width="1131" height="575"/></clipPath></defs><g clip-path="url(#clip0)" transform="translate(-125 -137)"><path d="M146 203C146 175.386 183.832 153 230.5 153 277.168 153 315 175.386 315 203 315 230.614 277.168 253 230.5 253 183.832 253 146 230.614 146 203Z" fill="#AD2B26" fill-rule="evenodd"/><text fill="#FFFFFF" font-family="Microsoft YaHei,Microsoft YaHei_MSFontService,sans-serif" font-weight="400" font-size="19" transform="translate(191.533 210)">New</text><text fill="#FFFFFF" font-family="Microsoft YaHei,Microsoft YaHei_MSFontService,sans-serif" font-weight="400" font-size="19" transform="translate(232.033 210)">新建</text><path d="M1-3.22762e-06 1.0002 63.0752-0.999796 63.0752-1 3.22762e-06ZM5.53062 55.5791 0.000209746 65.0599-5.53027 55.5791C-5.80855 55.1021-5.64741 54.4897-5.17036 54.2115-4.69331 53.9332-4.08099 54.0943-3.80271 54.5714L0.863981 62.5714-0.863577 62.5714 3.80306 54.5713C4.08134 54.0943 4.69366 53.9331 5.17071 54.2114 5.64777 54.4897 5.8089 55.102 5.53062 55.5791Z" fill="#49504F" transform="matrix(-1 0 0 1 230 258)"/><path d="M139.5 603C139.5 576.767 181.585 555.5 233.5 555.5 285.415 555.5 327.5 576.767 327.5 603 327.5 629.234 285.415 650.5 233.5 650.5 181.585 650.5 139.5 629.234 139.5 603Z" stroke="#AD2B26" stroke-width="2.66667" stroke-linejoin="round" stroke-miterlimit="10" fill="#FFFFFF" fill-rule="evenodd"/><text font-family="Consolas,Consolas_MSFontService,sans-serif" font-weight="400" font-size="19" transform="translate(186.426 587)">Teminated</text><text font-family="Microsoft YaHei,Microsoft YaHei_MSFontService,sans-serif" font-weight="400" font-size="19" transform="translate(204.926 609)">被终止</text><path d="M1-1.00415e-06 1.0001 102.574-0.999897 102.574-1 1.00415e-06ZM5.53054 95.0774 0.000105121 104.558-5.53035 95.0774C-5.80863 94.6003-5.6475 93.988-5.17044 93.7097-4.69339 93.4314-4.08107 93.5926-3.80279 94.0696L0.863881 102.07-0.863676 102.07 3.80298 94.0696C4.08126 93.5926 4.69358 93.4314 5.17063 93.7097 5.64768 93.988 5.80882 94.6003 5.53054 95.0774Z" fill="#49504F" transform="matrix(-1 0 0 1 233 450)"/><path d="M126 386.5 233 323 340 386.5 233 450Z" fill="#00B050" fill-rule="evenodd"/><text fill="#FFFFFF" font-family="Microsoft YaHei,Microsoft YaHei_MSFontService,sans-serif" font-weight="400" font-size="19" transform="translate(190.593 382)">Runnable</text><text fill="#FFFFFF" font-family="Microsoft YaHei,Microsoft YaHei_MSFontService,sans-serif" font-weight="400" font-size="19" transform="translate(204.926 404)">可运行</text><rect x="742" y="364" width="182" height="44" fill="#AD2B26"/><text fill="#FFFFFF" font-family="Calibri,Calibri_MSFontService,sans-serif" font-weight="400" font-size="19" transform="translate(763.806 393)">Wait</text><text fill="#FFFFFF" font-family="Microsoft YaHei,Microsoft YaHei_MSFontService,sans-serif" font-weight="400" font-size="19" transform="translate(799.493 393)">ing</text><text fill="#FFFFFF" font-family="Microsoft YaHei,Microsoft YaHei_MSFontService,sans-serif" font-weight="400" font-size="19" transform="translate(827.993 393)">无限</text><text fill="#FFFFFF" font-family="Microsoft YaHei,Microsoft YaHei_MSFontService,sans-serif" font-weight="400" font-size="19" transform="translate(865.326 393)">等待</text><path d="M322 370 739.984 370 739.984 372 322 372ZM732.487 365.47 741.968 371 732.487 376.531C732.01 376.809 731.397 376.648 731.119 376.171 730.841 375.694 731.002 375.081 731.479 374.803L739.479 370.136 739.479 371.864 731.479 367.197C731.002 366.919 730.841 366.307 731.119 365.83 731.397 365.353 732.01 365.191 732.487 365.47Z" fill="#49504F"/><path d="M2.52963e-07-1 413.049-0.999896 413.049 1.0001-2.52963e-07 1ZM405.552-5.53034 415.033 0.000104897 405.552 5.53055C405.075 5.80883 404.463 5.64769 404.185 5.17064 403.906 4.69359 404.068 4.08127 404.545 3.80299L412.545-0.863674 412.545 0.863883 404.545-3.80279C404.068-4.08107 403.906-4.69338 404.185-5.17044 404.463-5.64749 405.075-5.80862 405.552-5.53034Z" fill="#49504F" transform="matrix(-1 0 0 1 742.029 390)"/><text fill="#595959" font-family="Microsoft YaHei,Microsoft YaHei_MSFontService,sans-serif" font-weight="400" font-size="16" transform="translate(393.093 366)">获得锁对象调用了</text><text fill="#595959" font-family="Calibri,Calibri_MSFontService,sans-serif" font-weight="400" font-size="16" transform="translate(521.093 366)">wait()</text><text fill="#595959" font-family="Microsoft YaHei,Microsoft YaHei_MSFontService,sans-serif" font-weight="400" font-size="16" transform="translate(558.746 366)">方法</text><text fill="#595959" font-family="Microsoft YaHei,Microsoft YaHei_MSFontService,sans-serif" font-weight="400" font-size="16" transform="translate(389.15 410)">被其他线程</text><text fill="#595959" font-family="Calibri,Calibri_MSFontService,sans-serif" font-weight="400" font-size="16" transform="translate(469.15 410)">notify</text><text fill="#595959" font-family="Microsoft YaHei,Microsoft YaHei_MSFontService,sans-serif" font-weight="400" font-size="16" transform="translate(507.063 410)">并获得锁对象</text><path d="M726 183.218 817 137 908 183.218 873.241 258 760.759 258Z" fill="#AD2B26" fill-rule="evenodd"/><text fill="#FFFFFF" font-family="Calibri,Calibri_MSFontService,sans-serif" font-weight="400" font-size="19" transform="translate(777.971 196)">Blocked</text><text fill="#FFFFFF" font-family="Microsoft YaHei,Microsoft YaHei_MSFontService,sans-serif" font-weight="400" font-size="19" transform="translate(837.204 196)">锁</text><text fill="#FFFFFF" font-family="Microsoft YaHei,Microsoft YaHei_MSFontService,sans-serif" font-weight="400" font-size="19" transform="translate(798.258 218)">阻塞</text><path d="M714 634 731 566 959 566 976 634Z" fill="#C00000" fill-rule="evenodd"/><text fill="#FFFFFF" font-family="Calibri,Calibri_MSFontService,sans-serif" font-weight="400" font-size="19" transform="translate(734.907 611)">Timed Waiting(</text><text fill="#FFFFFF" font-family="Microsoft YaHei,Microsoft YaHei_MSFontService,sans-serif" font-weight="400" font-size="19" transform="translate(850.927 611)">计时等待</text><text fill="#FFFFFF" font-family="Calibri,Calibri_MSFontService,sans-serif" font-weight="400" font-size="19" transform="translate(925.594 611)">)</text><path d="M0.326549-0.94518 435.24 149.313 434.587 151.203-0.326549 0.94518ZM429.637 142.583 436.792 150.907 426.025 153.038C425.483 153.145 424.957 152.793 424.85 152.251 424.742 151.709 425.095 151.183 425.636 151.076L434.722 149.278 434.158 150.911 428.12 143.887C427.76 143.468 427.808 142.837 428.226 142.477 428.645 142.117 429.277 142.165 429.637 142.583Z" fill="#49504F" transform="matrix(-1 0 0 1 738.787 214)"/><path d="M0.321998-0.94674 449.826 151.935 449.182 153.828-0.321998 0.94674ZM444.201 145.236 451.396 153.525 440.639 155.708C440.098 155.818 439.57 155.468 439.461 154.927 439.351 154.386 439.7 153.858 440.242 153.748L449.318 151.906 448.762 153.542 442.691 146.548C442.329 146.13 442.373 145.499 442.79 145.137 443.207 144.775 443.839 144.819 444.201 145.236Z" fill="#49504F" transform="matrix(1 0 0 -1 287 353.524)"/><text fill="#595959" font-family="Microsoft YaHei,Microsoft YaHei_MSFontService,sans-serif" font-weight="400" font-size="16" transform="matrix(0.930406 -0.366532 0.366532 0.930406 482.817 280)">未获得锁对象</text><text fill="#595959" font-family="Microsoft YaHei,Microsoft YaHei_MSFontService,sans-serif" font-weight="400" font-size="16" transform="matrix(0.930406 -0.366532 0.366532 0.930406 505.294 317)">获得锁对象</text><path d="M1-9.87903e-07 1.0001 104.292-0.999897 104.292-1 9.87903e-07ZM5.53054 96.7963 0.000105154 106.277-5.53035 96.7963C-5.80863 96.3193-5.6475 95.7069-5.17044 95.4287-4.69339 95.1504-4.08107 95.3115-3.80279 95.7886L0.863881 103.789-0.863676 103.789 3.80298 95.7886C4.08126 95.3115 4.69358 95.1504 5.17063 95.4286 5.64768 95.7069 5.80882 96.3193 5.53054 96.7963Z" fill="#49504F" transform="matrix(1 0 0 -1 817 364.272)"/><text fill="#595959" font-family="Microsoft YaHei,Microsoft YaHei_MSFontService,sans-serif" font-weight="400" font-size="16" transform="translate(826.521 319)">被其他线程</text><text fill="#595959" font-family="Calibri,Calibri_MSFontService,sans-serif" font-weight="400" font-size="16" transform="translate(906.521 319)">notify</text><text fill="#595959" font-family="Microsoft YaHei,Microsoft YaHei_MSFontService,sans-serif" font-weight="400" font-size="16" transform="translate(944.434 319)">，但未获得锁对象</text><path d="M272.353 422.064 726.313 593.142 725.608 595.014 271.647 423.936ZM720.904 586.262 727.825 594.781 717.003 596.612C716.458 596.705 715.942 596.338 715.85 595.793 715.758 595.249 716.125 594.733 716.669 594.64L725.801 593.095 725.192 594.711 719.351 587.523C719.003 587.095 719.068 586.465 719.497 586.117 719.925 585.768 720.555 585.833 720.904 586.262Z" fill="#49504F"/><text fill="#595959" font-family="Calibri,Calibri_MSFontService,sans-serif" font-weight="400" font-size="16" transform="matrix(0.95203 0.306006 -0.306006 0.95203 422.984 442)">1</text><text fill="#595959" font-family="Microsoft YaHei,Microsoft YaHei_MSFontService,sans-serif" font-weight="400" font-size="16" transform="matrix(0.95203 0.306006 -0.306006 0.95203 430.759 445)">、</text><text fill="#595959" font-family="Calibri,Calibri_MSFontService,sans-serif" font-weight="400" font-size="16" transform="matrix(0.95203 0.306006 -0.306006 0.95203 445.992 449)">sleep(</text><text fill="#595959" font-family="Microsoft YaHei,Microsoft YaHei_MSFontService,sans-serif" font-weight="400" font-size="16" transform="matrix(0.95203 0.306006 -0.306006 0.95203 483.279 461)">毫秒</text><text fill="#595959" font-family="Calibri,Calibri_MSFontService,sans-serif" font-weight="400" font-size="16" transform="matrix(0.95203 0.306006 -0.306006 0.95203 513.744 471)">)</text><text fill="#595959" font-family="Calibri,Calibri_MSFontService,sans-serif" font-weight="400" font-size="16" transform="matrix(0.95203 0.306006 -0.306006 0.95203 414.416 469)">2</text><text fill="#595959" font-family="Microsoft YaHei,Microsoft YaHei_MSFontService,sans-serif" font-weight="400" font-size="16" transform="matrix(0.95203 0.306006 -0.306006 0.95203 422.191 471)">、</text><text fill="#595959" font-family="Calibri,Calibri_MSFontService,sans-serif" font-weight="400" font-size="16" transform="matrix(0.95203 0.306006 -0.306006 0.95203 437.423 476)">wait(</text><text fill="#595959" font-family="Microsoft YaHei,Microsoft YaHei_MSFontService,sans-serif" font-weight="400" font-size="16" transform="matrix(0.95203 0.306006 -0.306006 0.95203 468.669 486)">毫秒</text><text fill="#595959" font-family="Calibri,Calibri_MSFontService,sans-serif" font-weight="400" font-size="16" transform="matrix(0.95203 0.306006 -0.306006 0.95203 499.134 496)">)</text><path d="M717.271 613.343 252.509 438.636 253.213 436.763 717.974 611.471ZM257.924 445.511 250.996 436.998 261.816 435.158C262.361 435.065 262.877 435.431 262.97 435.976 263.062 436.52 262.696 437.037 262.152 437.129L253.021 438.683 253.629 437.065 259.475 444.249C259.824 444.677 259.759 445.307 259.331 445.655 258.903 446.004 258.273 445.939 257.924 445.511Z" fill="#49504F"/><text fill="#595959" font-family="Calibri,Calibri_MSFontService,sans-serif" font-weight="400" font-size="16" transform="matrix(0.942501 0.334202 -0.334202 0.942501 393.317 516)">1</text><text fill="#595959" font-family="Microsoft YaHei,Microsoft YaHei_MSFontService,sans-serif" font-weight="400" font-size="16" transform="matrix(0.942501 0.334202 -0.334202 0.942501 401.014 518)">、</text><text fill="#595959" font-family="Calibri,Calibri_MSFontService,sans-serif" font-weight="400" font-size="16" transform="matrix(0.942501 0.334202 -0.334202 0.942501 416.094 524)">sleep</text><text fill="#595959" font-family="Microsoft YaHei,Microsoft YaHei_MSFontService,sans-serif" font-weight="400" font-size="16" transform="matrix(0.942501 0.334202 -0.334202 0.942501 448.453 535)">时间到</text><text fill="#595959" font-family="Calibri,Calibri_MSFontService,sans-serif" font-weight="400" font-size="16" transform="matrix(0.942501 0.334202 -0.334202 0.942501 383.959 542)">2</text><text fill="#595959" font-family="Microsoft YaHei,Microsoft YaHei_MSFontService,sans-serif" font-weight="400" font-size="16" transform="matrix(0.942501 0.334202 -0.334202 0.942501 391.656 545)">、</text><text fill="#595959" font-family="Calibri,Calibri_MSFontService,sans-serif" font-weight="400" font-size="16" transform="matrix(0.942501 0.334202 -0.334202 0.942501 406.736 550)">wait</text><text fill="#595959" font-family="Microsoft YaHei,Microsoft YaHei_MSFontService,sans-serif" font-weight="400" font-size="16" transform="matrix(0.942501 0.334202 -0.334202 0.942501 433.113 559)">时间</text><text fill="#595959" font-family="Microsoft YaHei,Microsoft YaHei_MSFontService,sans-serif" font-weight="400" font-size="16" transform="matrix(0.942501 0.334202 -0.334202 0.942501 463.273 570)">到</text><text fill="#595959" font-family="Microsoft YaHei,Microsoft YaHei_MSFontService,sans-serif" font-weight="400" font-size="16" transform="matrix(0.942501 0.334202 -0.334202 0.942501 478.354 575)">，并得到锁对象</text><text fill="#595959" font-family="Calibri,Calibri_MSFontService,sans-serif" font-weight="400" font-size="16" transform="matrix(0.942501 0.334202 -0.334202 0.942501 374.267 569)">3</text><text fill="#595959" font-family="Microsoft YaHei,Microsoft YaHei_MSFontService,sans-serif" font-weight="400" font-size="16" transform="matrix(0.942501 0.334202 -0.334202 0.942501 381.964 572)">、</text><text fill="#595959" font-family="Calibri,Calibri_MSFontService,sans-serif" font-weight="400" font-size="16" transform="matrix(0.942501 0.334202 -0.334202 0.942501 397.044 577)">wait</text><text fill="#595959" font-family="Microsoft YaHei,Microsoft YaHei_MSFontService,sans-serif" font-weight="400" font-size="16" transform="matrix(0.942501 0.334202 -0.334202 0.942501 423.422 587)">时间没到，被其他线程</text><text fill="#595959" font-family="Calibri,Calibri_MSFontService,sans-serif" font-weight="400" font-size="16" transform="matrix(0.942501 0.334202 -0.334202 0.942501 574.222 640)">notify</text><text fill="#595959" font-family="Microsoft YaHei,Microsoft YaHei_MSFontService,sans-serif" font-weight="400" font-size="16" transform="matrix(0.942501 0.334202 -0.334202 0.942501 609.955 653)">，并得到锁对象</text><text fill="#595959" font-family="Calibri,Calibri_MSFontService,sans-serif" font-weight="400" font-size="16" transform="translate(179.442 295)">start()</text><text fill="#595959" font-family="Microsoft YaHei,Microsoft YaHei_MSFontService,sans-serif" font-weight="400" font-size="16" transform="translate(160.011 496)">执行完毕</text><text fill="#595959" font-family="Microsoft YaHei,Microsoft YaHei_MSFontService,sans-serif" font-weight="400" font-size="16" transform="translate(160.011 524)">出现异常</text><path d="M967.455 598.382 1094.85 598.382 1093.85 599.382 1093.85 183 1094.85 184 909.98 184 909.98 182 1094.85 182C1095.4 182 1095.85 182.448 1095.85 183L1095.85 599.382C1095.85 599.934 1095.4 600.382 1094.85 600.382L967.455 600.382ZM917.476 188.53 907.995 183 917.476 177.47C917.953 177.191 918.565 177.352 918.844 177.83 919.122 178.307 918.961 178.919 918.484 179.197L910.484 183.864 910.484 182.136 918.484 186.803C918.961 187.081 919.122 187.694 918.844 188.171 918.565 188.648 917.953 188.809 917.476 188.53Z" fill="#49504F"/><text fill="#595959" font-family="Calibri,Calibri_MSFontService,sans-serif" font-weight="400" font-size="16" transform="translate(1104.88 312)">1</text><text fill="#595959" font-family="Microsoft YaHei,Microsoft YaHei_MSFontService,sans-serif" font-weight="400" font-size="16" transform="translate(1113.05 312)">、</text><text fill="#595959" font-family="Calibri,Calibri_MSFontService,sans-serif" font-weight="400" font-size="16" transform="translate(1129.05 312)">wait</text><text fill="#595959" font-family="Microsoft YaHei,Microsoft YaHei_MSFontService,sans-serif" font-weight="400" font-size="16" transform="translate(1157.04 312)">时间到，未</text><text fill="#595959" font-family="Microsoft YaHei,Microsoft YaHei_MSFontService,sans-serif" font-weight="400" font-size="16" transform="translate(1104.88 340)">获得锁对象</text><text fill="#595959" font-family="Calibri,Calibri_MSFontService,sans-serif" font-weight="400" font-size="16" transform="translate(1104.88 369)">2</text><text fill="#595959" font-family="Microsoft YaHei,Microsoft YaHei_MSFontService,sans-serif" font-weight="400" font-size="16" transform="translate(1113.05 369)">、</text><text fill="#595959" font-family="Calibri,Calibri_MSFontService,sans-serif" font-weight="400" font-size="16" transform="translate(1129.05 369)">wait</text><text fill="#595959" font-family="Microsoft YaHei,Microsoft YaHei_MSFontService,sans-serif" font-weight="400" font-size="16" transform="translate(1157.04 369)">时间没到，</text><text fill="#595959" font-family="Microsoft YaHei,Microsoft YaHei_MSFontService,sans-serif" font-weight="400" font-size="16" transform="translate(1104.88 398)">被其他线程</text><text fill="#595959" font-family="Calibri,Calibri_MSFontService,sans-serif" font-weight="400" font-size="16" transform="translate(1184.88 398)">notify</text><text fill="#595959" font-family="Microsoft YaHei,Microsoft YaHei_MSFontService,sans-serif" font-weight="400" font-size="16" transform="translate(1222.8 398)">，</text><text fill="#595959" font-family="Microsoft YaHei,Microsoft YaHei_MSFontService,sans-serif" font-weight="400" font-size="16" transform="translate(1104.88 427)">未获得锁对象</text></g></svg>