<svg width="956" height="333" xmlns="http://www.w3.org/2000/svg" xmlns:xlink="http://www.w3.org/1999/xlink" overflow="hidden"><g transform="translate(-78 -305)"><path d="M382.5 439C382.5 432.097 388.097 426.5 395 426.5L513 426.5C519.904 426.5 525.5 432.097 525.5 439L525.5 489C525.5 495.903 519.904 501.5 513 501.5L395 501.5C388.097 501.5 382.5 495.903 382.5 489Z" stroke="#2F528F" stroke-width="1.33333" stroke-miterlimit="8" fill="#ED7D31" fill-rule="evenodd"/><text fill="#FFFFFF" font-family="DengXian,DengXian_MSFontService,sans-serif" font-weight="400" font-size="24" transform="translate(406.294 457)">Resource</text><text fill="#FFFFFF" font-family="DengXian,DengXian_MSFontService,sans-serif" font-weight="400" font-size="24" transform="translate(407.294 486)">Manager</text><rect x="646" y="307" width="355" height="91" fill="#8FAADC"/><text fill="#FFFFFF" font-family="DengXian,DengXian_MSFontService,sans-serif" font-weight="400" font-size="24" transform="translate(781.494 360)">服务器</text><text fill="#FFFFFF" font-family="DengXian,DengXian_MSFontService,sans-serif" font-weight="400" font-size="24" transform="translate(853.494 360)">1</text><rect x="646" y="420" width="355" height="91" fill="#8FAADC"/><text fill="#FFFFFF" font-family="DengXian,DengXian_MSFontService,sans-serif" font-weight="400" font-size="24" transform="translate(781.494 473)">服务器</text><text fill="#FFFFFF" font-family="DengXian,DengXian_MSFontService,sans-serif" font-weight="400" font-size="24" transform="translate(853.494 473)">2</text><rect x="646" y="534" width="355" height="91" fill="#8FAADC"/><text fill="#FFFFFF" font-family="DengXian,DengXian_MSFontService,sans-serif" font-weight="400" font-size="24" transform="translate(781.494 587)">服务器</text><text fill="#FFFFFF" font-family="DengXian,DengXian_MSFontService,sans-serif" font-weight="400" font-size="24" transform="translate(853.494 587)">3</text><rect x="646.5" y="307.5" width="355" height="91" stroke="#2F528F" stroke-width="2.66667" stroke-miterlimit="8" stroke-dasharray="2.66667 2.66667" fill="none"/><path d="M941.5 358.334C941.5 353.455 945.455 349.5 950.334 349.5L1023.67 349.5C1028.55 349.5 1032.5 353.455 1032.5 358.334L1032.5 393.667C1032.5 398.545 1028.55 402.5 1023.67 402.5L950.334 402.5C945.455 402.5 941.5 398.545 941.5 393.667Z" stroke="#2F528F" stroke-width="1.33333" stroke-miterlimit="8" fill="#F4B183" fill-rule="evenodd"/><text fill="#FFFFFF" font-family="DengXian,DengXian_MSFontService,sans-serif" font-weight="400" font-size="16" transform="translate(967.511 371)">Node</text><text fill="#FFFFFF" font-family="DengXian,DengXian_MSFontService,sans-serif" font-weight="400" font-size="16" transform="translate(955.844 390)">Manager</text><rect x="646.5" y="420.5" width="355" height="91" stroke="#2F528F" stroke-width="2.66667" stroke-miterlimit="8" stroke-dasharray="2.66667 2.66667" fill="none"/><rect x="646.5" y="534.5" width="355" height="91" stroke="#2F528F" stroke-width="2.66667" stroke-miterlimit="8" stroke-dasharray="2.66667 2.66667" fill="none"/><path d="M941.5 472.334C941.5 467.455 945.455 463.5 950.334 463.5L1023.67 463.5C1028.55 463.5 1032.5 467.455 1032.5 472.334L1032.5 507.667C1032.5 512.545 1028.55 516.5 1023.67 516.5L950.334 516.5C945.455 516.5 941.5 512.545 941.5 507.667Z" stroke="#2F528F" stroke-width="1.33333" stroke-miterlimit="8" fill="#F4B183" fill-rule="evenodd"/><text fill="#FFFFFF" font-family="DengXian,DengXian_MSFontService,sans-serif" font-weight="400" font-size="16" transform="translate(967.511 486)">Node</text><text fill="#FFFFFF" font-family="DengXian,DengXian_MSFontService,sans-serif" font-weight="400" font-size="16" transform="translate(955.844 505)">Manager</text><path d="M941.5 591.334C941.5 586.455 945.455 582.5 950.334 582.5L1023.67 582.5C1028.55 582.5 1032.5 586.455 1032.5 591.334L1032.5 626.667C1032.5 631.545 1028.55 635.5 1023.67 635.5L950.334 635.5C945.455 635.5 941.5 631.545 941.5 626.667Z" stroke="#2F528F" stroke-width="1.33333" stroke-miterlimit="8" fill="#F4B183" fill-rule="evenodd"/><text fill="#FFFFFF" font-family="DengXian,DengXian_MSFontService,sans-serif" font-weight="400" font-size="16" transform="translate(967.511 604)">Node</text><text fill="#FFFFFF" font-family="DengXian,DengXian_MSFontService,sans-serif" font-weight="400" font-size="16" transform="translate(955.844 623)">Manager</text><path d="M79.5001 433.5 200.5 433.5 200.5 482.419C140 482.419 140 501.058 79.5001 490.467Z" stroke="#2F528F" stroke-width="1.33333" stroke-miterlimit="8" fill="#A9D18E" fill-rule="evenodd"/><text fill="#FFFFFF" font-family="DengXian,DengXian_MSFontService,sans-serif" font-weight="400" font-size="24" transform="translate(103.627 465)">某程序</text><path d="M654.5 333.834C654.5 328.679 658.679 324.5 663.834 324.5L766.167 324.5C771.321 324.5 775.5 328.679 775.5 333.834L775.5 371.166C775.5 376.321 771.321 380.5 766.167 380.5L663.834 380.5C658.679 380.5 654.5 376.321 654.5 371.166Z" stroke="#2F528F" stroke-width="1.33333" stroke-miterlimit="8" fill="#FFFFFF" fill-rule="evenodd"/><text fill="#404040" font-family="DengXian,DengXian_MSFontService,sans-serif" font-weight="400" font-size="24" transform="translate(675.744 360)">4G</text><text fill="#404040" font-family="DengXian,DengXian_MSFontService,sans-serif" font-weight="400" font-size="24" transform="translate(704.577 360)">内存</text><path d="M654.5 447.834C654.5 442.679 658.679 438.5 663.834 438.5L766.167 438.5C771.321 438.5 775.5 442.679 775.5 447.834L775.5 485.166C775.5 490.321 771.321 494.5 766.167 494.5L663.834 494.5C658.679 494.5 654.5 490.321 654.5 485.166Z" stroke="#2F528F" stroke-width="1.33333" stroke-miterlimit="8" fill="#FFFFFF" fill-rule="evenodd"/><text fill="#404040" font-family="DengXian,DengXian_MSFontService,sans-serif" font-weight="400" font-size="24" transform="translate(675.744 473)">4G</text><text fill="#404040" font-family="DengXian,DengXian_MSFontService,sans-serif" font-weight="400" font-size="24" transform="translate(704.577 473)">内存</text><path d="M654.5 563.834C654.5 558.679 658.679 554.5 663.834 554.5L766.167 554.5C771.321 554.5 775.5 558.679 775.5 563.834L775.5 601.167C775.5 606.321 771.321 610.5 766.167 610.5L663.834 610.5C658.679 610.5 654.5 606.321 654.5 601.167Z" stroke="#2F528F" stroke-width="1.33333" stroke-miterlimit="8" fill="#FFFFFF" fill-rule="evenodd"/><text fill="#404040" font-family="DengXian,DengXian_MSFontService,sans-serif" font-weight="400" font-size="24" transform="translate(675.744 590)">4G</text><text fill="#404040" font-family="DengXian,DengXian_MSFontService,sans-serif" font-weight="400" font-size="24" transform="translate(704.577 590)">内存</text><path d="M230.5 454.25 340 454.25 340 448.5 351.5 460 340 471.5 340 465.75 230.5 465.75Z" stroke="#2F528F" stroke-width="1.33333" stroke-miterlimit="8" fill="#A9D18E" fill-rule="evenodd"/><path d="M550.5 460.25 596 460.25 596 456.5 603.5 464 596 471.5 596 467.75 550.5 467.75Z" stroke="#2F528F" stroke-width="1.33333" stroke-miterlimit="8" fill="#ED7D31" fill-rule="evenodd"/><path d="M551.992 433.675 588.694 407.009 586.47 403.948 597.039 405.622 595.365 416.191 593.142 413.13 556.439 439.796Z" stroke="#2F528F" stroke-width="1.33333" stroke-miterlimit="8" fill="#ED7D31" fill-rule="evenodd"/><path d="M557.817 486.605 590.451 518.12 593.079 515.398 593.266 526.097 582.567 526.284 585.195 523.563 552.561 492.048Z" stroke="#2F528F" stroke-width="1.33333" stroke-miterlimit="8" fill="#ED7D31" fill-rule="evenodd"/></g></svg>