<svg width="831" height="480" xmlns="http://www.w3.org/2000/svg" xmlns:xlink="http://www.w3.org/1999/xlink" overflow="hidden"><g transform="translate(-698 -190)"><rect x="723" y="192" width="378" height="113" fill="#F8CBAD"/><rect x="723" y="325" width="378" height="114" fill="#F8CBAD"/><rect x="723" y="459" width="378" height="114" fill="#F8CBAD"/><text fill="#404040" font-family="Microsoft YaHei,Microsoft YaHei_MSFontService,sans-serif" font-weight="400" font-size="21" transform="translate(862.107 626)">YARN</text><text fill="#404040" font-family="Microsoft YaHei,Microsoft YaHei_MSFontService,sans-serif" font-weight="400" font-size="21" transform="translate(919.493 626)">管理</text><text fill="#404040" font-family="Microsoft YaHei,Microsoft YaHei_MSFontService,sans-serif" font-weight="400" font-size="21" transform="translate(858.8 651)">服务器集群</text><text fill="#404040" font-family="Microsoft YaHei,Microsoft YaHei_MSFontService,sans-serif" font-weight="400" font-size="16" transform="translate(1110.73 248)">服务器</text><text fill="#404040" font-family="Microsoft YaHei,Microsoft YaHei_MSFontService,sans-serif" font-weight="400" font-size="16" transform="translate(1158.73 248)">1</text><text fill="#404040" font-family="Microsoft YaHei,Microsoft YaHei_MSFontService,sans-serif" font-weight="400" font-size="16" transform="translate(1110.73 268)">8G</text><text fill="#404040" font-family="Microsoft YaHei,Microsoft YaHei_MSFontService,sans-serif" font-weight="400" font-size="16" transform="translate(1131.9 268)">内存</text><text fill="#404040" font-family="Microsoft YaHei,Microsoft YaHei_MSFontService,sans-serif" font-weight="400" font-size="16" transform="translate(1110.73 378)">服务器</text><text fill="#404040" font-family="Microsoft YaHei,Microsoft YaHei_MSFontService,sans-serif" font-weight="400" font-size="16" transform="translate(1158.73 378)">2</text><text fill="#404040" font-family="Microsoft YaHei,Microsoft YaHei_MSFontService,sans-serif" font-weight="400" font-size="16" transform="translate(1110.73 398)">8G</text><text fill="#404040" font-family="Microsoft YaHei,Microsoft YaHei_MSFontService,sans-serif" font-weight="400" font-size="16" transform="translate(1131.9 398)">内存</text><text fill="#404040" font-family="Microsoft YaHei,Microsoft YaHei_MSFontService,sans-serif" font-weight="400" font-size="16" transform="translate(1110.73 514)">服务器</text><text fill="#404040" font-family="Microsoft YaHei,Microsoft YaHei_MSFontService,sans-serif" font-weight="400" font-size="16" transform="translate(1158.73 514)">3</text><text fill="#404040" font-family="Microsoft YaHei,Microsoft YaHei_MSFontService,sans-serif" font-weight="400" font-size="16" transform="translate(1110.73 534)">8G</text><text fill="#404040" font-family="Microsoft YaHei,Microsoft YaHei_MSFontService,sans-serif" font-weight="400" font-size="16" transform="translate(1131.9 534)">内存</text><path d="M844.5 194.5 844.5 307.9" stroke="#FFFFFF" stroke-width="1.33333" stroke-miterlimit="8" stroke-dasharray="1.33333 1.33333" fill="none" fill-rule="evenodd"/><path d="M844.5 325.5 844.5 438.9" stroke="#FFFFFF" stroke-width="1.33333" stroke-miterlimit="8" stroke-dasharray="1.33333 1.33333" fill="none" fill-rule="evenodd"/><path d="M844.5 459.5 844.5 572.9" stroke="#FFFFFF" stroke-width="1.33333" stroke-miterlimit="8" stroke-dasharray="1.33333 1.33333" fill="none" fill-rule="evenodd"/><path d="M728.5 503C728.5 498.306 732.306 494.5 737 494.5L834 494.5C838.694 494.5 842.5 498.306 842.5 503L842.5 537C842.5 541.694 838.694 545.5 834 545.5L737 545.5C732.306 545.5 728.5 541.694 728.5 537Z" stroke="#2F528F" stroke-width="1.33333" stroke-miterlimit="8" fill="#4472C4" fill-rule="evenodd"/><text fill="#FFFFFF" font-family="DengXian,DengXian_MSFontService,sans-serif" font-weight="400" font-size="24" transform="translate(761.6 513)">map</text><text fill="#FFFFFF" font-family="DengXian,DengXian_MSFontService,sans-serif" font-weight="400" font-size="24" transform="translate(764.187 542)">task</text><path d="M726.5 365.834C726.5 361.231 730.231 357.5 734.833 357.5L832.167 357.5C836.769 357.5 840.5 361.231 840.5 365.834L840.5 399.167C840.5 403.769 836.769 407.5 832.167 407.5L734.833 407.5C730.231 407.5 726.5 403.769 726.5 399.167Z" stroke="#2F528F" stroke-width="1.33333" stroke-miterlimit="8" fill="#4472C4" fill-rule="evenodd"/><text fill="#FFFFFF" font-family="DengXian,DengXian_MSFontService,sans-serif" font-weight="400" font-size="24" transform="translate(760.333 375)">map</text><text fill="#FFFFFF" font-family="DengXian,DengXian_MSFontService,sans-serif" font-weight="400" font-size="24" transform="translate(762.92 404)">task</text><path d="M726.5 235.833C726.5 231.231 730.231 227.5 734.833 227.5L832.167 227.5C836.769 227.5 840.5 231.231 840.5 235.833L840.5 269.167C840.5 273.769 836.769 277.5 832.167 277.5L734.833 277.5C730.231 277.5 726.5 273.769 726.5 269.167Z" stroke="#2F528F" stroke-width="1.33333" stroke-miterlimit="8" fill="#4472C4" fill-rule="evenodd"/><text fill="#FFFFFF" font-family="DengXian,DengXian_MSFontService,sans-serif" font-weight="400" font-size="24" transform="translate(760.333 245)">map</text><text fill="#FFFFFF" font-family="DengXian,DengXian_MSFontService,sans-serif" font-weight="400" font-size="24" transform="translate(762.92 274)">task</text><path d="M962.5 362.334C962.5 356.903 966.903 352.5 972.334 352.5L1085.67 352.5C1091.1 352.5 1095.5 356.903 1095.5 362.334L1095.5 401.667C1095.5 407.097 1091.1 411.5 1085.67 411.5L972.334 411.5C966.903 411.5 962.5 407.097 962.5 401.667Z" stroke="#2F528F" stroke-width="1.33333" stroke-miterlimit="8" fill="#ED7D31" fill-rule="evenodd"/><text fill="#FFFFFF" font-family="DengXian,DengXian_MSFontService,sans-serif" font-weight="400" font-size="24" transform="translate(993.467 375)">reduce</text><text fill="#FFFFFF" font-family="DengXian,DengXian_MSFontService,sans-serif" font-weight="400" font-size="24" transform="translate(1008.39 404)">task</text><path d="M957.5 325.5 957.5 438.9" stroke="#FFFFFF" stroke-width="1.33333" stroke-miterlimit="8" stroke-dasharray="1.33333 1.33333" fill="none" fill-rule="evenodd"/><rect x="844.5" y="192.5" width="257" height="113" stroke="#2F528F" stroke-width="1.33333" stroke-miterlimit="8" stroke-dasharray="1.33333 1.33333" fill="#FFFFFF"/><text fill="#404040" font-family="DengXian,DengXian_MSFontService,sans-serif" font-weight="400" font-size="21" transform="translate(951.333 256)">空闲</text><rect x="845.5" y="325.5" width="112" height="114" stroke="#2F528F" stroke-width="1.33333" stroke-miterlimit="8" stroke-dasharray="1.33333 1.33333" fill="#FFFFFF"/><text fill="#404040" font-family="DengXian,DengXian_MSFontService,sans-serif" font-weight="400" font-size="21" transform="translate(879.667 389)">空闲</text><rect x="845.5" y="459.5" width="256" height="114" stroke="#2F528F" stroke-width="1.33333" stroke-miterlimit="8" stroke-dasharray="1.33333 1.33333" fill="#FFFFFF"/><text fill="#404040" font-family="DengXian,DengXian_MSFontService,sans-serif" font-weight="400" font-size="21" transform="translate(951.867 523)">空闲</text></g></svg>