<svg width="1247" height="502" xmlns="http://www.w3.org/2000/svg" xmlns:xlink="http://www.w3.org/1999/xlink" overflow="hidden"><defs><clipPath id="clip0"><rect x="9" y="113" width="1247" height="502"/></clipPath></defs><g clip-path="url(#clip0)" transform="translate(-9 -113)"><path d="M185.5 123.834C185.5 119.231 189.231 115.5 193.834 115.5L328.166 115.5C332.769 115.5 336.5 119.231 336.5 123.834L336.5 157.166C336.5 161.769 332.769 165.5 328.166 165.5L193.834 165.5C189.231 165.5 185.5 161.769 185.5 157.166Z" stroke="#4BACC6" stroke-width="2.66667" stroke-linejoin="round" stroke-miterlimit="10" fill="#FFFFFF" fill-rule="evenodd"/><text font-family="Microsoft YaHei,Microsoft YaHei_MSFontService,sans-serif" font-weight="700" font-size="21" transform="translate(228.46 147)">字节流</text><path d="M45.5001 219C45.5001 214.306 49.3057 210.5 54.0003 210.5L237 210.5C241.694 210.5 245.5 214.306 245.5 219L245.5 253C245.5 257.694 241.694 261.5 237 261.5L54.0003 261.5C49.3057 261.5 45.5001 257.694 45.5001 253Z" stroke="#00B0F0" stroke-width="2.66667" stroke-linejoin="round" stroke-miterlimit="10" fill="#FFFFFF" fill-rule="evenodd"/><text font-family="Calibri,Calibri_MSFontService,sans-serif" font-weight="700" font-size="27" transform="translate(75.7548 244)">InputStream</text><path d="M652.5 128.834C652.5 124.231 656.231 120.5 660.834 120.5L795.167 120.5C799.769 120.5 803.5 124.231 803.5 128.834L803.5 162.166C803.5 166.769 799.769 170.5 795.167 170.5L660.834 170.5C656.231 170.5 652.5 166.769 652.5 162.166Z" stroke="#4BACC6" stroke-width="2.66667" stroke-linejoin="round" stroke-miterlimit="10" fill="#FFFFFF" fill-rule="evenodd"/><text font-family="Microsoft YaHei,Microsoft YaHei_MSFontService,sans-serif" font-weight="700" font-size="21" transform="translate(695.327 152)">字符流</text><path d="M1103.5 164C1103.5 159.306 1107.31 155.5 1112 155.5L1246 155.5C1250.69 155.5 1254.5 159.306 1254.5 164L1254.5 198C1254.5 202.694 1250.69 206.5 1246 206.5L1112 206.5C1107.31 206.5 1103.5 202.694 1103.5 198Z" stroke="#00B0F0" stroke-width="2.66667" stroke-linejoin="round" stroke-miterlimit="10" fill="#FFFFFF" fill-rule="evenodd"/><text font-family="Microsoft YaHei,Microsoft YaHei_MSFontService,sans-serif" font-weight="700" font-size="21" transform="translate(1146.34 188)">抽象类</text><path d="M262.175 165.694 261.862 167.819C261.843 167.948 261.805 168.074 261.75 168.193L260.75 170.318C260.71 170.402 260.662 170.481 260.606 170.555L259.043 172.618C259.002 172.672 258.958 172.723 258.909 172.77L256.846 174.77 254.085 176.823 250.927 178.762 247.256 180.572 243.326 182.285 234.525 185.203 224.655 187.487 214.1 188.946 203.23 189.457 192.48 189.957 182.163 191.383 172.523 193.551 163.905 196.452 160.121 198.042 156.702 199.755 153.739 201.575 151.21 203.448 151.471 203.193 149.633 205.561 147.527 203.925 149.365 201.557C149.44 201.461 149.528 201.375 149.626 201.302L152.347 199.3 155.509 197.37 159.09 195.583 163.056 193.924 171.939 190.949 181.799 188.742 192.356 187.293 203.106 186.793 213.736 186.304 224.056 184.888 233.687 182.672 242.261 179.84 246.08 178.178 249.534 176.488 252.501 174.677 254.99 172.855 257.052 170.855 256.918 171.007 258.48 168.945 258.337 169.182 259.337 167.057 259.224 167.431 259.536 165.306ZM152.743 205.408 145.5 210.656 145.648 201.712Z" fill="#FF0000"/><path d="M0.193992-1.31915 2.31899-1.00665C2.4267-0.990807 2.532-0.961854 2.63267-0.920404L4.75767-0.0454042C4.85567-0.0050512 4.94852 0.0468491 5.03423 0.109185L7.09673 1.60919 9.24023 3.66735 11.2938 6.23284 13.2418 9.20914 15.049 12.5554 16.7713 16.2498 19.6955 24.5582 21.9815 33.7412 23.4441 43.618 23.9567 53.8088 24.4567 63.8713 25.8816 73.493 28.0461 82.4371 30.9425 90.4872 32.5292 94.0171 34.2365 97.1804 36.0543 99.9591 37.9188 102.295 37.6535 102.043 39.9484 103.693 38.3914 105.858 36.0965 104.207C35.9968 104.136 35.9076 104.051 35.8312 103.955L33.8207 101.416 31.8885 98.4446 30.0958 95.1079 28.4325 91.3878 25.4539 83.0629 23.2434 73.882 21.7933 64.0037 21.2933 53.9412 20.8059 44.007 19.3935 34.3838 17.1795 25.4417 14.3537 17.3752 12.701 13.8196 11.0082 10.6659 9.20623 7.89216 7.38477 5.58265 5.52827 3.76581 3.46577 2.26581 3.74233 2.4204 1.61733 1.5454 1.93101 1.63165-0.193992 1.31915ZM39.7341 100.597 45.1555 107.711 36.2115 107.78Z" fill="#FF0000" transform="matrix(1.83697e-16 1 1 -1.83697e-16 260.5 165.5)"/><path d="M739.684 172.706 739.371 174.706C739.354 174.819 739.322 174.93 739.276 175.035L738.401 177.035C738.367 177.112 738.326 177.186 738.278 177.255L736.903 179.255C736.861 179.317 736.814 179.374 736.762 179.427L734.887 181.365 732.456 183.348 729.582 185.187 726.375 186.923 722.856 188.526 714.934 191.32 706.121 193.483 696.686 194.882 686.999 195.394 677.373 195.894 668.25 197.256 659.675 199.297 652.006 202.067 648.668 203.589 645.625 205.236 642.957 206.937 640.769 208.723 641.019 208.456 639.643 210.406 637.464 208.869 638.84 206.919C638.91 206.819 638.994 206.729 639.089 206.652L641.526 204.688 644.358 202.889 647.565 201.161 651.103 199.558 659.059 196.703 667.858 194.619 677.235 193.231 686.859 192.731 696.297 192.244 705.487 190.892 714.049 188.805 721.752 186.099 725.108 184.577 728.151 182.938 730.777 181.277 732.971 179.51 734.846 177.573 734.705 177.745 736.08 175.745 735.958 175.966 736.833 173.966 736.737 174.294 737.049 172.294ZM642.72 210.284 635.5 215.563 635.609 206.62Z" fill="#FF0000"/><path d="M0.245718-1.3105 2.24572-0.935496C2.37832-0.910633 2.50639-0.865784 2.62554-0.802488L4.62554 0.260012C4.70901 0.304355 4.78759 0.357494 4.85983 0.418445L6.85983 2.10594C6.91843 2.15539 6.97278 2.20993 7.02203 2.26871L8.95953 4.58121 10.9219 7.5104 12.7462 11.0112 14.4692 14.8978 16.0639 19.2274 18.8433 28.8168 20.9949 39.551 22.3862 51.0275 22.8946 62.8808 23.3946 74.6308 24.7611 85.8391 26.8089 96.3709 29.5917 105.811 31.1242 109.909 32.7817 113.648 34.4962 116.949 36.3043 119.709 36.07 119.438 38.2307 121.346 36.4657 123.345 34.305 121.437C34.215 121.358 34.1362 121.266 34.0707 121.166L32.1288 118.176 30.3433 114.727 28.6258 110.841 27.0333 106.564 24.1911 96.8791 22.1139 86.1609 20.7304 74.7442 20.2304 62.9942 19.7388 51.3475 18.3801 40.074 16.2817 29.5582 13.5611 20.1476 12.0308 15.9772 10.3788 12.2388 8.7031 8.9896 6.91547 6.29379 4.97797 3.98129 5.14017 4.14405 3.14017 2.45656 3.37446 2.61499 1.37446 1.55249 1.75428 1.6855-0.245718 1.3105ZM38.2647 118.23 43.0633 125.778 34.1457 125.088Z" fill="#FF0000" transform="matrix(1.83697e-16 1 1 -1.83697e-16 743.5 171.5)"/><path d="M31.5001 319.834C31.5001 315.231 35.2311 311.5 39.8336 311.5L268.166 311.5C272.769 311.5 276.5 315.231 276.5 319.834L276.5 353.166C276.5 357.769 272.769 361.5 268.166 361.5L39.8336 361.5C35.2311 361.5 31.5001 357.769 31.5001 353.166Z" stroke="#C0504D" stroke-width="2.66667" stroke-linejoin="round" stroke-miterlimit="10" fill="#FFFFFF" fill-rule="evenodd"/><text font-family="Calibri,Calibri_MSFontService,sans-serif" font-weight="700" font-size="27" transform="translate(64.8215 345)">FileInputStream</text><path d="M186.175 260.694 185.862 262.819C185.843 262.948 185.805 263.074 185.75 263.193L184.75 265.318C184.71 265.402 184.662 265.481 184.606 265.555L183.043 267.618C183.002 267.672 182.958 267.723 182.909 267.77L180.846 269.77 178.085 271.823 174.927 273.762 171.256 275.572 167.326 277.285 158.525 280.203 148.655 282.487 138.1 283.946 127.23 284.457 116.48 284.957 106.163 286.383 96.5225 288.551 87.905 291.452 84.1213 293.042 80.7019 294.755 77.7393 296.575 75.21 298.448 75.4713 298.193 73.633 300.561 71.5266 298.925 73.365 296.557C73.44 296.461 73.5279 296.375 73.6264 296.302L76.3469 294.3 79.5094 292.37 83.09 290.583 87.0563 288.924 95.9388 285.949 105.799 283.742 116.356 282.293 127.106 281.793 137.736 281.304 148.056 279.888 157.687 277.672 166.261 274.84 170.08 273.178 173.534 271.488 176.501 269.677 178.99 267.855 181.052 265.855 180.918 266.007 182.48 263.945 182.337 264.182 183.337 262.057 183.224 262.431 183.536 260.306ZM76.7434 300.408 69.5001 305.656 69.6482 296.712Z" fill="#FF0000"/><path d="M0.193992-1.31915 2.31899-1.00665C2.4267-0.990807 2.532-0.961854 2.63267-0.920404L4.75767-0.0454042C4.85567-0.0050512 4.94852 0.0468491 5.03423 0.109185L7.09673 1.60919 9.24023 3.66735 11.2938 6.23284 13.2418 9.20914 15.049 12.5554 16.7713 16.2498 19.6955 24.5582 21.9815 33.7412 23.4441 43.618 23.9567 53.8088 24.4567 63.8713 25.8816 73.493 28.0461 82.4371 30.9425 90.4872 32.5292 94.0171 34.2365 97.1804 36.0543 99.9591 37.9188 102.295 37.6535 102.043 39.9484 103.693 38.3914 105.858 36.0965 104.207C35.9968 104.136 35.9076 104.051 35.8312 103.955L33.8207 101.416 31.8885 98.4446 30.0958 95.1079 28.4325 91.3878 25.4539 83.0629 23.2434 73.882 21.7933 64.0037 21.2933 53.9412 20.8059 44.007 19.3935 34.3838 17.1795 25.4417 14.3537 17.3752 12.701 13.8196 11.0082 10.6659 9.20623 7.89216 7.38477 5.58265 5.52827 3.76581 3.46577 2.26581 3.74233 2.4204 1.61733 1.5454 1.93101 1.63165-0.193992 1.31915ZM39.7341 100.597 45.1555 107.711 36.2115 107.78Z" fill="#FF0000" transform="matrix(1.83697e-16 1 1 -1.83697e-16 350.5 265.5)"/><path d="M732.684 263.706 732.371 265.706C732.354 265.819 732.322 265.93 732.276 266.035L731.401 268.035C731.367 268.112 731.326 268.186 731.278 268.255L729.903 270.255C729.861 270.317 729.814 270.374 729.762 270.427L727.887 272.365 725.456 274.348 722.582 276.187 719.375 277.923 715.856 279.526 707.934 282.32 699.121 284.483 689.686 285.882 679.999 286.394 670.373 286.894 661.25 288.256 652.675 290.297 645.006 293.067 641.668 294.589 638.625 296.236 635.957 297.937 633.769 299.723 634.019 299.456 632.643 301.406 630.464 299.869 631.84 297.919C631.91 297.819 631.994 297.729 632.089 297.652L634.526 295.688 637.358 293.889 640.565 292.161 644.103 290.558 652.059 287.703 660.858 285.619 670.235 284.231 679.859 283.731 689.297 283.244 698.487 281.892 707.049 279.805 714.752 277.099 718.108 275.577 721.151 273.938 723.777 272.277 725.971 270.51 727.846 268.573 727.705 268.745 729.08 266.745 728.958 266.966 729.833 264.966 729.737 265.294 730.049 263.294ZM635.72 301.284 628.5 306.563 628.609 297.62Z" fill="#FF0000"/><path d="M0.245718-1.3105 2.24572-0.935496C2.37832-0.910633 2.50639-0.865784 2.62554-0.802488L4.62554 0.260012C4.70901 0.304355 4.78759 0.357494 4.85983 0.418445L6.85983 2.10594C6.91843 2.15539 6.97278 2.20993 7.02203 2.26871L8.95953 4.58121 10.9219 7.5104 12.7462 11.0112 14.4692 14.8978 16.0639 19.2274 18.8433 28.8168 20.9949 39.551 22.3862 51.0275 22.8946 62.8808 23.3946 74.6308 24.7611 85.8391 26.8089 96.3709 29.5917 105.811 31.1242 109.909 32.7817 113.648 34.4962 116.949 36.3043 119.709 36.07 119.438 38.2307 121.346 36.4657 123.345 34.305 121.437C34.215 121.358 34.1362 121.266 34.0707 121.166L32.1288 118.176 30.3433 114.727 28.6258 110.841 27.0333 106.564 24.1911 96.8791 22.1139 86.1609 20.7304 74.7442 20.2304 62.9942 19.7388 51.3475 18.3801 40.074 16.2817 29.5582 13.5611 20.1476 12.0308 15.9772 10.3788 12.2388 8.7031 8.9896 6.91547 6.29379 4.97797 3.98129 5.14017 4.14405 3.14017 2.45656 3.37446 2.61499 1.37446 1.55249 1.75428 1.6855-0.245718 1.3105ZM38.2647 118.23 43.0633 125.778 34.1457 125.088Z" fill="#FF0000" transform="matrix(1.83697e-16 1 1 -1.83697e-16 901.5 261.5)"/><path d="M273.5 223C273.5 218.306 277.306 214.5 282 214.5L465 214.5C469.694 214.5 473.5 218.306 473.5 223L473.5 257C473.5 261.694 469.694 265.5 465 265.5L282 265.5C277.306 265.5 273.5 261.694 273.5 257Z" stroke="#00B0F0" stroke-width="2.66667" stroke-linejoin="round" stroke-miterlimit="10" fill="#FFFFFF" fill-rule="evenodd"/><text font-family="Calibri,Calibri_MSFontService,sans-serif" font-weight="700" font-size="27" transform="translate(293.377 249)">OutputStream</text><path d="M599.5 220.834C599.5 216.231 603.231 212.5 607.834 212.5L791.167 212.5C795.769 212.5 799.5 216.231 799.5 220.834L799.5 254.166C799.5 258.769 795.769 262.5 791.167 262.5L607.834 262.5C603.231 262.5 599.5 258.769 599.5 254.166Z" stroke="#00B0F0" stroke-width="2.66667" stroke-linejoin="round" stroke-miterlimit="10" fill="#FFFFFF" fill-rule="evenodd"/><text font-family="Calibri,Calibri_MSFontService,sans-serif" font-weight="700" font-size="27" transform="translate(659.846 246)">Reader</text><path d="M871.5 220.834C871.5 216.231 875.231 212.5 879.834 212.5L1063.17 212.5C1067.77 212.5 1071.5 216.231 1071.5 220.834L1071.5 254.166C1071.5 258.769 1067.77 262.5 1063.17 262.5L879.834 262.5C875.231 262.5 871.5 258.769 871.5 254.166Z" stroke="#00B0F0" stroke-width="2.66667" stroke-linejoin="round" stroke-miterlimit="10" fill="#FFFFFF" fill-rule="evenodd"/><text font-family="Calibri,Calibri_MSFontService,sans-serif" font-weight="700" font-size="27" transform="translate(935.509 246)">Writer</text><path d="M1103.5 233.834C1103.5 229.231 1107.23 225.5 1111.83 225.5L1246.17 225.5C1250.77 225.5 1254.5 229.231 1254.5 233.834L1254.5 267.166C1254.5 271.769 1250.77 275.5 1246.17 275.5L1111.83 275.5C1107.23 275.5 1103.5 271.769 1103.5 267.166Z" stroke="#C0504D" stroke-width="2.66667" stroke-linejoin="round" stroke-miterlimit="10" fill="#FFFFFF" fill-rule="evenodd"/><text font-family="SimHei,SimHei_MSFontService,sans-serif" font-weight="700" font-size="27" transform="translate(1138.09 259)">实现类</text><path d="M316.5 319.834C316.5 315.231 320.231 311.5 324.834 311.5L552.167 311.5C556.769 311.5 560.5 315.231 560.5 319.834L560.5 353.167C560.5 357.769 556.769 361.5 552.167 361.5L324.834 361.5C320.231 361.5 316.5 357.769 316.5 353.167Z" stroke="#C0504D" stroke-width="2.66667" stroke-linejoin="round" stroke-miterlimit="10" fill="#FFFFFF" fill-rule="evenodd"/><text font-family="Calibri,Calibri_MSFontService,sans-serif" font-weight="700" font-size="27" transform="translate(339.405 345)">FileOutputStream</text><path d="M600.5 319C600.5 314.306 604.306 310.5 609 310.5L812 310.5C816.694 310.5 820.5 314.306 820.5 319L820.5 353C820.5 357.694 816.694 361.5 812 361.5L609 361.5C604.306 361.5 600.5 357.694 600.5 353Z" stroke="#C0504D" stroke-width="2.66667" stroke-linejoin="round" stroke-miterlimit="10" fill="#FFFFFF" fill-rule="evenodd"/><text font-family="Calibri,Calibri_MSFontService,sans-serif" font-weight="700" font-size="27" transform="translate(651.513 344)">FileReader</text><path d="M901.5 314C901.5 309.306 905.306 305.5 910 305.5L1067 305.5C1071.69 305.5 1075.5 309.306 1075.5 314L1075.5 348C1075.5 352.694 1071.69 356.5 1067 356.5L910 356.5C905.306 356.5 901.5 352.694 901.5 348Z" stroke="#C0504D" stroke-width="2.66667" stroke-linejoin="round" stroke-miterlimit="10" fill="#FFFFFF" fill-rule="evenodd"/><text font-family="Calibri,Calibri_MSFontService,sans-serif" font-weight="700" font-size="27" transform="translate(932.673 339)">FileWriter</text><path d="M16.5001 388C16.5001 383.306 20.3057 379.5 25.0002 379.5L282 379.5C286.694 379.5 290.5 383.306 290.5 388L290.5 422C290.5 426.694 286.694 430.5 282 430.5L25.0002 430.5C20.3057 430.5 16.5001 426.694 16.5001 422Z" stroke="#C0504D" stroke-width="2.66667" stroke-linejoin="round" stroke-miterlimit="10" fill="#FFFFFF" fill-rule="evenodd"/><text font-family="Calibri,Calibri_MSFontService,sans-serif" font-weight="700" font-size="27" transform="translate(35.4664 413)">BufferedInputStream</text><path d="M300.5 388.833C300.5 384.231 304.231 380.5 308.833 380.5L585.167 380.5C589.769 380.5 593.5 384.231 593.5 388.833L593.5 422.167C593.5 426.769 589.769 430.5 585.167 430.5L308.833 430.5C304.231 430.5 300.5 426.769 300.5 422.167Z" stroke="#C0504D" stroke-width="2.66667" stroke-linejoin="round" stroke-miterlimit="10" fill="#FFFFFF" fill-rule="evenodd"/><text font-family="Calibri,Calibri_MSFontService,sans-serif" font-weight="700" font-size="27" transform="translate(319.397 414)">BufferedOutputStream</text><path d="M610.5 387.834C610.5 383.231 614.231 379.5 618.834 379.5L822.167 379.5C826.769 379.5 830.5 383.231 830.5 387.834L830.5 421.167C830.5 425.769 826.769 429.5 822.167 429.5L618.834 429.5C614.231 429.5 610.5 425.769 610.5 421.167Z" stroke="#C0504D" stroke-width="2.66667" stroke-linejoin="round" stroke-miterlimit="10" fill="#FFFFFF" fill-rule="evenodd"/><text font-family="Calibri,Calibri_MSFontService,sans-serif" font-weight="700" font-size="27" transform="translate(632.857 413)">BufferedReader</text><path d="M883.5 384.834C883.5 380.231 887.231 376.5 891.834 376.5L1095.17 376.5C1099.77 376.5 1103.5 380.231 1103.5 384.834L1103.5 418.167C1103.5 422.769 1099.77 426.5 1095.17 426.5L891.834 426.5C887.231 426.5 883.5 422.769 883.5 418.167Z" stroke="#C0504D" stroke-width="2.66667" stroke-linejoin="round" stroke-miterlimit="10" fill="#FFFFFF" fill-rule="evenodd"/><text font-family="Calibri,Calibri_MSFontService,sans-serif" font-weight="700" font-size="27" transform="translate(908.95 410)">BufferedWriter</text><path d="M605.5 463.834C605.5 459.783 608.783 456.5 612.834 456.5L857.167 456.5C861.217 456.5 864.5 459.783 864.5 463.834L864.5 493.167C864.5 497.217 861.217 500.5 857.167 500.5L612.834 500.5C608.783 500.5 605.5 497.217 605.5 493.167Z" stroke="#C0504D" stroke-width="2.66667" stroke-linejoin="round" stroke-miterlimit="10" fill="#FFFFFF" fill-rule="evenodd"/><text font-family="Calibri,Calibri_MSFontService,sans-serif" font-weight="700" font-size="27" transform="translate(625.893 487)">InputStreamReader</text><path d="M891.5 458.834C891.5 454.783 894.783 451.5 898.834 451.5L1143.17 451.5C1147.22 451.5 1150.5 454.783 1150.5 458.834L1150.5 488.167C1150.5 492.217 1147.22 495.5 1143.17 495.5L898.834 495.5C894.783 495.5 891.5 492.217 891.5 488.167Z" stroke="#C0504D" stroke-width="2.66667" stroke-linejoin="round" stroke-miterlimit="10" fill="#FFFFFF" fill-rule="evenodd"/><text font-family="Calibri,Calibri_MSFontService,sans-serif" font-weight="700" font-size="27" transform="translate(910.304 482)">OutputStreamWrite</text><path d="M308.5 503.833C308.5 499.783 311.783 496.5 315.833 496.5L579.167 496.5C583.217 496.5 586.5 499.783 586.5 503.833L586.5 533.167C586.5 537.217 583.217 540.5 579.167 540.5L315.833 540.5C311.783 540.5 308.5 537.217 308.5 533.167Z" stroke="#C0504D" stroke-width="2.66667" stroke-linejoin="round" stroke-miterlimit="10" fill="#FFFFFF" fill-rule="evenodd"/><text font-family="Calibri,Calibri_MSFontService,sans-serif" font-weight="700" font-size="27" transform="translate(331.097 527)">ObjectOutputStream</text><path d="M11.5001 502.833C11.5001 498.783 14.7833 495.5 18.8334 495.5L282.167 495.5C286.217 495.5 289.5 498.783 289.5 502.833L289.5 532.167C289.5 536.217 286.217 539.5 282.167 539.5L18.8334 539.5C14.7833 539.5 11.5001 536.217 11.5001 532.167Z" stroke="#C0504D" stroke-width="2.66667" stroke-linejoin="round" stroke-miterlimit="10" fill="#FFFFFF" fill-rule="evenodd"/><text font-family="Calibri,Calibri_MSFontService,sans-serif" font-weight="700" font-size="27" transform="translate(44.3662 526)">ObjectInputStream</text><path d="M340.5 567.334C340.5 563.007 344.007 559.5 348.334 559.5L527.667 559.5C531.993 559.5 535.5 563.007 535.5 567.334L535.5 598.667C535.5 602.993 531.993 606.5 527.667 606.5L348.334 606.5C344.007 606.5 340.5 602.993 340.5 598.667Z" stroke="#C0504D" stroke-width="2.66667" stroke-linejoin="round" stroke-miterlimit="10" fill="#FFFFFF" fill-rule="evenodd"/><text font-family="Calibri,Calibri_MSFontService,sans-serif" font-weight="700" font-size="27" transform="translate(371.136 592)">PrintStream</text><path d="M895.5 563.334C895.5 559.007 899.007 555.5 903.334 555.5L1083.67 555.5C1087.99 555.5 1091.5 559.007 1091.5 563.334L1091.5 594.667C1091.5 598.993 1087.99 602.5 1083.67 602.5L903.334 602.5C899.007 602.5 895.5 598.993 895.5 594.667Z" stroke="#C0504D" stroke-width="2.66667" stroke-linejoin="round" stroke-miterlimit="10" fill="#FFFFFF" fill-rule="evenodd"/><text font-family="Calibri,Calibri_MSFontService,sans-serif" font-weight="700" font-size="27" transform="translate(930.44 588)">PrintWriter</text></g></svg>