<svg width="963" height="320" xmlns="http://www.w3.org/2000/svg" xmlns:xlink="http://www.w3.org/1999/xlink" overflow="hidden"><defs><clipPath id="clip0"><rect x="95" y="194" width="963" height="320"/></clipPath></defs><g clip-path="url(#clip0)" transform="translate(-95 -194)"><text fill="#262626" font-family="Wingdings,Wingdings_MSFontService,sans-serif" font-weight="400" font-size="21" transform="translate(112.489 229)"><tspan font-family="Microsoft YaHei,Microsoft YaHei_MSFontService,sans-serif" font-weight="700" font-size="21" x="30" y="0">按流的方向分</tspan></text><path d="M176 253.167C176 249.209 179.209 246 183.167 246L326.833 246C330.791 246 334 249.209 334 253.167L334 281.833C334 285.791 330.791 289 326.833 289L183.167 289C179.209 289 176 285.791 176 281.833Z" fill="#C00000" fill-rule="evenodd"/><text fill="#FFFFFF" font-family="Calibri,Calibri_MSFontService,sans-serif" font-weight="700" font-size="21" transform="translate(234.139 275)">IO<tspan font-family="Microsoft YaHei,Microsoft YaHei_MSFontService,sans-serif" font-size="21" x="20.1667" y="0">流</tspan></text><path d="M256.5 289.5 256.5 315.945C256.5 316.313 256.201 316.611 255.833 316.611L164.5 316.611 165.167 315.945 165.167 341.069 163.833 341.069 163.833 315.945C163.833 315.576 164.132 315.278 164.5 315.278L255.833 315.278 255.167 315.945 255.167 289.5ZM169.743 333.405 164.5 342.392 159.258 333.405C159.072 333.087 159.179 332.679 159.497 332.493 159.816 332.308 160.224 332.415 160.409 332.733L165.076 340.733 163.924 340.733 168.591 332.733C168.776 332.415 169.185 332.308 169.503 332.493 169.821 332.679 169.928 333.087 169.743 333.405Z" fill="#0070C0"/><path d="M0-0.666667 25.7778-0.666667C26.146-0.666667 26.4445-0.36819 26.4445 0L26.4445 91.3334 25.7778 90.6668 50.2356 90.6668 50.2356 92.0001 25.7778 92.0001C25.4097 92.0001 25.1112 91.7016 25.1112 91.3334L25.1112 0 25.7778 0.666667 0 0.666667ZM42.5715 86.0909 51.5587 91.3334 42.5715 96.576C42.2535 96.7615 41.8453 96.6541 41.6597 96.336 41.4742 96.018 41.5816 95.6098 41.8997 95.4242L49.8997 90.7576 49.8997 91.9093 41.8997 87.2426C41.5816 87.0571 41.4742 86.6489 41.6597 86.3309 41.8453 86.0128 42.2535 85.9054 42.5715 86.0909Z" fill="#0070C0" transform="matrix(1.83697e-16 1 1 -1.83697e-16 255.5 289.5)"/><path d="M95 349.167C95 345.209 98.2087 342 102.167 342L224.833 342C228.791 342 232 345.209 232 349.167L232 377.833C232 381.791 228.791 385 224.833 385L102.167 385C98.2087 385 95 381.791 95 377.833Z" fill="#C00000" fill-rule="evenodd"/><text fill="#FFFFFF" font-family="Microsoft YaHei,Microsoft YaHei_MSFontService,sans-serif" font-weight="700" font-size="21" transform="translate(131.444 371)">输入流</text><path d="M278 348.167C278 344.209 281.209 341 285.167 341L406.833 341C410.791 341 414 344.209 414 348.167L414 376.833C414 380.791 410.791 384 406.833 384L285.167 384C281.209 384 278 380.791 278 376.833Z" fill="#C00000" fill-rule="evenodd"/><text fill="#FFFFFF" font-family="Microsoft YaHei,Microsoft YaHei_MSFontService,sans-serif" font-weight="700" font-size="21" transform="translate(314.111 370)">输出流</text><path d="M707 247.167C707 243.209 710.209 240 714.167 240L858.833 240C862.791 240 866 243.209 866 247.167L866 275.833C866 279.791 862.791 283 858.833 283L714.167 283C710.209 283 707 279.791 707 275.833Z" fill="#C00000" fill-rule="evenodd"/><text fill="#FFFFFF" font-family="Calibri,Calibri_MSFontService,sans-serif" font-weight="700" font-size="21" transform="translate(765.695 269)">IO<tspan font-family="Microsoft YaHei,Microsoft YaHei_MSFontService,sans-serif" font-size="21" x="20.1666" y="0">流</tspan></text><path d="M787.5 283.5 787.5 308.833C787.5 309.202 787.202 309.5 786.833 309.5L689.5 309.5 690.167 308.833 690.167 332.847 688.833 332.847 688.833 308.833C688.833 308.465 689.132 308.167 689.5 308.167L786.833 308.167 786.167 308.833 786.167 283.5ZM694.743 325.183 689.5 334.17 684.258 325.183C684.072 324.865 684.179 324.456 684.497 324.271 684.815 324.085 685.224 324.193 685.409 324.511L690.076 332.511 688.924 332.511 693.591 324.511C693.776 324.193 694.185 324.085 694.503 324.271 694.821 324.456 694.928 324.865 694.743 325.183Z" fill="#0070C0"/><path d="M0-0.666667 24.9999-0.666667C25.3681-0.666667 25.6666-0.36819 25.6666 0L25.6666 89.5555 24.9999 88.8888 48.6799 88.8888 48.6799 90.2222 24.9999 90.2222C24.6318 90.2222 24.3333 89.9237 24.3333 89.5555L24.3333 0 24.9999 0.666667 0 0.666667ZM41.0158 84.313 50.003 89.5555 41.0158 94.798C40.6978 94.9835 40.2896 94.8761 40.104 94.5581 39.9185 94.24 40.0259 93.8318 40.344 93.6463L48.344 88.9796 48.344 90.1313 40.344 85.4647C40.0259 85.2792 39.9185 84.8709 40.104 84.5529 40.2896 84.2349 40.6978 84.1274 41.0158 84.313Z" fill="#0070C0" transform="matrix(1.83697e-16 1 1 -1.83697e-16 786.5 283.5)"/><path d="M621 341.167C621 337.209 624.209 334 628.167 334L749.833 334C753.791 334 757 337.209 757 341.167L757 369.833C757 373.791 753.791 377 749.833 377L628.167 377C624.209 377 621 373.791 621 369.833Z" fill="#C00000" fill-rule="evenodd"/><text fill="#FFFFFF" font-family="Microsoft YaHei,Microsoft YaHei_MSFontService,sans-serif" font-weight="700" font-size="21" transform="translate(657 362)">字节流</text><path d="M808 340.167C808 336.209 811.209 333 815.167 333L936.833 333C940.791 333 944 336.209 944 340.167L944 368.833C944 372.791 940.791 376 936.833 376L815.167 376C811.209 376 808 372.791 808 368.833Z" fill="#C00000" fill-rule="evenodd"/><text fill="#FFFFFF" font-family="Microsoft YaHei,Microsoft YaHei_MSFontService,sans-serif" font-weight="700" font-size="21" transform="translate(844.111 362)">字符流<tspan fill="#262626" font-family="Wingdings,Wingdings_MSFontService,sans-serif" font-weight="400" font-size="21" x="-194.511" y="-133"></tspan><tspan fill="#262626" font-size="21" x="-156.978" y="-133">按流中的数据最小单位分为</tspan></text><path d="M0.448887-0.492895 49.0066 43.7294 48.1088 44.7152-0.448887 0.492895ZM46.4212 35.1857 49.5358 45.113 39.3613 42.9377C39.0012 42.8608 38.7718 42.5065 38.8487 42.1464 38.9257 41.7864 39.28 41.5569 39.64 41.6339L48.697 43.5702 47.9215 44.4217 45.149 35.5848C45.0388 35.2335 45.2342 34.8594 45.5855 34.7492 45.9368 34.639 46.3109 34.8344 46.4212 35.1857Z" fill="#0070C0" transform="matrix(-1 0 0 1 689.034 377.5)"/><path d="M876.918 375.981 932.201 420.486 931.365 421.525 876.082 377.019ZM929.1 412.116 932.813 421.835 922.525 420.283C922.161 420.228 921.911 419.889 921.966 419.524 922.02 419.16 922.36 418.91 922.724 418.965L931.882 420.346 931.16 421.244 927.855 412.592C927.723 412.248 927.896 411.862 928.24 411.731 928.584 411.6 928.969 411.772 929.1 412.116Z" fill="#0070C0"/><path d="M522 429.333C522 425.283 525.283 422 529.333 422L749.667 422C753.717 422 757 425.283 757 429.333L757 458.667C757 462.717 753.717 466 749.667 466L529.333 466C525.283 466 522 462.717 522 458.667Z" fill="#C00000" fill-rule="evenodd"/><text fill="#FFFFFF" font-family="Microsoft YaHei,Microsoft YaHei_MSFontService,sans-serif" font-weight="700" font-size="21" transform="translate(543.467 451)">操作所有类型的文件</text><path d="M808 428.167C808 424.209 811.209 421 815.167 421L1049.83 421C1053.79 421 1057 424.209 1057 428.167L1057 456.833C1057 460.791 1053.79 464 1049.83 464L815.167 464C811.209 464 808 460.791 808 456.833Z" fill="#C00000" fill-rule="evenodd"/><text fill="#FFFFFF" font-family="Microsoft YaHei,Microsoft YaHei_MSFontService,sans-serif" font-weight="700" font-size="21" transform="translate(836.422 450)">只能操作纯文本文件<tspan fill="#262626" font-weight="400" font-size="21" x="-291.768" y="46">包括音频视频图片等</tspan></text></g></svg>