<svg width="1027" height="456" xmlns="http://www.w3.org/2000/svg" xmlns:xlink="http://www.w3.org/1999/xlink" overflow="hidden"><defs><clipPath id="clip0"><rect x="61" y="154" width="1027" height="456"/></clipPath><linearGradient x1="628.5" y1="155.5" x2="628.5" y2="446.5" gradientUnits="userSpaceOnUse" spreadMethod="reflect" id="fill1"><stop offset="0" stop-color="#B1CBE9"/><stop offset="0.5" stop-color="#A3C1E5"/><stop offset="1" stop-color="#92B9E4"/></linearGradient><linearGradient x1="431.5" y1="203.5" x2="431.5" y2="286.5" gradientUnits="userSpaceOnUse" spreadMethod="reflect" id="fill2"><stop offset="0" stop-color="#FFDD9C"/><stop offset="0.5" stop-color="#FFD78E"/><stop offset="1" stop-color="#FFD479"/></linearGradient><linearGradient x1="431.5" y1="324.5" x2="431.5" y2="407.5" gradientUnits="userSpaceOnUse" spreadMethod="reflect" id="fill3"><stop offset="0" stop-color="#FFDD9C"/><stop offset="0.5" stop-color="#FFD78E"/><stop offset="1" stop-color="#FFD479"/></linearGradient><linearGradient x1="642" y1="203.5" x2="642" y2="286.5" gradientUnits="userSpaceOnUse" spreadMethod="reflect" id="fill4"><stop offset="0" stop-color="#F7BDA4"/><stop offset="0.5" stop-color="#F5B195"/><stop offset="1" stop-color="#F8A581"/></linearGradient><linearGradient x1="826.5" y1="203.5" x2="826.5" y2="286.5" gradientUnits="userSpaceOnUse" spreadMethod="reflect" id="fill5"><stop offset="0" stop-color="#F7BDA4"/><stop offset="0.5" stop-color="#F5B195"/><stop offset="1" stop-color="#F8A581"/></linearGradient><linearGradient x1="745" y1="324.5" x2="745" y2="407.5" gradientUnits="userSpaceOnUse" spreadMethod="reflect" id="fill6"><stop offset="0" stop-color="#F7BDA4"/><stop offset="0.5" stop-color="#F5B195"/><stop offset="1" stop-color="#F8A581"/></linearGradient><linearGradient x1="441" y1="531.5" x2="441" y2="609.5" gradientUnits="userSpaceOnUse" spreadMethod="reflect" id="fill7"><stop offset="0" stop-color="#D2D2D2"/><stop offset="0.5" stop-color="#C8C8C8"/><stop offset="1" stop-color="#C0C0C0"/></linearGradient><linearGradient x1="740.5" y1="531.5" x2="740.5" y2="609.5" gradientUnits="userSpaceOnUse" spreadMethod="reflect" id="fill8"><stop offset="0" stop-color="#D2D2D2"/><stop offset="0.5" stop-color="#C8C8C8"/><stop offset="1" stop-color="#C0C0C0"/></linearGradient><linearGradient x1="151" y1="187.5" x2="151" y2="270.5" gradientUnits="userSpaceOnUse" spreadMethod="reflect" id="fill9"><stop offset="0" stop-color="#FFDD9C"/><stop offset="0.5" stop-color="#FFD78E"/><stop offset="1" stop-color="#FFD479"/></linearGradient><linearGradient x1="151" y1="328.5" x2="151" y2="410.5" gradientUnits="userSpaceOnUse" spreadMethod="reflect" id="fill10"><stop offset="0" stop-color="#F7BDA4"/><stop offset="0.5" stop-color="#F5B195"/><stop offset="1" stop-color="#F8A581"/></linearGradient></defs><g clip-path="url(#clip0)" transform="translate(-61 -154)"><path d="M292.5 204.001C292.5 177.215 314.215 155.5 341.001 155.5L915.999 155.5C942.785 155.5 964.5 177.215 964.5 204.001L964.5 397.999C964.5 424.785 942.785 446.5 915.999 446.5L341.001 446.5C314.215 446.5 292.5 424.785 292.5 397.999Z" stroke="#5B9BD5" stroke-width="0.666667" stroke-miterlimit="8" fill="url(#fill1)" fill-rule="evenodd"/><path d="M342.5 217.334C342.5 209.694 348.694 203.5 356.334 203.5L506.667 203.5C514.307 203.5 520.5 209.694 520.5 217.334L520.5 272.666C520.5 280.307 514.307 286.5 506.667 286.5L356.334 286.5C348.694 286.5 342.5 280.307 342.5 272.666Z" stroke="#FFC000" stroke-width="0.666667" stroke-miterlimit="8" fill="url(#fill2)" fill-rule="evenodd"/><text font-family="DengXian,DengXian_MSFontService,sans-serif" font-weight="700" font-size="24" transform="translate(394.9 238)">方法区<tspan font-size="24" x="-35.7533" y="29">Method Area</tspan></text><path d="M342.5 338.334C342.5 330.694 348.694 324.5 356.334 324.5L506.667 324.5C514.307 324.5 520.5 330.694 520.5 338.334L520.5 393.667C520.5 401.307 514.307 407.5 506.667 407.5L356.334 407.5C348.694 407.5 342.5 401.307 342.5 393.667Z" stroke="#FFC000" stroke-width="0.666667" stroke-miterlimit="8" fill="url(#fill3)" fill-rule="evenodd"/><text font-family="DengXian,DengXian_MSFontService,sans-serif" font-weight="700" font-size="24" transform="translate(418.9 359)">堆<tspan font-size="24" x="-16.7533" y="29">Heap</tspan></text><path d="M569.5 217.334C569.5 209.694 575.694 203.5 583.334 203.5L700.666 203.5C708.307 203.5 714.5 209.694 714.5 217.334L714.5 272.666C714.5 280.306 708.307 286.5 700.666 286.5L583.334 286.5C575.694 286.5 569.5 280.306 569.5 272.666Z" stroke="#ED7D31" stroke-width="0.666667" stroke-miterlimit="8" fill="url(#fill4)" fill-rule="evenodd"/><text font-family="DengXian,DengXian_MSFontService,sans-serif" font-weight="700" font-size="24" transform="translate(593.379 238)">虚拟机栈<tspan font-size="24" x="-3.16663" y="29">VM Stack</tspan></text><path d="M730.5 217.334C730.5 209.694 736.694 203.5 744.334 203.5L908.667 203.5C916.307 203.5 922.5 209.694 922.5 217.334L922.5 272.667C922.5 280.307 916.307 286.5 908.667 286.5L744.334 286.5C736.694 286.5 730.5 280.307 730.5 272.667Z" stroke="#ED7D31" stroke-width="0.666667" stroke-miterlimit="8" fill="url(#fill5)" fill-rule="evenodd"/><text font-family="DengXian,DengXian_MSFontService,sans-serif" font-weight="700" font-size="24" transform="translate(766.207 223)">本地方法栈<tspan font-size="24" x="-22" y="29">Native Method </tspan><tspan font-size="24" x="30.92" y="58">Stack</tspan></text><path d="M573.5 338.334C573.5 330.694 579.694 324.5 587.334 324.5L902.666 324.5C910.307 324.5 916.5 330.694 916.5 338.334L916.5 393.666C916.5 401.306 910.307 407.5 902.666 407.5L587.334 407.5C579.694 407.5 573.5 401.306 573.5 393.666Z" stroke="#ED7D31" stroke-width="0.666667" stroke-miterlimit="8" fill="url(#fill6)" fill-rule="evenodd"/><text font-family="DengXian,DengXian_MSFontService,sans-serif" font-weight="700" font-size="24" transform="translate(684.417 359)">程序计数器<tspan font-size="24" x="-82.2533" y="29">Program Counter Register</tspan></text><path d="M330.5 544.5C330.5 537.32 336.32 531.5 343.5 531.5L538.5 531.5C545.68 531.5 551.5 537.32 551.5 544.5L551.5 596.5C551.5 603.68 545.68 609.5 538.5 609.5L343.5 609.5C336.32 609.5 330.5 603.68 330.5 596.5Z" stroke="#A5A5A5" stroke-width="0.666667" stroke-miterlimit="8" fill="url(#fill7)" fill-rule="evenodd"/><text font-family="DengXian,DengXian_MSFontService,sans-serif" font-weight="700" font-size="24" transform="translate(392.828 578)">执行引擎</text><path d="M630.5 544.5C630.5 537.32 636.32 531.5 643.5 531.5L837.5 531.5C844.68 531.5 850.5 537.32 850.5 544.5L850.5 596.5C850.5 603.68 844.68 609.5 837.5 609.5L643.5 609.5C636.32 609.5 630.5 603.68 630.5 596.5Z" stroke="#A5A5A5" stroke-width="0.666667" stroke-miterlimit="8" fill="url(#fill8)" fill-rule="evenodd"/><text font-family="DengXian,DengXian_MSFontService,sans-serif" font-weight="700" font-size="24" transform="translate(691.862 578)">执行引擎</text><path d="M4-7.46231e-06 4.00007 36.2758-3.99993 36.2758-4 7.46231e-06ZM12.0001 32.2758 0.000104987 56.2758-11.9999 32.2758Z" transform="matrix(1 0 0 -1 401 516.276)"/><path d="M455 460 455 502.345 447 502.345 447 460ZM463 498.345 451 522.345 439 498.345Z"/><path d="M4-7.46231e-06 4.00007 36.2758-3.99993 36.2758-4 7.46231e-06ZM12.0001 32.2758 0.000104987 56.2758-11.9999 32.2758Z" transform="matrix(1 0 0 -1 713 516.276)"/><path d="M767 460 767 502.345 759 502.345 759 460ZM775 498.345 763 522.345 751 498.345Z"/><path d="M5.36025e-06-4 58.3448-3.99992 58.3448 4.00008-5.36025e-06 4ZM54.3448-11.9999 78.3448 0.000104987 54.3448 12.0001Z" transform="matrix(1 0 0 -1 551 570)"/><path d="M5.36025e-06-4 58.3448-3.99992 58.3448 4.00008-5.36025e-06 4ZM54.3448-11.9999 78.3448 0.000104987 54.3448 12.0001Z" transform="matrix(1 0 0 -1 850 570)"/><text font-family="DengXian,DengXian_MSFontService,sans-serif" font-weight="700" font-size="24" transform="translate(951.669 578)">本地方法库</text><path d="M62.5001 201.334C62.5001 193.694 68.6936 187.5 76.3337 187.5L225.666 187.5C233.307 187.5 239.5 193.694 239.5 201.334L239.5 256.666C239.5 264.307 233.307 270.5 225.666 270.5L76.3337 270.5C68.6936 270.5 62.5001 264.307 62.5001 256.666Z" stroke="#FFC000" stroke-width="0.666667" stroke-miterlimit="8" fill="url(#fill9)" fill-rule="evenodd"/><text font-family="DengXian,DengXian_MSFontService,sans-serif" font-weight="400" font-size="24" transform="translate(90.3448 221)">由所有线程<tspan font-size="24" x="-12" y="29">共享的数据区</tspan></text><path d="M62.5001 342.167C62.5001 334.619 68.619 328.5 76.167 328.5L225.833 328.5C233.381 328.5 239.5 334.619 239.5 342.167L239.5 396.833C239.5 404.381 233.381 410.5 225.833 410.5L76.167 410.5C68.619 410.5 62.5001 404.381 62.5001 396.833Z" stroke="#ED7D31" stroke-width="0.666667" stroke-miterlimit="8" fill="url(#fill10)" fill-rule="evenodd"/><text font-family="DengXian,DengXian_MSFontService,sans-serif" font-weight="400" font-size="24" transform="translate(102.345 362)">线程隔离<tspan font-size="24" x="0" y="29">的数据区</tspan></text></g></svg>