<svg width="1027" height="268" xmlns="http://www.w3.org/2000/svg" xmlns:xlink="http://www.w3.org/1999/xlink" overflow="hidden"><defs><filter id="fx0" x="-10%" y="-10%" width="120%" height="120%" filterUnits="userSpaceOnUse" primitiveUnits="userSpaceOnUse"><feComponentTransfer color-interpolation-filters="sRGB"><feFuncR type="discrete" tableValues="0 0"/><feFuncG type="discrete" tableValues="0 0"/><feFuncB type="discrete" tableValues="0 0"/><feFuncA type="linear" slope="0.4" intercept="0"/></feComponentTransfer><feGaussianBlur stdDeviation="0.572011 0.572011"/></filter><filter id="fx1" x="-10%" y="-10%" width="120%" height="120%" filterUnits="userSpaceOnUse" primitiveUnits="userSpaceOnUse"><feComponentTransfer color-interpolation-filters="sRGB"><feFuncR type="discrete" tableValues="0 0"/><feFuncG type="discrete" tableValues="0 0"/><feFuncB type="discrete" tableValues="0 0"/><feFuncA type="linear" slope="0.4" intercept="0"/></feComponentTransfer><feGaussianBlur stdDeviation="0.527946 0.527946"/></filter><filter id="fx2" x="-10%" y="-10%" width="120%" height="120%" filterUnits="userSpaceOnUse" primitiveUnits="userSpaceOnUse"><feComponentTransfer color-interpolation-filters="sRGB"><feFuncR type="discrete" tableValues="0 0"/><feFuncG type="discrete" tableValues="0 0"/><feFuncB type="discrete" tableValues="0 0"/><feFuncA type="linear" slope="0.4" intercept="0"/></feComponentTransfer><feGaussianBlur stdDeviation="0.527946 0.527946"/></filter><filter id="fx3" x="-10%" y="-10%" width="120%" height="120%" filterUnits="userSpaceOnUse" primitiveUnits="userSpaceOnUse"><feComponentTransfer color-interpolation-filters="sRGB"><feFuncR type="discrete" tableValues="0 0"/><feFuncG type="discrete" tableValues="0 0"/><feFuncB type="discrete" tableValues="0 0"/><feFuncA type="linear" slope="0.4" intercept="0"/></feComponentTransfer><feGaussianBlur stdDeviation="0.572011 0.572011"/></filter><filter id="fx4" x="-10%" y="-10%" width="120%" height="120%" filterUnits="userSpaceOnUse" primitiveUnits="userSpaceOnUse"><feComponentTransfer color-interpolation-filters="sRGB"><feFuncR type="discrete" tableValues="0 0"/><feFuncG type="discrete" tableValues="0 0"/><feFuncB type="discrete" tableValues="0 0"/><feFuncA type="linear" slope="0.4" intercept="0"/></feComponentTransfer><feGaussianBlur stdDeviation="0.572011 0.572011"/></filter><filter id="fx5" x="-10%" y="-10%" width="120%" height="120%" filterUnits="userSpaceOnUse" primitiveUnits="userSpaceOnUse"><feComponentTransfer color-interpolation-filters="sRGB"><feFuncR type="discrete" tableValues="0 0"/><feFuncG type="discrete" tableValues="0 0"/><feFuncB type="discrete" tableValues="0 0"/><feFuncA type="linear" slope="0.4" intercept="0"/></feComponentTransfer><feGaussianBlur stdDeviation="0.572011 0.572011"/></filter><filter id="fx6" x="-10%" y="-10%" width="120%" height="120%" filterUnits="userSpaceOnUse" primitiveUnits="userSpaceOnUse"><feComponentTransfer color-interpolation-filters="sRGB"><feFuncR type="discrete" tableValues="0 0"/><feFuncG type="discrete" tableValues="0 0"/><feFuncB type="discrete" tableValues="0 0"/><feFuncA type="linear" slope="0.4" intercept="0"/></feComponentTransfer><feGaussianBlur stdDeviation="0.572011 0.572011"/></filter><filter id="fx7" x="-10%" y="-10%" width="120%" height="120%" filterUnits="userSpaceOnUse" primitiveUnits="userSpaceOnUse"><feComponentTransfer color-interpolation-filters="sRGB"><feFuncR type="discrete" tableValues="0 0"/><feFuncG type="discrete" tableValues="0 0"/><feFuncB type="discrete" tableValues="0 0"/><feFuncA type="linear" slope="0.4" intercept="0"/></feComponentTransfer><feGaussianBlur stdDeviation="0.572011 0.572011"/></filter><filter id="fx8" x="-10%" y="-10%" width="120%" height="120%" filterUnits="userSpaceOnUse" primitiveUnits="userSpaceOnUse"><feComponentTransfer color-interpolation-filters="sRGB"><feFuncR type="discrete" tableValues="0 0"/><feFuncG type="discrete" tableValues="0 0"/><feFuncB type="discrete" tableValues="0 0"/><feFuncA type="linear" slope="0.4" intercept="0"/></feComponentTransfer><feGaussianBlur stdDeviation="0.527946 0.527946"/></filter><clipPath id="clip9"><rect x="87" y="168" width="1027" height="268"/></clipPath><clipPath id="clip10"><rect x="16" y="17" width="41" height="22"/></clipPath><clipPath id="clip11"><rect x="0" y="0" width="74" height="56"/></clipPath><clipPath id="clip12"><rect x="15" y="12" width="42" height="21"/></clipPath><clipPath id="clip13"><rect x="0" y="0" width="75" height="51"/></clipPath><clipPath id="clip14"><rect x="15" y="12" width="66" height="22"/></clipPath><clipPath id="clip15"><rect x="0" y="0" width="96" height="51"/></clipPath><clipPath id="clip16"><rect x="18" y="15" width="92" height="24"/></clipPath><clipPath id="clip17"><rect x="0" y="0" width="127" height="56"/></clipPath><clipPath id="clip18"><rect x="19" y="16" width="170" height="24"/></clipPath><clipPath id="clip19"><rect x="0" y="0" width="206" height="57"/></clipPath><clipPath id="clip20"><rect x="17" y="15" width="119" height="19"/></clipPath><clipPath id="clip21"><rect x="0" y="0" width="153" height="57"/></clipPath><clipPath id="clip22"><rect x="18" y="15" width="130" height="24"/></clipPath><clipPath id="clip23"><rect x="0" y="0" width="166" height="57"/></clipPath><clipPath id="clip24"><rect x="17" y="17" width="93" height="22"/></clipPath><clipPath id="clip25"><rect x="0" y="0" width="127" height="57"/></clipPath><clipPath id="clip26"><rect x="16" y="26" width="15" height="4"/></clipPath><clipPath id="clip27"><rect x="0" y="0" width="47" height="51"/></clipPath></defs><g clip-path="url(#clip9)" transform="translate(-87 -168)"><path d="M402.5 179C402.5 174.306 406.306 170.5 411 170.5L545 170.5C549.694 170.5 553.5 174.306 553.5 179L553.5 213C553.5 217.694 549.694 221.5 545 221.5L411 221.5C406.306 221.5 402.5 217.694 402.5 213Z" stroke="#4BACC6" stroke-width="2.66667" stroke-linejoin="round" stroke-miterlimit="10" fill="#FFFFFF" fill-rule="evenodd"/><g clip-path="url(#clip10)" filter="url(#fx0)" transform="translate(441 172)"><g clip-path="url(#clip11)"><path d="M12.6211 0 10.582 0 10.2773-9.55078 10.1484-13.2188 9.43359-11.0859 7.17188-4.99219 5.73047-4.99219 3.57422-10.8516 2.85938-13.2188 2.8125-9.38672 2.54297 0 0.574219 0 1.32422-15.3164 3.79688-15.3164 5.85938-9.55078 6.52734-7.60547 7.17188-9.55078 9.33984-15.3164 11.8828-15.3164ZM22.6003 0 22.5534-1.58203C21.9128-0.949219 21.2624-0.492187 20.6022-0.210938 19.9421 0.0703125 19.2487 0.210937 18.5221 0.210938 17.8503 0.210937 17.276 0.125 16.7995-0.046875 16.3229-0.21875 15.9303-0.455078 15.6217-0.755859 15.3132-1.05664 15.0866-1.41016 14.9421-1.81641 14.7975-2.22266 14.7253-2.66406 14.7253-3.14062 14.7253-4.32031 15.1647-5.24414 16.0436-5.91211 16.9225-6.58008 18.2214-6.91406 19.9401-6.91406L22.3776-6.91406 22.3776-7.94531C22.3776-8.64062 22.1549-9.19727 21.7096-9.61523 21.2643-10.0332 20.5846-10.2422 19.6706-10.2422 19.0065-10.2422 18.3522-10.168 17.7077-10.0195 17.0632-9.87109 16.3971-9.66016 15.7096-9.38672L15.7096-11.2266C15.9674-11.3203 16.2546-11.4121 16.571-11.502 16.8874-11.5918 17.2214-11.6719 17.5729-11.7422 17.9245-11.8125 18.2917-11.8691 18.6745-11.9121 19.0573-11.9551 19.444-11.9766 19.8346-11.9766 20.5456-11.9766 21.1862-11.8984 21.7565-11.7422 22.3268-11.5859 22.8092-11.3477 23.2038-11.0273 23.5983-10.707 23.901-10.3047 24.112-9.82031 24.3229-9.33594 24.4284-8.76562 24.4284-8.10938L24.4284 0ZM22.3776-5.35547 19.7878-5.35547C19.2799-5.35547 18.8424-5.30469 18.4753-5.20312 18.1081-5.10156 17.8073-4.95703 17.5729-4.76953 17.3385-4.58203 17.1647-4.35742 17.0514-4.0957 16.9382-3.83398 16.8815-3.53906 16.8815-3.21094 16.8815-2.98438 16.9167-2.76758 16.987-2.56055 17.0573-2.35352 17.1706-2.16992 17.3268-2.00977 17.4831-1.84961 17.6862-1.72266 17.9362-1.62891 18.1862-1.53516 18.4909-1.48828 18.8503-1.48828 19.319-1.48828 19.8561-1.63086 20.4616-1.91602 21.0671-2.20117 21.7057-2.65234 22.3776-3.26953ZM38.263-6.09375C38.263-5.04688 38.1165-4.13281 37.8236-3.35156 37.5306-2.57031 37.1263-1.92187 36.6107-1.40625 36.0951-0.890625 35.4857-0.503906 34.7826-0.246094 34.0794 0.0117187 33.3177 0.140625 32.4974 0.140625 32.1224 0.140625 31.7493 0.121094 31.3783 0.0820312 31.0072 0.0429688 30.6302-0.0234375 30.2474-0.117188L30.2474 4.80469 28.2083 4.80469 28.2083-11.7656 30.0247-11.7656 30.1536-9.79688C30.7396-10.6016 31.3646-11.166 32.0286-11.4902 32.6927-11.8145 33.4115-11.9766 34.1849-11.9766 34.8568-11.9766 35.4466-11.8359 35.9544-11.5547 36.4622-11.2734 36.888-10.877 37.2318-10.3652 37.5755-9.85352 37.8333-9.23633 38.0052-8.51367 38.1771-7.79102 38.263-6.98437 38.263-6.09375ZM36.1771-6C36.1771-6.61719 36.1322-7.18359 36.0423-7.69922 35.9525-8.21484 35.8099-8.65625 35.6146-9.02344 35.4193-9.39062 35.1693-9.67773 34.8646-9.88477 34.5599-10.0918 34.1966-10.1953 33.7747-10.1953 33.5169-10.1953 33.2552-10.1543 32.9896-10.0723 32.724-9.99023 32.4486-9.85352 32.1634-9.66211 31.8783-9.4707 31.5775-9.2168 31.2611-8.90039 30.9447-8.58398 30.6068-8.19141 30.2474-7.72266L30.2474-2.01562C30.6224-1.85937 31.0169-1.73633 31.431-1.64648 31.8451-1.55664 32.2513-1.51172 32.6497-1.51172 33.7513-1.51172 34.6146-1.88477 35.2396-2.63086 35.8646-3.37695 36.1771-4.5 36.1771-6Z" transform="translate(17.1243 33)"/></g></g><text font-family="Consolas,Consolas_MSFontService,sans-serif" font-weight="400" font-size="24" transform="translate(457.428 204)">Map</text><path d="M961.5 238C961.5 233.306 965.306 229.5 970 229.5L1104 229.5C1108.69 229.5 1112.5 233.306 1112.5 238L1112.5 272C1112.5 276.694 1108.69 280.5 1104 280.5L970 280.5C965.306 280.5 961.5 276.694 961.5 272Z" stroke="#4BACC6" stroke-width="2.66667" stroke-linejoin="round" stroke-miterlimit="10" fill="#FFFFFF" fill-rule="evenodd"/><g clip-path="url(#clip12)" filter="url(#fx1)" transform="translate(1000 232)"><g clip-path="url(#clip13)"><path d="M5.90625 1.19971C8.57227 0.810059 10.7427 0.16748 12.4175-0.728027 11.1392-1.30225 9.76855-1.90381 8.30566-2.53271 8.89355-3.2915 9.43701-4.05029 9.93604-4.80908L6.5625-4.80908 6.5625-6.18311 10.7974-6.18311C11.2349-6.92139 11.6348-7.65967 11.9971-8.39795L13.5146-7.76221C13.1865-7.21533 12.8618-6.68896 12.5405-6.18311L20.4258-6.18311 20.4258-4.80908 17.729-4.80908C17.189-3.30518 16.3892-2.03711 15.3296-1.00488 17.0728-0.280273 18.7646 0.440918 20.4053 1.15869L19.5029 2.67627C17.9648 1.86279 16.1533 0.974121 14.0684 0.0102539 12.2363 1.25439 9.77539 2.17041 6.68555 2.7583 6.49414 2.30713 6.23437 1.7876 5.90625 1.19971ZM0.328125-6.44971C1.29883-6.71631 2.24219-6.98633 3.1582-7.25977L3.1582-11.9458 0.574219-11.9458 0.574219-13.4224 3.1582-13.4224 3.1582-17.2573 4.67578-17.2573 4.67578-13.4224 7.03418-13.4224 7.03418-11.9458 4.67578-11.9458 4.67578-7.73145C5.3252-7.93652 5.96094-8.14502 6.58301-8.35693 6.59668-7.7417 6.63769-7.2085 6.70605-6.75732 6.00195-6.53174 5.3252-6.30957 4.67578-6.09082L4.67578 0.23584C4.67578 1.7124 4.0127 2.45752 2.68652 2.47119 2.18066 2.48486 1.53809 2.47803 0.758789 2.45068 0.704102 1.89014 0.62207 1.32275 0.512695 0.748535 1.33301 0.830566 1.91406 0.871582 2.25586 0.871582 2.85742 0.871582 3.1582 0.509277 3.1582-0.215332L3.1582-5.58838C2.22168-5.27393 1.34668-4.97314 0.533203-4.68604ZM6.62402-10.0796 14.6118-10.0796C15.48-11.2827 16.249-12.4106 16.9189-13.4634L18.457-12.6226C17.7461-11.7681 17.0249-10.9204 16.2935-10.0796L20.5693-10.0796 20.5693-8.70557 6.62402-8.70557ZM7.42383-15.063 13.2173-15.063C12.896-15.6851 12.5576-16.3003 12.2021-16.9087L13.5762-17.5444C14.0137-16.8062 14.4307-16.061 14.8271-15.3091L14.3042-15.063 20.0771-15.063 20.0771-13.689 7.42383-13.689ZM10.4385-2.98389C11.5801-2.53271 12.6978-2.08154 13.7915-1.63037 14.8647-2.49854 15.627-3.55811 16.0781-4.80908L11.6587-4.80908C11.2417-4.17334 10.835-3.56494 10.4385-2.98389ZM9.26953-12.6431 10.459-13.4429C11.1016-12.6909 11.7236-11.8979 12.3252-11.064L11.0127-10.1821C10.4932-11.0298 9.91211-11.8501 9.26953-12.6431ZM23.6712-15.3706 39.9544-15.3706 39.9544 1.89697 38.1908 1.89697 38.1908-0.0922852 25.4349-0.0922852 25.4349 1.89697 23.6712 1.89697ZM38.1908-1.63037 38.1908-13.8325 25.4349-13.8325 25.4349-1.63037Z" transform="translate(15.9438 30)"/></g></g><text font-family="Microsoft YaHei,Microsoft YaHei_MSFontService,sans-serif" font-weight="400" font-size="21" transform="translate(1015.29 262)">接口</text><path d="M961.5 311C961.5 306.306 965.306 302.5 970 302.5L1104 302.5C1108.69 302.5 1112.5 306.306 1112.5 311L1112.5 345C1112.5 349.694 1108.69 353.5 1104 353.5L970 353.5C965.306 353.5 961.5 349.694 961.5 345Z" stroke="#C0504D" stroke-width="2.66667" stroke-linejoin="round" stroke-miterlimit="10" fill="#FFFFFF" fill-rule="evenodd"/><g clip-path="url(#clip14)" filter="url(#fx2)" transform="translate(989 305)"><g clip-path="url(#clip15)"><path d="M0.369141 1.30225C5.41406 0.358887 8.66113-1.13818 10.1104-3.18896L0.697266-3.18896 0.697266-4.70654 10.8691-4.70654C11.334-6.12842 11.5459-8.60986 11.5049-12.1509L13.2275-12.1509C13.2275-8.63721 13.0361-6.15576 12.6533-4.70654L20.4258-4.70654 20.4258-3.18896 12.0791-3.18896C11.9697-2.97021 11.8398-2.73779 11.6895-2.4917 14.6152-1.26123 17.4795 0.0102539 20.2822 1.32275L19.3799 2.88135C16.4541 1.39111 13.5625 0.00341794 10.7051-1.28174 8.8457 0.536621 5.72852 1.93799 1.35352 2.92236 1.03906 2.3208 0.710937 1.78076 0.369141 1.30225ZM1.08691-14.5093 10.4795-14.5093C10.1377-15.1245 9.67969-15.8423 9.10547-16.6626L10.6025-17.5034C11.0537-16.9019 11.6006-16.1089 12.2432-15.1245L11.1152-14.5093 19.8926-14.5093 19.8926-10.8384 18.252-10.8384 18.252-12.9917 2.72754-12.9917 2.72754-10.8384 1.08691-10.8384ZM3.60938-8.97217C5.18164-8.26123 6.6582-7.51611 8.03906-6.73682L7.15723-5.32178C5.79004-6.15576 4.34766-6.93506 2.83008-7.65967ZM5.45508-12.1099C7.04102-11.3442 8.4834-10.5718 9.78223-9.79248L8.85938-8.39795C7.58789-9.21826 6.18652-10.0522 4.65527-10.8999ZM34.1302-13.5864 35.7298-13.5864 35.7298-10.1411C35.7298-8.38428 35.5794-6.83935 35.2786-5.50635L36.6322-5.50635 36.6322-0.338379C36.6322 0.38623 37.0286 0.748535 37.8216 0.748535L38.806 0.748535C39.6263 0.748535 40.0775 0.379395 40.1595-0.358887 40.2415-0.987793 40.3099-1.8833 40.3646-3.04541 40.8294-2.854 41.39-2.64209 42.0462-2.40967 41.9369-1.20654 41.8275-0.304199 41.7181 0.297363 41.513 1.55518 40.6175 2.18408 39.0316 2.18408L37.514 2.18408C35.887 2.18408 35.0736 1.41162 35.0736-0.133301L35.0736-4.67578C34.7933-3.70508 34.4242-2.86084 33.9661-2.14307 32.804-0.27002 30.8831 1.35693 28.2035 2.73779 27.848 2.23193 27.4788 1.78076 27.096 1.38428 29.762 0.0991211 31.6146-1.39111 32.6536-3.08643 33.638-4.61768 34.1302-6.92822 34.1302-10.0181ZM29.8236-16.519 40.3031-16.519 40.3031-4.21436 38.7035-4.21436 38.7035-15.0015 31.4232-15.0015 31.4232-3.92725 29.8236-3.92725ZM21.5999-1.26123C22.5843-1.52783 23.6165-1.81494 24.6966-2.12256L24.6966-8.09033 21.9896-8.09033 21.9896-9.56689 24.6966-9.56689 24.6966-14.3247 21.8255-14.3247 21.8255-15.8013 29.2083-15.8013 29.2083-14.3247 26.2962-14.3247 26.2962-9.56689 28.9212-9.56689 28.9212-8.09033 26.2962-8.09033 26.2962-2.59424C27.2669-2.88818 28.2718-3.1958 29.3109-3.51709 29.3382-2.99756 29.3861-2.48486 29.4544-1.979 27.1029-1.25439 24.6761-0.488769 22.1742 0.317871ZM63.4616 1.1792C63.1881 1.49365 62.8258 2.03369 62.3747 2.79932 57.9313 1.93799 54.862 0.0375975 53.1667-2.90186 51.9499 0.119629 48.8874 2.06787 43.9792 2.94287 43.7331 2.47803 43.4391 1.97217 43.0973 1.42529 47.7184 0.796387 50.5758-0.82373 51.6696-3.43506L43.569-3.43506 43.569-4.87061 52.1003-4.87061C52.2096-5.32178 52.2985-5.86182 52.3669-6.49072L54.0075-6.49072C53.9118-5.87549 53.8161-5.33545 53.7204-4.87061L62.7643-4.87061 62.7643-3.43506 54.5407-3.43506C56.359-0.796387 59.3327 0.741699 63.4616 1.1792ZM43.7331-12.2739 52.4284-12.2739 52.4284-17.4009 53.987-17.4009 53.987-12.2739 62.6003-12.2739 62.6003-10.8999 53.987-10.8999 53.987-9.68994 54.5612-10.4692C58.2799-9.02002 61.1305-7.85791 63.113-6.98291L62.3952-5.6499C60.0846-6.83935 57.2819-8.06982 53.987-9.34131L53.987-7.2085 52.4284-7.2085 52.4284-10.6333C49.9948-8.33643 47.2331-6.6958 44.1432-5.71143 43.8561-6.13525 43.5212-6.58643 43.1383-7.06494 46.2555-7.93994 48.8737-9.21826 50.9928-10.8999L43.7331-10.8999ZM60.8776-15.6987C60.0299-14.9878 58.7653-14.0103 57.0837-12.7661L56.0173-13.853C57.111-14.6323 58.3415-15.6167 59.7087-16.8062ZM45.6198-15.7192 46.6247-16.8062C48.0876-15.7671 49.2907-14.8306 50.2341-13.9966L49.1266-12.7866C48.279-13.6343 47.11-14.6118 45.6198-15.7192Z" transform="translate(16.277 30)"/></g></g><text font-family="Microsoft YaHei,Microsoft YaHei_MSFontService,sans-serif" font-weight="400" font-size="21" transform="translate(1004.62 335)">实现类</text><path d="M478.787 221.848 478.162 224.16C478.117 224.326 478.041 224.481 477.938 224.617L476.188 226.93C476.125 227.013 476.052 227.089 475.972 227.155L473.159 229.467C473.102 229.515 473.04 229.557 472.976 229.594L469.164 231.782 464.294 233.967 458.584 236.064 452.138 238.026 445.019 239.854 437.286 241.552 429.053 243.062 420.324 244.381 411.227 245.511 392.172 247.079 372.538 247.645 352.976 248.208 334.047 249.766 325.039 250.886 316.387 252.193 308.24 253.687 300.598 255.365 293.581 257.167 287.263 259.088 281.697 261.069 277.058 263.211 273.351 265.344 273.696 265.06 272.423 266.531 270.406 264.787 271.679 263.315C271.777 263.202 271.894 263.106 272.024 263.031L275.942 260.789 280.803 258.556 286.487 256.537 292.919 254.584 300.027 252.76 307.76 251.064 315.988 249.557 324.711 248.239 333.828 247.109 352.899 245.542 372.462 244.98 391.953 244.421 410.898 242.864 419.926 241.744 428.572 240.439 436.714 238.948 444.356 237.271 451.362 235.474 457.666 233.561 463.205 231.533 467.836 229.469 471.649 227.281 471.466 227.408 474.278 225.095 474.062 225.32 475.812 223.008 475.588 223.465 476.213 221.152ZM275.435 266.928 267.5 271.056 268.959 262.231Z" fill="#FF0000"/><path d="M0.347879-1.28715 2.66038-0.662151C2.83131-0.615954 2.99132-0.536176 3.13109-0.42747L5.38109 1.32253C5.46847 1.39049 5.54701 1.46903 5.61497 1.55641L7.80247 4.36891C7.8426 4.4205 7.87897 4.47513 7.9111 4.53204L10.0986 8.40704 12.2796 13.268 14.3172 18.9239 16.2757 25.3623 18.0448 32.557 19.6795 40.2868 21.1865 48.5097 22.5059 57.2383 23.5743 66.3447 25.1413 85.3907 25.7078 105.087 26.2703 124.712 27.7667 143.645 28.8857 152.648 30.1934 161.301 31.6257 169.457 33.242 177.099 35.0422 184.171 36.9042 190.499 38.8797 195.986 40.9671 200.643 43.0986 204.407 42.8084 204.053 44.1842 205.24 42.4423 207.259 41.0666 206.072C40.9501 205.972 40.852 205.852 40.7764 205.718L38.5329 201.732 36.3703 196.889 34.3458 191.251 32.4578 184.829 30.633 177.651 28.9993 169.918 27.5566 161.699 26.2393 152.977 25.1083 143.855 23.6047 124.788 23.0422 105.163 22.4837 85.6093 20.9257 66.6553 19.8691 57.6367 18.5635 48.9903 17.0705 40.8382 15.4552 33.193 13.7243 26.1377 11.8078 19.8261 9.84541 14.357 7.7764 9.71796 5.5889 5.84296 5.69753 6.00609 3.51003 3.19359 3.74391 3.42747 1.49391 1.67747 1.96462 1.91215-0.347879 1.28715ZM44.6263 202.243 48.6668 210.222 39.8588 208.667Z" fill="#FF0000" transform="matrix(1.83697e-16 1 1 -1.83697e-16 477.5 221.5)"/><path d="M276.599 323.679 276.287 325.991C276.274 326.088 276.25 326.182 276.216 326.274L275.341 328.649C275.305 328.747 275.258 328.84 275.2 328.927L273.7 331.177 271.663 333.558C271.622 333.606 271.577 333.651 271.529 333.693L269.092 335.818 266.118 337.958 262.717 340.017 258.999 341.88 250.699 345.118 241.507 347.66 231.614 349.254 221.415 349.831 211.352 350.394 201.739 351.942 192.82 354.41 184.762 357.555 181.249 359.318 178.102 361.261 175.305 363.271 172.967 365.318 173.194 365.061 171.144 368.085 168.937 366.588 170.987 363.564C171.051 363.469 171.128 363.383 171.214 363.308L173.751 361.104 176.704 358.99 180.057 356.933 183.794 355.07 192.111 351.84 201.317 349.309 211.203 347.731 221.266 347.169 231.192 346.621 240.798 345.09 249.732 342.633 257.807 339.495 261.339 337.734 264.563 335.792 267.339 333.808 269.777 331.683 269.643 331.818 271.481 329.698 272.981 327.448 272.839 327.727 273.714 325.352 273.644 325.634 273.957 323.322ZM174.246 367.628 167.5 373.5 166.85 364.58Z" fill="#FF0000"/><path d="M0.20795-1.31702 2.58295-0.942017C2.69902-0.92369 2.81222-0.890078 2.91949-0.842091L5.29449 0.220409C5.37962 0.258494 5.46062 0.30547 5.53596 0.360445L7.84846 2.04795C7.9042 2.08862 7.95652 2.1334 8.00531 2.18219L10.3178 4.49469 12.615 7.43141 14.8158 10.9146 16.8682 14.8181 18.7824 19.1493 22.0741 28.7559 24.6104 39.5071 26.2574 50.9989 26.8318 62.8737 27.3943 74.6237 29.0073 85.8104 31.4854 96.3196 34.6999 105.758 36.5294 109.83 38.4932 113.568 40.5127 116.867 42.6236 119.63 42.3842 119.387 45.6525 121.945 44.0091 124.045 40.7408 121.488C40.6509 121.417 40.5705 121.336 40.5014 121.245L38.2373 118.258 36.1318 114.807 34.0956 110.92 32.1751 106.617 28.8896 96.9304 26.3677 86.1896 24.7307 74.7513 24.1682 63.0013 23.6176 51.3761 22.0146 40.1179 19.5509 29.6191 16.3426 20.2257 14.5068 16.0569 12.5592 12.3354 10.51 9.06859 8.43219 6.38031 6.11969 4.06781 6.27654 4.20205 3.96404 2.51455 4.20551 2.65459 1.83051 1.59209 2.16705 1.69202-0.20795 1.31702ZM45.2887 118.804 50.8889 125.778 41.9495 126.073Z" fill="#FF0000" transform="matrix(1.83697e-16 1 1 -1.83697e-16 687.5 320.5)"/><path d="M192.5 281C192.5 276.306 196.306 272.5 201 272.5L335 272.5C339.694 272.5 343.5 276.306 343.5 281L343.5 315C343.5 319.694 339.694 323.5 335 323.5L201 323.5C196.306 323.5 192.5 319.694 192.5 315Z" stroke="#C0504D" stroke-width="2.66667" stroke-linejoin="round" stroke-miterlimit="10" fill="#FFFFFF" fill-rule="evenodd"/><g clip-path="url(#clip16)" filter="url(#fx3)" transform="translate(204 274)"><g clip-path="url(#clip17)"><path d="M11.9062 0 9.82031 0 9.82031-7.03125 3.38672-7.03125 3.38672 0 1.30078 0 1.30078-15.3164 3.38672-15.3164 3.38672-8.83594 9.82031-8.83594 9.82031-15.3164 11.9062-15.3164ZM22.6003 0 22.5534-1.58203C21.9128-0.949219 21.2624-0.492187 20.6022-0.210938 19.9421 0.0703125 19.2487 0.210937 18.5221 0.210938 17.8503 0.210937 17.276 0.125 16.7995-0.046875 16.3229-0.21875 15.9303-0.455078 15.6217-0.755859 15.3132-1.05664 15.0866-1.41016 14.9421-1.81641 14.7975-2.22266 14.7253-2.66406 14.7253-3.14062 14.7253-4.32031 15.1647-5.24414 16.0436-5.91211 16.9225-6.58008 18.2214-6.91406 19.9401-6.91406L22.3776-6.91406 22.3776-7.94531C22.3776-8.64062 22.1549-9.19727 21.7096-9.61523 21.2643-10.0332 20.5846-10.2422 19.6706-10.2422 19.0065-10.2422 18.3522-10.168 17.7077-10.0195 17.0632-9.87109 16.3971-9.66016 15.7096-9.38672L15.7096-11.2266C15.9674-11.3203 16.2546-11.4121 16.571-11.502 16.8874-11.5918 17.2214-11.6719 17.5729-11.7422 17.9245-11.8125 18.2917-11.8691 18.6745-11.9121 19.0573-11.9551 19.444-11.9766 19.8346-11.9766 20.5456-11.9766 21.1862-11.8984 21.7565-11.7422 22.3268-11.5859 22.8092-11.3477 23.2038-11.0273 23.5983-10.707 23.901-10.3047 24.112-9.82031 24.3229-9.33594 24.4284-8.76562 24.4284-8.10938L24.4284 0ZM22.3776-5.35547 19.7878-5.35547C19.2799-5.35547 18.8424-5.30469 18.4753-5.20312 18.1081-5.10156 17.8073-4.95703 17.5729-4.76953 17.3385-4.58203 17.1647-4.35742 17.0514-4.0957 16.9382-3.83398 16.8815-3.53906 16.8815-3.21094 16.8815-2.98438 16.9167-2.76758 16.987-2.56055 17.0573-2.35352 17.1706-2.16992 17.3268-2.00977 17.4831-1.84961 17.6862-1.72266 17.9362-1.62891 18.1862-1.53516 18.4909-1.48828 18.8503-1.48828 19.319-1.48828 19.8561-1.63086 20.4616-1.91602 21.0671-2.20117 21.7057-2.65234 22.3776-3.26953ZM37.5247-3.21094C37.5247-2.79688 37.4544-2.42578 37.3138-2.09766 37.1732-1.76953 36.9818-1.47852 36.7396-1.22461 36.4974-0.970703 36.2161-0.753906 35.8958-0.574219 35.5755-0.394531 35.2337-0.246094 34.8704-0.128906 34.5072-0.0117188 34.1341 0.0742188 33.7513 0.128906 33.3685 0.183594 32.9935 0.210937 32.6263 0.210938 31.8294 0.210937 31.097 0.175781 30.429 0.105469 29.7611 0.0351562 29.1068-0.078125 28.4661-0.234375L28.4661-2.10938C29.1536-1.91406 29.8372-1.76562 30.5169-1.66406 31.1966-1.5625 31.8724-1.51172 32.5443-1.51172 33.5208-1.51172 34.2435-1.64453 34.7122-1.91016 35.181-2.17578 35.4154-2.55469 35.4154-3.04688 35.4154-3.25781 35.3783-3.44727 35.304-3.61523 35.2298-3.7832 35.0951-3.94336 34.8997-4.0957 34.7044-4.24805 34.4017-4.40625 33.9915-4.57031 33.5814-4.73438 33.0208-4.92188 32.3099-5.13281 31.7786-5.28906 31.2884-5.4668 30.8392-5.66602 30.39-5.86523 30.0013-6.10156 29.6732-6.375 29.3451-6.64844 29.0872-6.96875 28.8997-7.33594 28.7122-7.70312 28.6185-8.13672 28.6185-8.63672 28.6185-8.96484 28.6947-9.32422 28.847-9.71484 28.9993-10.1055 29.2591-10.4688 29.6263-10.8047 29.9935-11.1406 30.4896-11.4199 31.1146-11.6426 31.7396-11.8652 32.5208-11.9766 33.4583-11.9766 33.9193-11.9766 34.431-11.9512 34.9935-11.9004 35.556-11.8496 36.1419-11.7617 36.7513-11.6367L36.7513-9.82031C36.1107-9.97656 35.5033-10.0918 34.929-10.166 34.3548-10.2402 33.8568-10.2773 33.4349-10.2773 32.9271-10.2773 32.4994-10.2383 32.1517-10.1602 31.804-10.082 31.5228-9.97461 31.3079-9.83789 31.0931-9.70117 30.9388-9.54102 30.8451-9.35742 30.7513-9.17383 30.7044-8.97656 30.7044-8.76562 30.7044-8.55469 30.7454-8.36328 30.8275-8.19141 30.9095-8.01953 31.0618-7.85352 31.2845-7.69336 31.5072-7.5332 31.8177-7.37305 32.2161-7.21289 32.6146-7.05273 33.1341-6.87891 33.7747-6.69141 34.4701-6.48828 35.056-6.27539 35.5326-6.05273 36.0091-5.83008 36.3958-5.58203 36.6927-5.30859 36.9896-5.03516 37.2025-4.72656 37.3314-4.38281 37.4603-4.03906 37.5247-3.64844 37.5247-3.21094ZM50.832 0 48.793 0 48.793-7.51172C48.793-8.41797 48.623-9.0957 48.2832-9.54492 47.9434-9.99414 47.457-10.2188 46.8242-10.2188 46.5508-10.2188 46.2949-10.1816 46.0566-10.1074 45.8184-10.0332 45.5703-9.9043 45.3125-9.7207 45.0547-9.53711 44.7734-9.28906 44.4688-8.97656 44.1641-8.66406 43.8125-8.27344 43.4141-7.80469L43.4141 0 41.375 0 41.375-16.5586 43.4141-16.5586 43.4141-11.7656 43.3438-9.91406C43.6641-10.2969 43.9785-10.6191 44.2871-10.8809 44.5957-11.1426 44.9043-11.3555 45.2129-11.5195 45.5215-11.6836 45.8359-11.8008 46.1562-11.8711 46.4766-11.9414 46.8086-11.9766 47.1523-11.9766 48.3242-11.9766 49.2305-11.6191 49.8711-10.9043 50.5117-10.1895 50.832-9.11328 50.832-7.67578ZM65.2878 0 63.2487 0 62.944-9.55078 62.8151-13.2188 62.1003-11.0859 59.8385-4.99219 58.3971-4.99219 56.2409-10.8516 55.526-13.2188 55.4792-9.38672 55.2096 0 53.2409 0 53.9909-15.3164 56.4635-15.3164 58.526-9.55078 59.194-7.60547 59.8385-9.55078 62.0065-15.3164 64.5495-15.3164ZM75.2669 0 75.2201-1.58203C74.5794-0.949219 73.929-0.492187 73.2689-0.210938 72.6087 0.0703125 71.9154 0.210937 71.1888 0.210938 70.5169 0.210937 69.9427 0.125 69.4661-0.046875 68.9896-0.21875 68.597-0.455078 68.2884-0.755859 67.9798-1.05664 67.7533-1.41016 67.6087-1.81641 67.4642-2.22266 67.3919-2.66406 67.3919-3.14062 67.3919-4.32031 67.8314-5.24414 68.7103-5.91211 69.5892-6.58008 70.888-6.91406 72.6068-6.91406L75.0443-6.91406 75.0443-7.94531C75.0443-8.64062 74.8216-9.19727 74.3763-9.61523 73.931-10.0332 73.2513-10.2422 72.3372-10.2422 71.6732-10.2422 71.0189-10.168 70.3744-10.0195 69.7298-9.87109 69.0638-9.66016 68.3763-9.38672L68.3763-11.2266C68.6341-11.3203 68.9212-11.4121 69.2376-11.502 69.554-11.5918 69.888-11.6719 70.2396-11.7422 70.5911-11.8125 70.9583-11.8691 71.3411-11.9121 71.724-11.9551 72.1107-11.9766 72.5013-11.9766 73.2122-11.9766 73.8529-11.8984 74.4232-11.7422 74.9935-11.5859 75.4759-11.3477 75.8704-11.0273 76.265-10.707 76.5677-10.3047 76.7786-9.82031 76.9896-9.33594 77.0951-8.76562 77.0951-8.10938L77.0951 0ZM75.0443-5.35547 72.4544-5.35547C71.9466-5.35547 71.5091-5.30469 71.1419-5.20312 70.7747-5.10156 70.474-4.95703 70.2396-4.76953 70.0052-4.58203 69.8314-4.35742 69.7181-4.0957 69.6048-3.83398 69.5482-3.53906 69.5482-3.21094 69.5482-2.98438 69.5833-2.76758 69.6536-2.56055 69.724-2.35352 69.8372-2.16992 69.9935-2.00977 70.1497-1.84961 70.3529-1.72266 70.6029-1.62891 70.8529-1.53516 71.1576-1.48828 71.5169-1.48828 71.9857-1.48828 72.5228-1.63086 73.1283-1.91602 73.7337-2.20117 74.3724-2.65234 75.0443-3.26953ZM90.9297-6.09375C90.9297-5.04688 90.7832-4.13281 90.4902-3.35156 90.1973-2.57031 89.793-1.92187 89.2773-1.40625 88.7617-0.890625 88.1523-0.503906 87.4492-0.246094 86.7461 0.0117187 85.9844 0.140625 85.1641 0.140625 84.7891 0.140625 84.416 0.121094 84.0449 0.0820312 83.6738 0.0429688 83.2969-0.0234375 82.9141-0.117188L82.9141 4.80469 80.875 4.80469 80.875-11.7656 82.6914-11.7656 82.8203-9.79688C83.4062-10.6016 84.0312-11.166 84.6953-11.4902 85.3594-11.8145 86.0781-11.9766 86.8516-11.9766 87.5234-11.9766 88.1133-11.8359 88.6211-11.5547 89.1289-11.2734 89.5547-10.877 89.8984-10.3652 90.2422-9.85352 90.5-9.23633 90.6719-8.51367 90.8438-7.79102 90.9297-6.98437 90.9297-6.09375ZM88.8438-6C88.8438-6.61719 88.7988-7.18359 88.709-7.69922 88.6191-8.21484 88.4766-8.65625 88.2812-9.02344 88.0859-9.39062 87.8359-9.67773 87.5312-9.88477 87.2266-10.0918 86.8633-10.1953 86.4414-10.1953 86.1836-10.1953 85.9219-10.1543 85.6562-10.0723 85.3906-9.99023 85.1152-9.85352 84.8301-9.66211 84.5449-9.4707 84.2441-9.2168 83.9277-8.90039 83.6113-8.58398 83.2734-8.19141 82.9141-7.72266L82.9141-2.01562C83.2891-1.85937 83.6836-1.73633 84.0977-1.64648 84.5117-1.55664 84.918-1.51172 85.3164-1.51172 86.418-1.51172 87.2812-1.88477 87.9062-2.63086 88.5312-3.37695 88.8438-4.5 88.8438-6Z" transform="translate(17.6799 33)"/></g></g><text font-family="Consolas,Consolas_MSFontService,sans-serif" font-weight="400" font-size="24" transform="translate(220.983 306)">HashMap</text><path d="M89.5001 378.833C89.5001 374.231 93.231 370.5 97.8335 370.5L286.167 370.5C290.769 370.5 294.5 374.231 294.5 378.833L294.5 412.167C294.5 416.769 290.769 420.5 286.167 420.5L97.8335 420.5C93.231 420.5 89.5001 416.769 89.5001 412.167Z" stroke="#C0504D" stroke-width="2.66667" stroke-linejoin="round" stroke-miterlimit="10" fill="#FFFFFF" fill-rule="evenodd"/><g clip-path="url(#clip18)" filter="url(#fx4)" transform="translate(89 371)"><g clip-path="url(#clip19)"><path d="M11.543 0 2.73047 0 2.73047-15.3164 4.85156-15.3164 4.85156-1.78125 11.543-1.78125ZM19.0495-10.0781 15.569-10.0781 15.569-11.7656 21.112-11.7656 21.112-1.69922 24.6159-1.69922 24.6159 0 15.1823 0 15.1823-1.69922 19.0495-1.69922ZM19.7643-16.6992C19.9909-16.6992 20.2018-16.6582 20.3971-16.5762 20.5924-16.4941 20.7624-16.3789 20.9069-16.2305 21.0514-16.082 21.1647-15.9121 21.2467-15.7207 21.3288-15.5293 21.3698-15.3203 21.3698-15.0938 21.3698-14.875 21.3288-14.668 21.2467-14.4727 21.1647-14.2773 21.0514-14.1055 20.9069-13.957 20.7624-13.8086 20.5924-13.6934 20.3971-13.6113 20.2018-13.5293 19.9909-13.4883 19.7643-13.4883 19.5378-13.4883 19.3268-13.5293 19.1315-13.6113 18.9362-13.6934 18.7663-13.8086 18.6217-13.957 18.4772-14.1055 18.3639-14.2773 18.2819-14.4727 18.1999-14.668 18.1589-14.875 18.1589-15.0938 18.1589-15.3203 18.1999-15.5293 18.2819-15.7207 18.3639-15.9121 18.4772-16.082 18.6217-16.2305 18.7663-16.3789 18.9362-16.4941 19.1315-16.5762 19.3268-16.6582 19.5378-16.6992 19.7643-16.6992ZM28.2083-11.7656 30.0247-11.7656 30.1068-9.86719C30.4505-10.2734 30.7826-10.6113 31.1029-10.8809 31.4232-11.1504 31.7376-11.3672 32.0462-11.5312 32.3548-11.6953 32.6693-11.8105 32.9896-11.877 33.3099-11.9434 33.6419-11.9766 33.9857-11.9766 35.1966-11.9766 36.1126-11.6191 36.7337-10.9043 37.3548-10.1895 37.6654-9.11328 37.6654-7.67578L37.6654 0 35.6263 0 35.6263-7.51172C35.6263-8.43359 35.4544-9.11523 35.1107-9.55664 34.7669-9.99805 34.2552-10.2188 33.5755-10.2188 33.3255-10.2188 33.0814-10.1816 32.8431-10.1074 32.6048-10.0332 32.3568-9.9043 32.099-9.7207 31.8411-9.53711 31.5618-9.28906 31.2611-8.97656 30.9603-8.66406 30.6224-8.27344 30.2474-7.80469L30.2474 0 28.2083 0ZM51.957 0 49.1562 0 43.6719-6.30469 43.6719 0 41.6328 0 41.6328-16.5586 43.6719-16.5586 43.6719-6.38672 48.957-11.7656 51.6523-11.7656 46.1328-6.33984ZM64.4792-6.50391C64.4792-6.21484 64.4753-5.97266 64.4675-5.77734 64.4596-5.58203 64.4479-5.39844 64.4323-5.22656L56.1706-5.22656C56.1706-4.02344 56.5065-3.09961 57.1784-2.45508 57.8503-1.81055 58.819-1.48828 60.0846-1.48828 60.4284-1.48828 60.7721-1.50195 61.1159-1.5293 61.4596-1.55664 61.7917-1.59375 62.112-1.64062 62.4323-1.6875 62.7389-1.74023 63.0319-1.79883 63.3249-1.85742 63.5964-1.92187 63.8464-1.99219L63.8464-0.316406C63.2917-0.160156 62.6647-0.0332031 61.9655 0.0644531 61.2663 0.162109 60.5417 0.210937 59.7917 0.210938 58.7839 0.210937 57.9167 0.0742187 57.1901-0.199219 56.4635-0.472656 55.8678-0.869141 55.403-1.38867 54.9382-1.9082 54.5944-2.54492 54.3717-3.29883 54.1491-4.05273 54.0378-4.90625 54.0378-5.85938 54.0378-6.6875 54.1569-7.4707 54.3952-8.20898 54.6335-8.94727 54.9811-9.5957 55.4382-10.1543 55.8952-10.7129 56.4557-11.1562 57.1198-11.4844 57.7839-11.8125 58.5378-11.9766 59.3815-11.9766 60.2018-11.9766 60.9284-11.8477 61.5612-11.5898 62.194-11.332 62.7272-10.9668 63.1608-10.4941 63.5944-10.0215 63.9225-9.44727 64.1452-8.77148 64.3678-8.0957 64.4792-7.33984 64.4792-6.50391ZM62.3581-6.79688C62.3815-7.32031 62.3307-7.79883 62.2057-8.23242 62.0807-8.66602 61.8874-9.03906 61.6257-9.35156 61.3639-9.66406 61.0378-9.9082 60.6471-10.084 60.2565-10.2598 59.8034-10.3477 59.2878-10.3477 58.8424-10.3477 58.4362-10.2617 58.069-10.0898 57.7018-9.91797 57.3854-9.67578 57.1198-9.36328 56.8542-9.05078 56.6393-8.67578 56.4753-8.23828 56.3112-7.80078 56.2096-7.32031 56.1706-6.79688ZM67.1107-5.63672C67.1107-6.63672 67.2474-7.52539 67.5208-8.30273 67.7943-9.08008 68.1829-9.73633 68.6869-10.2715 69.1908-10.8066 69.7962-11.2129 70.5033-11.4902 71.2103-11.7676 71.9974-11.9062 72.8646-11.9062 73.2396-11.9062 73.6087-11.8828 73.972-11.8359 74.3353-11.7891 74.6927-11.7148 75.0443-11.6133L75.0443-16.5586 77.0951-16.5586 77.0951 0 75.2669 0 75.1966-2.22656C74.6263-1.39844 74.0091-0.785156 73.3451-0.386719 72.681 0.0117187 71.9622 0.210937 71.1888 0.210938 70.5169 0.210937 69.9251 0.0703125 69.4134-0.210938 68.9017-0.492187 68.4759-0.888672 68.1361-1.40039 67.7962-1.91211 67.5404-2.52734 67.3685-3.24609 67.1966-3.96484 67.1107-4.76172 67.1107-5.63672ZM69.1966-5.76562C69.1966-4.34375 69.4056-3.2832 69.8236-2.58398 70.2415-1.88477 70.8333-1.53516 71.599-1.53516 72.1146-1.53516 72.6595-1.76562 73.2337-2.22656 73.8079-2.6875 74.4115-3.37109 75.0443-4.27734L75.0443-9.73828C74.7083-9.89453 74.3372-10.0137 73.931-10.0957 73.5247-10.1777 73.1224-10.2188 72.724-10.2188 71.6146-10.2188 70.7494-9.85938 70.1283-9.14062 69.5072-8.42188 69.1966-7.29687 69.1966-5.76562ZM90.9062 0 88.8203 0 88.8203-7.03125 82.3867-7.03125 82.3867 0 80.3008 0 80.3008-15.3164 82.3867-15.3164 82.3867-8.83594 88.8203-8.83594 88.8203-15.3164 90.9062-15.3164ZM101.6 0 101.553-1.58203C100.913-0.949219 100.262-0.492187 99.6022-0.210938 98.942 0.0703125 98.2487 0.210937 97.5221 0.210938 96.8503 0.210937 96.276 0.125 95.7995-0.046875 95.3229-0.21875 94.9303-0.455078 94.6217-0.755859 94.3131-1.05664 94.0866-1.41016 93.9421-1.81641 93.7975-2.22266 93.7253-2.66406 93.7253-3.14062 93.7253-4.32031 94.1647-5.24414 95.0436-5.91211 95.9225-6.58008 97.2213-6.91406 98.9401-6.91406L101.378-6.91406 101.378-7.94531C101.378-8.64062 101.155-9.19727 100.71-9.61523 100.264-10.0332 99.5846-10.2422 98.6706-10.2422 98.0065-10.2422 97.3522-10.168 96.7077-10.0195 96.0631-9.87109 95.3971-9.66016 94.7096-9.38672L94.7096-11.2266C94.9674-11.3203 95.2545-11.4121 95.571-11.502 95.8874-11.5918 96.2213-11.6719 96.5729-11.7422 96.9245-11.8125 97.2917-11.8691 97.6745-11.9121 98.0573-11.9551 98.444-11.9766 98.8346-11.9766 99.5456-11.9766 100.186-11.8984 100.757-11.7422 101.327-11.5859 101.809-11.3477 102.204-11.0273 102.598-10.707 102.901-10.3047 103.112-9.82031 103.323-9.33594 103.428-8.76562 103.428-8.10938L103.428 0ZM101.378-5.35547 98.7878-5.35547C98.2799-5.35547 97.8424-5.30469 97.4753-5.20312 97.1081-5.10156 96.8073-4.95703 96.5729-4.76953 96.3385-4.58203 96.1647-4.35742 96.0514-4.0957 95.9381-3.83398 95.8815-3.53906 95.8815-3.21094 95.8815-2.98438 95.9167-2.76758 95.987-2.56055 96.0573-2.35352 96.1706-2.16992 96.3268-2.00977 96.4831-1.84961 96.6862-1.72266 96.9362-1.62891 97.1862-1.53516 97.4909-1.48828 97.8503-1.48828 98.319-1.48828 98.8561-1.63086 99.4616-1.91602 100.067-2.20117 100.706-2.65234 101.378-3.26953ZM116.525-3.21094C116.525-2.79688 116.454-2.42578 116.314-2.09766 116.173-1.76953 115.982-1.47852 115.74-1.22461 115.497-0.970703 115.216-0.753906 114.896-0.574219 114.576-0.394531 114.234-0.246094 113.87-0.128906 113.507-0.0117188 113.134 0.0742188 112.751 0.128906 112.368 0.183594 111.993 0.210937 111.626 0.210938 110.829 0.210937 110.097 0.175781 109.429 0.105469 108.761 0.0351562 108.107-0.078125 107.466-0.234375L107.466-2.10938C108.154-1.91406 108.837-1.76562 109.517-1.66406 110.197-1.5625 110.872-1.51172 111.544-1.51172 112.521-1.51172 113.243-1.64453 113.712-1.91016 114.181-2.17578 114.415-2.55469 114.415-3.04688 114.415-3.25781 114.378-3.44727 114.304-3.61523 114.23-3.7832 114.095-3.94336 113.9-4.0957 113.704-4.24805 113.402-4.40625 112.992-4.57031 112.581-4.73438 112.021-4.92188 111.31-5.13281 110.779-5.28906 110.288-5.4668 109.839-5.66602 109.39-5.86523 109.001-6.10156 108.673-6.375 108.345-6.64844 108.087-6.96875 107.9-7.33594 107.712-7.70312 107.618-8.13672 107.618-8.63672 107.618-8.96484 107.695-9.32422 107.847-9.71484 107.999-10.1055 108.259-10.4688 108.626-10.8047 108.993-11.1406 109.49-11.4199 110.115-11.6426 110.74-11.8652 111.521-11.9766 112.458-11.9766 112.919-11.9766 113.431-11.9512 113.993-11.9004 114.556-11.8496 115.142-11.7617 115.751-11.6367L115.751-9.82031C115.111-9.97656 114.503-10.0918 113.929-10.166 113.355-10.2402 112.857-10.2773 112.435-10.2773 111.927-10.2773 111.499-10.2383 111.152-10.1602 110.804-10.082 110.523-9.97461 110.308-9.83789 110.093-9.70117 109.939-9.54102 109.845-9.35742 109.751-9.17383 109.704-8.97656 109.704-8.76562 109.704-8.55469 109.745-8.36328 109.827-8.19141 109.91-8.01953 110.062-7.85352 110.285-7.69336 110.507-7.5332 110.818-7.37305 111.216-7.21289 111.615-7.05273 112.134-6.87891 112.775-6.69141 113.47-6.48828 114.056-6.27539 114.533-6.05273 115.009-5.83008 115.396-5.58203 115.693-5.30859 115.99-5.03516 116.202-4.72656 116.331-4.38281 116.46-4.03906 116.525-3.64844 116.525-3.21094ZM129.832 0 127.793 0 127.793-7.51172C127.793-8.41797 127.623-9.0957 127.283-9.54492 126.943-9.99414 126.457-10.2188 125.824-10.2188 125.551-10.2188 125.295-10.1816 125.057-10.1074 124.818-10.0332 124.57-9.9043 124.312-9.7207 124.055-9.53711 123.773-9.28906 123.469-8.97656 123.164-8.66406 122.812-8.27344 122.414-7.80469L122.414 0 120.375 0 120.375-16.5586 122.414-16.5586 122.414-11.7656 122.344-9.91406C122.664-10.2969 122.979-10.6191 123.287-10.8809 123.596-11.1426 123.904-11.3555 124.213-11.5195 124.521-11.6836 124.836-11.8008 125.156-11.8711 125.477-11.9414 125.809-11.9766 126.152-11.9766 127.324-11.9766 128.23-11.6191 128.871-10.9043 129.512-10.1895 129.832-9.11328 129.832-7.67578ZM144.288 0 142.249 0 141.944-9.55078 141.815-13.2188 141.1-11.0859 138.839-4.99219 137.397-4.99219 135.241-10.8516 134.526-13.2188 134.479-9.38672 134.21 0 132.241 0 132.991-15.3164 135.464-15.3164 137.526-9.55078 138.194-7.60547 138.839-9.55078 141.007-15.3164 143.549-15.3164ZM154.267 0 154.22-1.58203C153.579-0.949219 152.929-0.492187 152.269-0.210938 151.609 0.0703125 150.915 0.210937 150.189 0.210938 149.517 0.210937 148.943 0.125 148.466-0.046875 147.99-0.21875 147.597-0.455078 147.288-0.755859 146.98-1.05664 146.753-1.41016 146.609-1.81641 146.464-2.22266 146.392-2.66406 146.392-3.14062 146.392-4.32031 146.831-5.24414 147.71-5.91211 148.589-6.58008 149.888-6.91406 151.607-6.91406L154.044-6.91406 154.044-7.94531C154.044-8.64062 153.822-9.19727 153.376-9.61523 152.931-10.0332 152.251-10.2422 151.337-10.2422 150.673-10.2422 150.019-10.168 149.374-10.0195 148.73-9.87109 148.064-9.66016 147.376-9.38672L147.376-11.2266C147.634-11.3203 147.921-11.4121 148.238-11.502 148.554-11.5918 148.888-11.6719 149.24-11.7422 149.591-11.8125 149.958-11.8691 150.341-11.9121 150.724-11.9551 151.111-11.9766 151.501-11.9766 152.212-11.9766 152.853-11.8984 153.423-11.7422 153.993-11.5859 154.476-11.3477 154.87-11.0273 155.265-10.707 155.568-10.3047 155.779-9.82031 155.99-9.33594 156.095-8.76562 156.095-8.10938L156.095 0ZM154.044-5.35547 151.454-5.35547C150.947-5.35547 150.509-5.30469 150.142-5.20312 149.775-5.10156 149.474-4.95703 149.24-4.76953 149.005-4.58203 148.831-4.35742 148.718-4.0957 148.605-3.83398 148.548-3.53906 148.548-3.21094 148.548-2.98438 148.583-2.76758 148.654-2.56055 148.724-2.35352 148.837-2.16992 148.993-2.00977 149.15-1.84961 149.353-1.72266 149.603-1.62891 149.853-1.53516 150.158-1.48828 150.517-1.48828 150.986-1.48828 151.523-1.63086 152.128-1.91602 152.734-2.20117 153.372-2.65234 154.044-3.26953ZM169.93-6.09375C169.93-5.04688 169.783-4.13281 169.49-3.35156 169.197-2.57031 168.793-1.92187 168.277-1.40625 167.762-0.890625 167.152-0.503906 166.449-0.246094 165.746 0.0117187 164.984 0.140625 164.164 0.140625 163.789 0.140625 163.416 0.121094 163.045 0.0820312 162.674 0.0429688 162.297-0.0234375 161.914-0.117188L161.914 4.80469 159.875 4.80469 159.875-11.7656 161.691-11.7656 161.82-9.79688C162.406-10.6016 163.031-11.166 163.695-11.4902 164.359-11.8145 165.078-11.9766 165.852-11.9766 166.523-11.9766 167.113-11.8359 167.621-11.5547 168.129-11.2734 168.555-10.877 168.898-10.3652 169.242-9.85352 169.5-9.23633 169.672-8.51367 169.844-7.79102 169.93-6.98437 169.93-6.09375ZM167.844-6C167.844-6.61719 167.799-7.18359 167.709-7.69922 167.619-8.21484 167.477-8.65625 167.281-9.02344 167.086-9.39062 166.836-9.67773 166.531-9.88477 166.227-10.0918 165.863-10.1953 165.441-10.1953 165.184-10.1953 164.922-10.1543 164.656-10.0723 164.391-9.99023 164.115-9.85352 163.83-9.66211 163.545-9.4707 163.244-9.2168 162.928-8.90039 162.611-8.58398 162.273-8.19141 161.914-7.72266L161.914-2.01562C162.289-1.85937 162.684-1.73633 163.098-1.64648 163.512-1.55664 163.918-1.51172 164.316-1.51172 165.418-1.51172 166.281-1.88477 166.906-2.63086 167.531-3.37695 167.844-4.5 167.844-6Z" transform="translate(17.6244 34)"/></g></g><text font-family="Consolas,Consolas_MSFontService,sans-serif" font-weight="400" font-size="24" transform="translate(105.928 404)">LinkedHashMap</text><path d="M410.5 283.834C410.5 279.231 414.231 275.5 418.834 275.5L554.167 275.5C558.769 275.5 562.5 279.231 562.5 283.834L562.5 317.166C562.5 321.769 558.769 325.5 554.167 325.5L418.834 325.5C414.231 325.5 410.5 321.769 410.5 317.166Z" stroke="#C00000" stroke-width="2.66667" stroke-linejoin="round" stroke-miterlimit="10" fill="#FFFFFF" fill-rule="evenodd"/><g clip-path="url(#clip20)" filter="url(#fx5)" transform="translate(410 276)"><g clip-path="url(#clip21)"><path d="M11.9062 0 9.82031 0 9.82031-7.03125 3.38672-7.03125 3.38672 0 1.30078 0 1.30078-15.3164 3.38672-15.3164 3.38672-8.83594 9.82031-8.83594 9.82031-15.3164 11.9062-15.3164ZM22.6003 0 22.5534-1.58203C21.9128-0.949219 21.2624-0.492187 20.6022-0.210938 19.9421 0.0703125 19.2487 0.210937 18.5221 0.210938 17.8503 0.210937 17.276 0.125 16.7995-0.046875 16.3229-0.21875 15.9303-0.455078 15.6217-0.755859 15.3132-1.05664 15.0866-1.41016 14.9421-1.81641 14.7975-2.22266 14.7253-2.66406 14.7253-3.14062 14.7253-4.32031 15.1647-5.24414 16.0436-5.91211 16.9225-6.58008 18.2214-6.91406 19.9401-6.91406L22.3776-6.91406 22.3776-7.94531C22.3776-8.64062 22.1549-9.19727 21.7096-9.61523 21.2643-10.0332 20.5846-10.2422 19.6706-10.2422 19.0065-10.2422 18.3522-10.168 17.7077-10.0195 17.0632-9.87109 16.3971-9.66016 15.7096-9.38672L15.7096-11.2266C15.9674-11.3203 16.2546-11.4121 16.571-11.502 16.8874-11.5918 17.2214-11.6719 17.5729-11.7422 17.9245-11.8125 18.2917-11.8691 18.6745-11.9121 19.0573-11.9551 19.444-11.9766 19.8346-11.9766 20.5456-11.9766 21.1862-11.8984 21.7565-11.7422 22.3268-11.5859 22.8092-11.3477 23.2038-11.0273 23.5983-10.707 23.901-10.3047 24.112-9.82031 24.3229-9.33594 24.4284-8.76562 24.4284-8.10938L24.4284 0ZM22.3776-5.35547 19.7878-5.35547C19.2799-5.35547 18.8424-5.30469 18.4753-5.20312 18.1081-5.10156 17.8073-4.95703 17.5729-4.76953 17.3385-4.58203 17.1647-4.35742 17.0514-4.0957 16.9382-3.83398 16.8815-3.53906 16.8815-3.21094 16.8815-2.98438 16.9167-2.76758 16.987-2.56055 17.0573-2.35352 17.1706-2.16992 17.3268-2.00977 17.4831-1.84961 17.6862-1.72266 17.9362-1.62891 18.1862-1.53516 18.4909-1.48828 18.8503-1.48828 19.319-1.48828 19.8561-1.63086 20.4616-1.91602 21.0671-2.20117 21.7057-2.65234 22.3776-3.26953ZM37.5247-3.21094C37.5247-2.79688 37.4544-2.42578 37.3138-2.09766 37.1732-1.76953 36.9818-1.47852 36.7396-1.22461 36.4974-0.970703 36.2161-0.753906 35.8958-0.574219 35.5755-0.394531 35.2337-0.246094 34.8704-0.128906 34.5072-0.0117188 34.1341 0.0742188 33.7513 0.128906 33.3685 0.183594 32.9935 0.210937 32.6263 0.210938 31.8294 0.210937 31.097 0.175781 30.429 0.105469 29.7611 0.0351562 29.1068-0.078125 28.4661-0.234375L28.4661-2.10938C29.1536-1.91406 29.8372-1.76562 30.5169-1.66406 31.1966-1.5625 31.8724-1.51172 32.5443-1.51172 33.5208-1.51172 34.2435-1.64453 34.7122-1.91016 35.181-2.17578 35.4154-2.55469 35.4154-3.04688 35.4154-3.25781 35.3783-3.44727 35.304-3.61523 35.2298-3.7832 35.0951-3.94336 34.8997-4.0957 34.7044-4.24805 34.4017-4.40625 33.9915-4.57031 33.5814-4.73438 33.0208-4.92188 32.3099-5.13281 31.7786-5.28906 31.2884-5.4668 30.8392-5.66602 30.39-5.86523 30.0013-6.10156 29.6732-6.375 29.3451-6.64844 29.0872-6.96875 28.8997-7.33594 28.7122-7.70312 28.6185-8.13672 28.6185-8.63672 28.6185-8.96484 28.6947-9.32422 28.847-9.71484 28.9993-10.1055 29.2591-10.4688 29.6263-10.8047 29.9935-11.1406 30.4896-11.4199 31.1146-11.6426 31.7396-11.8652 32.5208-11.9766 33.4583-11.9766 33.9193-11.9766 34.431-11.9512 34.9935-11.9004 35.556-11.8496 36.1419-11.7617 36.7513-11.6367L36.7513-9.82031C36.1107-9.97656 35.5033-10.0918 34.929-10.166 34.3548-10.2402 33.8568-10.2773 33.4349-10.2773 32.9271-10.2773 32.4994-10.2383 32.1517-10.1602 31.804-10.082 31.5228-9.97461 31.3079-9.83789 31.0931-9.70117 30.9388-9.54102 30.8451-9.35742 30.7513-9.17383 30.7044-8.97656 30.7044-8.76562 30.7044-8.55469 30.7454-8.36328 30.8275-8.19141 30.9095-8.01953 31.0618-7.85352 31.2845-7.69336 31.5072-7.5332 31.8177-7.37305 32.2161-7.21289 32.6146-7.05273 33.1341-6.87891 33.7747-6.69141 34.4701-6.48828 35.056-6.27539 35.5326-6.05273 36.0091-5.83008 36.3958-5.58203 36.6927-5.30859 36.9896-5.03516 37.2025-4.72656 37.3314-4.38281 37.4603-4.03906 37.5247-3.64844 37.5247-3.21094ZM50.832 0 48.793 0 48.793-7.51172C48.793-8.41797 48.623-9.0957 48.2832-9.54492 47.9434-9.99414 47.457-10.2188 46.8242-10.2188 46.5508-10.2188 46.2949-10.1816 46.0566-10.1074 45.8184-10.0332 45.5703-9.9043 45.3125-9.7207 45.0547-9.53711 44.7734-9.28906 44.4688-8.97656 44.1641-8.66406 43.8125-8.27344 43.4141-7.80469L43.4141 0 41.375 0 41.375-16.5586 43.4141-16.5586 43.4141-11.7656 43.3438-9.91406C43.6641-10.2969 43.9785-10.6191 44.2871-10.8809 44.5957-11.1426 44.9043-11.3555 45.2129-11.5195 45.5215-11.6836 45.8359-11.8008 46.1562-11.8711 46.4766-11.9414 46.8086-11.9766 47.1523-11.9766 48.3242-11.9766 49.2305-11.6191 49.8711-10.9043 50.5117-10.1895 50.832-9.11328 50.832-7.67578ZM64.8542-13.5352 60.319-13.5352 60.319 0 58.2096 0 58.2096-13.5352 53.6745-13.5352 53.6745-15.3164 64.8542-15.3164ZM75.2669 0 75.2201-1.58203C74.5794-0.949219 73.929-0.492187 73.2689-0.210938 72.6087 0.0703125 71.9154 0.210937 71.1888 0.210938 70.5169 0.210937 69.9427 0.125 69.4661-0.046875 68.9896-0.21875 68.597-0.455078 68.2884-0.755859 67.9798-1.05664 67.7533-1.41016 67.6087-1.81641 67.4642-2.22266 67.3919-2.66406 67.3919-3.14062 67.3919-4.32031 67.8314-5.24414 68.7103-5.91211 69.5892-6.58008 70.888-6.91406 72.6068-6.91406L75.0443-6.91406 75.0443-7.94531C75.0443-8.64062 74.8216-9.19727 74.3763-9.61523 73.931-10.0332 73.2513-10.2422 72.3372-10.2422 71.6732-10.2422 71.0189-10.168 70.3744-10.0195 69.7298-9.87109 69.0638-9.66016 68.3763-9.38672L68.3763-11.2266C68.6341-11.3203 68.9212-11.4121 69.2376-11.502 69.554-11.5918 69.888-11.6719 70.2396-11.7422 70.5911-11.8125 70.9583-11.8691 71.3411-11.9121 71.724-11.9551 72.1107-11.9766 72.5013-11.9766 73.2122-11.9766 73.8529-11.8984 74.4232-11.7422 74.9935-11.5859 75.4759-11.3477 75.8704-11.0273 76.265-10.707 76.5677-10.3047 76.7786-9.82031 76.9896-9.33594 77.0951-8.76562 77.0951-8.10938L77.0951 0ZM75.0443-5.35547 72.4544-5.35547C71.9466-5.35547 71.5091-5.30469 71.1419-5.20312 70.7747-5.10156 70.474-4.95703 70.2396-4.76953 70.0052-4.58203 69.8314-4.35742 69.7181-4.0957 69.6048-3.83398 69.5482-3.53906 69.5482-3.21094 69.5482-2.98438 69.5833-2.76758 69.6536-2.56055 69.724-2.35352 69.8372-2.16992 69.9935-2.00977 70.1497-1.84961 70.3529-1.72266 70.6029-1.62891 70.8529-1.53516 71.1576-1.48828 71.5169-1.48828 71.9857-1.48828 72.5228-1.63086 73.1283-1.91602 73.7337-2.20117 74.3724-2.65234 75.0443-3.26953ZM90.9297-6.09375C90.9297-5.11719 90.7949-4.24414 90.5254-3.47461 90.2559-2.70508 89.873-2.05273 89.377-1.51758 88.8809-0.982422 88.2773-0.572266 87.5664-0.287109 86.8555-0.00195313 86.0547 0.140625 85.1641 0.140625 84.4688 0.140625 83.7578 0.0742187 83.0312-0.0585938 82.3047-0.191406 81.5859-0.402344 80.875-0.691406L80.875-16.5586 82.9141-16.5586 82.9141-12 82.8203-9.82031C83.4062-10.6094 84.0332-11.166 84.7012-11.4902 85.3691-11.8145 86.0859-11.9766 86.8516-11.9766 87.5234-11.9766 88.1133-11.8359 88.6211-11.5547 89.1289-11.2734 89.5547-10.877 89.8984-10.3652 90.2422-9.85352 90.5-9.23633 90.6719-8.51367 90.8438-7.79102 90.9297-6.98437 90.9297-6.09375ZM88.8438-6C88.8438-6.61719 88.7988-7.18359 88.709-7.69922 88.6191-8.21484 88.4766-8.65625 88.2812-9.02344 88.0859-9.39062 87.8359-9.67773 87.5312-9.88477 87.2266-10.0918 86.8633-10.1953 86.4414-10.1953 86.1836-10.1953 85.9219-10.1543 85.6562-10.0723 85.3906-9.99023 85.1152-9.85352 84.8301-9.66211 84.5449-9.4707 84.2441-9.2168 83.9277-8.90039 83.6113-8.58398 83.2734-8.19141 82.9141-7.72266L82.9141-2.01562C83.3125-1.85937 83.7188-1.73633 84.1328-1.64648 84.5469-1.55664 84.9414-1.51172 85.3164-1.51172 85.7852-1.51172 86.2324-1.58594 86.6582-1.73438 87.084-1.88281 87.459-2.13086 87.7832-2.47852 88.1074-2.82617 88.3652-3.28711 88.5566-3.86133 88.748-4.43555 88.8438-5.14844 88.8438-6ZM98.0495-14.8828 94.569-14.8828 94.569-16.5586 100.112-16.5586 100.112-1.69922 103.616-1.69922 103.616 0 94.1823 0 94.1823-1.69922 98.0495-1.69922ZM117.146-6.50391C117.146-6.21484 117.142-5.97266 117.134-5.77734 117.126-5.58203 117.115-5.39844 117.099-5.22656L108.837-5.22656C108.837-4.02344 109.173-3.09961 109.845-2.45508 110.517-1.81055 111.486-1.48828 112.751-1.48828 113.095-1.48828 113.439-1.50195 113.783-1.5293 114.126-1.55664 114.458-1.59375 114.779-1.64062 115.099-1.6875 115.406-1.74023 115.699-1.79883 115.992-1.85742 116.263-1.92187 116.513-1.99219L116.513-0.316406C115.958-0.160156 115.331-0.0332031 114.632 0.0644531 113.933 0.162109 113.208 0.210937 112.458 0.210938 111.451 0.210937 110.583 0.0742187 109.857-0.199219 109.13-0.472656 108.535-0.869141 108.07-1.38867 107.605-1.9082 107.261-2.54492 107.038-3.29883 106.816-4.05273 106.704-4.90625 106.704-5.85938 106.704-6.6875 106.824-7.4707 107.062-8.20898 107.3-8.94727 107.648-9.5957 108.105-10.1543 108.562-10.7129 109.122-11.1562 109.786-11.4844 110.451-11.8125 111.204-11.9766 112.048-11.9766 112.868-11.9766 113.595-11.8477 114.228-11.5898 114.861-11.332 115.394-10.9668 115.827-10.4941 116.261-10.0215 116.589-9.44727 116.812-8.77148 117.035-8.0957 117.146-7.33984 117.146-6.50391ZM115.025-6.79688C115.048-7.32031 114.997-7.79883 114.872-8.23242 114.747-8.66602 114.554-9.03906 114.292-9.35156 114.031-9.66406 113.704-9.9082 113.314-10.084 112.923-10.2598 112.47-10.3477 111.954-10.3477 111.509-10.3477 111.103-10.2617 110.736-10.0898 110.368-9.91797 110.052-9.67578 109.786-9.36328 109.521-9.05078 109.306-8.67578 109.142-8.23828 108.978-7.80078 108.876-7.32031 108.837-6.79688Z" transform="translate(17.4019 33)"/></g></g><text font-family="Consolas,Consolas_MSFontService,sans-serif" font-weight="400" font-size="24" transform="translate(426.706 308)">HashTable</text><path d="M410.5 387.834C410.5 383.231 414.231 379.5 418.834 379.5L562.167 379.5C566.769 379.5 570.5 383.231 570.5 387.834L570.5 421.167C570.5 425.769 566.769 429.5 562.167 429.5L418.834 429.5C414.231 429.5 410.5 425.769 410.5 421.167Z" stroke="#C00000" stroke-width="2.66667" stroke-linejoin="round" stroke-miterlimit="10" fill="#FFFFFF" fill-rule="evenodd"/><g clip-path="url(#clip22)" filter="url(#fx6)" transform="translate(408 380)"><g clip-path="url(#clip23)"><path d="M11.9062-10.6289C11.9062-10.0039 11.7891-9.38477 11.5547-8.77148 11.3203-8.1582 10.957-7.60937 10.4648-7.125 9.97266-6.64062 9.34375-6.24805 8.57812-5.94727 7.8125-5.64648 6.89844-5.49609 5.83594-5.49609L3.9375-5.49609 3.9375 0 1.85156 0 1.85156-15.3164 6.16406-15.3164C6.92187-15.3164 7.64844-15.2324 8.34375-15.0645 9.03906-14.8965 9.65039-14.625 10.1777-14.25 10.7051-13.875 11.125-13.3906 11.4375-12.7969 11.75-12.2031 11.9062-11.4805 11.9062-10.6289ZM9.73828-10.5352C9.73828-11.5195 9.41602-12.2734 8.77148-12.7969 8.12695-13.3203 7.22656-13.582 6.07031-13.582L3.9375-13.582 3.9375-7.27734 5.88281-7.27734C7.11719-7.27734 8.06836-7.54687 8.73633-8.08594 9.4043-8.625 9.73828-9.44141 9.73828-10.5352ZM15.5221-11.7656 17.3854-11.7656 17.444-9.59766C18.1393-10.4336 18.8249-11.0391 19.5007-11.4141 20.1764-11.7891 20.8581-11.9766 21.5456-11.9766 22.7643-11.9766 23.6882-11.582 24.3171-10.793 24.946-10.0039 25.237-8.83203 25.1901-7.27734L23.1276-7.27734C23.151-8.30859 23.0007-9.05664 22.6764-9.52148 22.3522-9.98633 21.8776-10.2188 21.2526-10.2188 20.9792-10.2188 20.7038-10.1699 20.4264-10.0723 20.1491-9.97461 19.8639-9.81836 19.571-9.60352 19.278-9.38867 18.9674-9.11328 18.6393-8.77734 18.3112-8.44141 17.9596-8.03516 17.5846-7.55859L17.5846 0 15.5221 0ZM38.4505-5.97656C38.4505-5.0625 38.3216-4.22461 38.0638-3.46289 37.806-2.70117 37.4349-2.04883 36.9505-1.50586 36.4661-0.962891 35.8763-0.541016 35.181-0.240234 34.4857 0.0605469 33.6966 0.210937 32.8138 0.210938 31.9701 0.210937 31.2142 0.0800781 30.5462-0.181641 29.8783-0.443359 29.3118-0.828125 28.847-1.33594 28.3822-1.84375 28.0267-2.47266 27.7806-3.22266 27.5345-3.97266 27.4115-4.83594 27.4115-5.8125 27.4115-6.72656 27.5404-7.56055 27.7982-8.31445 28.056-9.06836 28.4271-9.7168 28.9115-10.2598 29.3958-10.8027 29.9857-11.2246 30.681-11.5254 31.3763-11.8262 32.1654-11.9766 33.0482-11.9766 33.8919-11.9766 34.6478-11.8457 35.3158-11.584 35.9837-11.3223 36.5501-10.9395 37.015-10.4355 37.4798-9.93164 37.8353-9.30469 38.0814-8.55469 38.3275-7.80469 38.4505-6.94531 38.4505-5.97656ZM36.3646-5.88281C36.3646-6.60937 36.2845-7.24414 36.1244-7.78711 35.9642-8.33008 35.7357-8.7832 35.4388-9.14648 35.1419-9.50977 34.7806-9.7832 34.3548-9.9668 33.929-10.1504 33.4544-10.2422 32.931-10.2422 32.3216-10.2422 31.8001-10.123 31.3665-9.88477 30.9329-9.64648 30.5775-9.32812 30.3001-8.92969 30.0228-8.53125 29.8197-8.06836 29.6908-7.54102 29.5618-7.01367 29.4974-6.46094 29.4974-5.88281 29.4974-5.15625 29.5775-4.51953 29.7376-3.97266 29.8978-3.42578 30.1263-2.9707 30.4232-2.60742 30.7201-2.24414 31.0794-1.9707 31.5013-1.78711 31.9232-1.60352 32.3997-1.51172 32.931-1.51172 33.5404-1.51172 34.0619-1.63086 34.4954-1.86914 34.929-2.10742 35.2845-2.42578 35.5619-2.82422 35.8392-3.22266 36.0423-3.68555 36.1712-4.21289 36.3001-4.74023 36.3646-5.29688 36.3646-5.88281ZM51.4297-6.09375C51.4297-5.04688 51.2832-4.13281 50.9902-3.35156 50.6973-2.57031 50.293-1.92187 49.7773-1.40625 49.2617-0.890625 48.6523-0.503906 47.9492-0.246094 47.2461 0.0117187 46.4844 0.140625 45.6641 0.140625 45.2891 0.140625 44.916 0.121094 44.5449 0.0820312 44.1738 0.0429688 43.7969-0.0234375 43.4141-0.117188L43.4141 4.80469 41.375 4.80469 41.375-11.7656 43.1914-11.7656 43.3203-9.79688C43.9062-10.6016 44.5312-11.166 45.1953-11.4902 45.8594-11.8145 46.5781-11.9766 47.3516-11.9766 48.0234-11.9766 48.6133-11.8359 49.1211-11.5547 49.6289-11.2734 50.0547-10.877 50.3984-10.3652 50.7422-9.85352 51-9.23633 51.1719-8.51367 51.3438-7.79102 51.4297-6.98437 51.4297-6.09375ZM49.3438-6C49.3438-6.61719 49.2988-7.18359 49.209-7.69922 49.1191-8.21484 48.9766-8.65625 48.7812-9.02344 48.5859-9.39062 48.3359-9.67773 48.0312-9.88477 47.7266-10.0918 47.3633-10.1953 46.9414-10.1953 46.6836-10.1953 46.4219-10.1543 46.1562-10.0723 45.8906-9.99023 45.6152-9.85352 45.3301-9.66211 45.0449-9.4707 44.7441-9.2168 44.4277-8.90039 44.1113-8.58398 43.7734-8.19141 43.4141-7.72266L43.4141-2.01562C43.7891-1.85937 44.1836-1.73633 44.5977-1.64648 45.0117-1.55664 45.418-1.51172 45.8164-1.51172 46.918-1.51172 47.7812-1.88477 48.4062-2.63086 49.0312-3.37695 49.3438-4.5 49.3438-6ZM64.4792-6.50391C64.4792-6.21484 64.4753-5.97266 64.4675-5.77734 64.4596-5.58203 64.4479-5.39844 64.4323-5.22656L56.1706-5.22656C56.1706-4.02344 56.5065-3.09961 57.1784-2.45508 57.8503-1.81055 58.819-1.48828 60.0846-1.48828 60.4284-1.48828 60.7721-1.50195 61.1159-1.5293 61.4596-1.55664 61.7917-1.59375 62.112-1.64062 62.4323-1.6875 62.7389-1.74023 63.0319-1.79883 63.3249-1.85742 63.5964-1.92187 63.8464-1.99219L63.8464-0.316406C63.2917-0.160156 62.6647-0.0332031 61.9655 0.0644531 61.2663 0.162109 60.5417 0.210937 59.7917 0.210938 58.7839 0.210937 57.9167 0.0742187 57.1901-0.199219 56.4635-0.472656 55.8678-0.869141 55.403-1.38867 54.9382-1.9082 54.5944-2.54492 54.3717-3.29883 54.1491-4.05273 54.0378-4.90625 54.0378-5.85938 54.0378-6.6875 54.1569-7.4707 54.3952-8.20898 54.6335-8.94727 54.9811-9.5957 55.4382-10.1543 55.8952-10.7129 56.4557-11.1562 57.1198-11.4844 57.7839-11.8125 58.5378-11.9766 59.3815-11.9766 60.2018-11.9766 60.9284-11.8477 61.5612-11.5898 62.194-11.332 62.7272-10.9668 63.1608-10.4941 63.5944-10.0215 63.9225-9.44727 64.1452-8.77148 64.3678-8.0957 64.4792-7.33984 64.4792-6.50391ZM62.3581-6.79688C62.3815-7.32031 62.3307-7.79883 62.2057-8.23242 62.0807-8.66602 61.8874-9.03906 61.6257-9.35156 61.3639-9.66406 61.0378-9.9082 60.6471-10.084 60.2565-10.2598 59.8034-10.3477 59.2878-10.3477 58.8424-10.3477 58.4362-10.2617 58.069-10.0898 57.7018-9.91797 57.3854-9.67578 57.1198-9.36328 56.8542-9.05078 56.6393-8.67578 56.4753-8.23828 56.3112-7.80078 56.2096-7.32031 56.1706-6.79688ZM68.1888-11.7656 70.0521-11.7656 70.1107-9.59766C70.806-10.4336 71.4915-11.0391 72.1673-11.4141 72.8431-11.7891 73.5247-11.9766 74.2122-11.9766 75.431-11.9766 76.3548-11.582 76.9837-10.793 77.6126-10.0039 77.9036-8.83203 77.8568-7.27734L75.7943-7.27734C75.8177-8.30859 75.6673-9.05664 75.3431-9.52148 75.0189-9.98633 74.5443-10.2188 73.9193-10.2188 73.6458-10.2188 73.3704-10.1699 73.0931-10.0723 72.8158-9.97461 72.5306-9.81836 72.2376-9.60352 71.9447-9.38867 71.6341-9.11328 71.306-8.77734 70.9779-8.44141 70.6263-8.03516 70.2513-7.55859L70.2513 0 68.1888 0ZM90.3555-0.164062C89.8945-0.046875 89.418 0.0371094 88.9258 0.0878906 88.4336 0.138672 87.9336 0.164062 87.4258 0.164062 85.9492 0.164062 84.8477-0.169922 84.1211-0.837891 83.3945-1.50586 83.0312-2.53125 83.0312-3.91406L83.0312-10.0547 79.7383-10.0547 79.7383-11.7656 83.0312-11.7656 83.0312-15 85.0703-15.5273 85.0703-11.7656 90.3555-11.7656 90.3555-10.0547 85.0703-10.0547 85.0703-4.07812C85.0703-3.23438 85.2949-2.60352 85.7441-2.18555 86.1934-1.76758 86.8555-1.55859 87.7305-1.55859 88.1055-1.55859 88.5156-1.58789 88.9609-1.64648 89.4062-1.70508 89.8711-1.79687 90.3555-1.92188ZM98.0495-10.0781 94.569-10.0781 94.569-11.7656 100.112-11.7656 100.112-1.69922 103.616-1.69922 103.616 0 94.1823 0 94.1823-1.69922 98.0495-1.69922ZM98.7643-16.6992C98.9909-16.6992 99.2018-16.6582 99.3971-16.5762 99.5924-16.4941 99.7624-16.3789 99.9069-16.2305 100.051-16.082 100.165-15.9121 100.247-15.7207 100.329-15.5293 100.37-15.3203 100.37-15.0938 100.37-14.875 100.329-14.668 100.247-14.4727 100.165-14.2773 100.051-14.1055 99.9069-13.957 99.7624-13.8086 99.5924-13.6934 99.3971-13.6113 99.2018-13.5293 98.9909-13.4883 98.7643-13.4883 98.5378-13.4883 98.3268-13.5293 98.1315-13.6113 97.9362-13.6934 97.7663-13.8086 97.6217-13.957 97.4772-14.1055 97.3639-14.2773 97.2819-14.4727 97.1999-14.668 97.1588-14.875 97.1589-15.0938 97.1588-15.3203 97.1999-15.5293 97.2819-15.7207 97.3639-15.9121 97.4772-16.082 97.6217-16.2305 97.7663-16.3789 97.9362-16.4941 98.1315-16.5762 98.3268-16.6582 98.5378-16.6992 98.7643-16.6992ZM117.146-6.50391C117.146-6.21484 117.142-5.97266 117.134-5.77734 117.126-5.58203 117.115-5.39844 117.099-5.22656L108.837-5.22656C108.837-4.02344 109.173-3.09961 109.845-2.45508 110.517-1.81055 111.486-1.48828 112.751-1.48828 113.095-1.48828 113.439-1.50195 113.783-1.5293 114.126-1.55664 114.458-1.59375 114.779-1.64062 115.099-1.6875 115.406-1.74023 115.699-1.79883 115.992-1.85742 116.263-1.92187 116.513-1.99219L116.513-0.316406C115.958-0.160156 115.331-0.0332031 114.632 0.0644531 113.933 0.162109 113.208 0.210937 112.458 0.210938 111.451 0.210937 110.583 0.0742187 109.857-0.199219 109.13-0.472656 108.535-0.869141 108.07-1.38867 107.605-1.9082 107.261-2.54492 107.038-3.29883 106.816-4.05273 106.704-4.90625 106.704-5.85938 106.704-6.6875 106.824-7.4707 107.062-8.20898 107.3-8.94727 107.648-9.5957 108.105-10.1543 108.562-10.7129 109.122-11.1562 109.786-11.4844 110.451-11.8125 111.204-11.9766 112.048-11.9766 112.868-11.9766 113.595-11.8477 114.228-11.5898 114.861-11.332 115.394-10.9668 115.827-10.4941 116.261-10.0215 116.589-9.44727 116.812-8.77148 117.035-8.0957 117.146-7.33984 117.146-6.50391ZM115.025-6.79688C115.048-7.32031 114.997-7.79883 114.872-8.23242 114.747-8.66602 114.554-9.03906 114.292-9.35156 114.031-9.66406 113.704-9.9082 113.314-10.084 112.923-10.2598 112.47-10.3477 111.954-10.3477 111.509-10.3477 111.103-10.2617 110.736-10.0898 110.368-9.91797 110.052-9.67578 109.786-9.36328 109.521-9.05078 109.306-8.67578 109.142-8.23828 108.978-7.80078 108.876-7.32031 108.837-6.79688ZM129.691-3.21094C129.691-2.79688 129.621-2.42578 129.48-2.09766 129.34-1.76953 129.148-1.47852 128.906-1.22461 128.664-0.970703 128.383-0.753906 128.062-0.574219 127.742-0.394531 127.4-0.246094 127.037-0.128906 126.674-0.0117188 126.301 0.0742188 125.918 0.128906 125.535 0.183594 125.16 0.210937 124.793 0.210938 123.996 0.210937 123.264 0.175781 122.596 0.105469 121.928 0.0351562 121.273-0.078125 120.633-0.234375L120.633-2.10938C121.32-1.91406 122.004-1.76562 122.684-1.66406 123.363-1.5625 124.039-1.51172 124.711-1.51172 125.687-1.51172 126.41-1.64453 126.879-1.91016 127.348-2.17578 127.582-2.55469 127.582-3.04688 127.582-3.25781 127.545-3.44727 127.471-3.61523 127.396-3.7832 127.262-3.94336 127.066-4.0957 126.871-4.24805 126.568-4.40625 126.158-4.57031 125.748-4.73438 125.187-4.92188 124.477-5.13281 123.945-5.28906 123.455-5.4668 123.006-5.66602 122.557-5.86523 122.168-6.10156 121.84-6.375 121.512-6.64844 121.254-6.96875 121.066-7.33594 120.879-7.70312 120.785-8.13672 120.785-8.63672 120.785-8.96484 120.861-9.32422 121.014-9.71484 121.166-10.1055 121.426-10.4688 121.793-10.8047 122.16-11.1406 122.656-11.4199 123.281-11.6426 123.906-11.8652 124.687-11.9766 125.625-11.9766 126.086-11.9766 126.598-11.9512 127.16-11.9004 127.723-11.8496 128.309-11.7617 128.918-11.6367L128.918-9.82031C128.277-9.97656 127.67-10.0918 127.096-10.166 126.521-10.2402 126.023-10.2773 125.602-10.2773 125.094-10.2773 124.666-10.2383 124.318-10.1602 123.971-10.082 123.689-9.97461 123.475-9.83789 123.26-9.70117 123.105-9.54102 123.012-9.35742 122.918-9.17383 122.871-8.97656 122.871-8.76562 122.871-8.55469 122.912-8.36328 122.994-8.19141 123.076-8.01953 123.229-7.85352 123.451-7.69336 123.674-7.5332 123.984-7.37305 124.383-7.21289 124.781-7.05273 125.301-6.87891 125.941-6.69141 126.637-6.48828 127.223-6.27539 127.699-6.05273 128.176-5.83008 128.562-5.58203 128.859-5.30859 129.156-5.03516 129.369-4.72656 129.498-4.38281 129.627-4.03906 129.691-3.64844 129.691-3.21094Z" transform="translate(17.2792 33)"/></g></g><text font-family="Consolas,Consolas_MSFontService,sans-serif" font-weight="400" font-size="24" transform="translate(424.583 413)">Properties</text><path d="M702.5 381.834C702.5 377.231 706.231 373.5 710.834 373.5L846.167 373.5C850.769 373.5 854.5 377.231 854.5 381.834L854.5 415.166C854.5 419.769 850.769 423.5 846.167 423.5L710.834 423.5C706.231 423.5 702.5 419.769 702.5 415.166Z" stroke="#C00000" stroke-width="2.66667" stroke-linejoin="round" stroke-miterlimit="10" fill="#FFFFFF" fill-rule="evenodd"/><g clip-path="url(#clip24)" filter="url(#fx7)" transform="translate(715 374)"><g clip-path="url(#clip25)"><path d="M12.1875-13.5352 7.65234-13.5352 7.65234 0 5.54297 0 5.54297-13.5352 1.00781-13.5352 1.00781-15.3164 12.1875-15.3164ZM15.5221-11.7656 17.3854-11.7656 17.444-9.59766C18.1393-10.4336 18.8249-11.0391 19.5007-11.4141 20.1764-11.7891 20.8581-11.9766 21.5456-11.9766 22.7643-11.9766 23.6882-11.582 24.3171-10.793 24.946-10.0039 25.237-8.83203 25.1901-7.27734L23.1276-7.27734C23.151-8.30859 23.0007-9.05664 22.6764-9.52148 22.3522-9.98633 21.8776-10.2188 21.2526-10.2188 20.9792-10.2188 20.7038-10.1699 20.4264-10.0723 20.1491-9.97461 19.8639-9.81836 19.571-9.60352 19.278-9.38867 18.9674-9.11328 18.6393-8.77734 18.3112-8.44141 17.9596-8.03516 17.5846-7.55859L17.5846 0 15.5221 0ZM38.1458-6.50391C38.1458-6.21484 38.1419-5.97266 38.1341-5.77734 38.1263-5.58203 38.1146-5.39844 38.099-5.22656L29.8372-5.22656C29.8372-4.02344 30.1732-3.09961 30.8451-2.45508 31.5169-1.81055 32.4857-1.48828 33.7513-1.48828 34.0951-1.48828 34.4388-1.50195 34.7826-1.5293 35.1263-1.55664 35.4583-1.59375 35.7786-1.64062 36.099-1.6875 36.4056-1.74023 36.6986-1.79883 36.9915-1.85742 37.263-1.92187 37.513-1.99219L37.513-0.316406C36.9583-0.160156 36.3314-0.0332031 35.6322 0.0644531 34.9329 0.162109 34.2083 0.210937 33.4583 0.210938 32.4505 0.210937 31.5833 0.0742187 30.8568-0.199219 30.1302-0.472656 29.5345-0.869141 29.0697-1.38867 28.6048-1.9082 28.2611-2.54492 28.0384-3.29883 27.8158-4.05273 27.7044-4.90625 27.7044-5.85938 27.7044-6.6875 27.8236-7.4707 28.0618-8.20898 28.3001-8.94727 28.6478-9.5957 29.1048-10.1543 29.5618-10.7129 30.1224-11.1562 30.7865-11.4844 31.4505-11.8125 32.2044-11.9766 33.0482-11.9766 33.8685-11.9766 34.5951-11.8477 35.2279-11.5898 35.8607-11.332 36.3939-10.9668 36.8275-10.4941 37.2611-10.0215 37.5892-9.44727 37.8119-8.77148 38.0345-8.0957 38.1458-7.33984 38.1458-6.50391ZM36.0247-6.79688C36.0482-7.32031 35.9974-7.79883 35.8724-8.23242 35.7474-8.66602 35.554-9.03906 35.2923-9.35156 35.0306-9.66406 34.7044-9.9082 34.3138-10.084 33.9232-10.2598 33.4701-10.3477 32.9544-10.3477 32.5091-10.3477 32.1029-10.2617 31.7357-10.0898 31.3685-9.91797 31.0521-9.67578 30.7865-9.36328 30.5208-9.05078 30.306-8.67578 30.1419-8.23828 29.9779-7.80078 29.8763-7.32031 29.8372-6.79688ZM51.3125-6.50391C51.3125-6.21484 51.3086-5.97266 51.3008-5.77734 51.293-5.58203 51.2812-5.39844 51.2656-5.22656L43.0039-5.22656C43.0039-4.02344 43.3398-3.09961 44.0117-2.45508 44.6836-1.81055 45.6523-1.48828 46.918-1.48828 47.2617-1.48828 47.6055-1.50195 47.9492-1.5293 48.293-1.55664 48.625-1.59375 48.9453-1.64062 49.2656-1.6875 49.5723-1.74023 49.8652-1.79883 50.1582-1.85742 50.4297-1.92187 50.6797-1.99219L50.6797-0.316406C50.125-0.160156 49.498-0.0332031 48.7988 0.0644531 48.0996 0.162109 47.375 0.210937 46.625 0.210938 45.6172 0.210937 44.75 0.0742187 44.0234-0.199219 43.2969-0.472656 42.7012-0.869141 42.2363-1.38867 41.7715-1.9082 41.4277-2.54492 41.2051-3.29883 40.9824-4.05273 40.8711-4.90625 40.8711-5.85938 40.8711-6.6875 40.9902-7.4707 41.2285-8.20898 41.4668-8.94727 41.8145-9.5957 42.2715-10.1543 42.7285-10.7129 43.2891-11.1562 43.9531-11.4844 44.6172-11.8125 45.3711-11.9766 46.2148-11.9766 47.0352-11.9766 47.7617-11.8477 48.3945-11.5898 49.0273-11.332 49.5605-10.9668 49.9941-10.4941 50.4277-10.0215 50.7559-9.44727 50.9785-8.77148 51.2012-8.0957 51.3125-7.33984 51.3125-6.50391ZM49.1914-6.79688C49.2148-7.32031 49.1641-7.79883 49.0391-8.23242 48.9141-8.66602 48.7207-9.03906 48.459-9.35156 48.1973-9.66406 47.8711-9.9082 47.4805-10.084 47.0898-10.2598 46.6367-10.3477 46.1211-10.3477 45.6758-10.3477 45.2695-10.2617 44.9023-10.0898 44.5352-9.91797 44.2188-9.67578 43.9531-9.36328 43.6875-9.05078 43.4727-8.67578 43.3086-8.23828 43.1445-7.80078 43.043-7.32031 43.0039-6.79688ZM65.2878 0 63.2487 0 62.944-9.55078 62.8151-13.2188 62.1003-11.0859 59.8385-4.99219 58.3971-4.99219 56.2409-10.8516 55.526-13.2188 55.4792-9.38672 55.2096 0 53.2409 0 53.9909-15.3164 56.4635-15.3164 58.526-9.55078 59.194-7.60547 59.8385-9.55078 62.0065-15.3164 64.5495-15.3164ZM75.2669 0 75.2201-1.58203C74.5794-0.949219 73.929-0.492187 73.2689-0.210938 72.6087 0.0703125 71.9154 0.210937 71.1888 0.210938 70.5169 0.210937 69.9427 0.125 69.4661-0.046875 68.9896-0.21875 68.597-0.455078 68.2884-0.755859 67.9798-1.05664 67.7533-1.41016 67.6087-1.81641 67.4642-2.22266 67.3919-2.66406 67.3919-3.14062 67.3919-4.32031 67.8314-5.24414 68.7103-5.91211 69.5892-6.58008 70.888-6.91406 72.6068-6.91406L75.0443-6.91406 75.0443-7.94531C75.0443-8.64062 74.8216-9.19727 74.3763-9.61523 73.931-10.0332 73.2513-10.2422 72.3372-10.2422 71.6732-10.2422 71.0189-10.168 70.3744-10.0195 69.7298-9.87109 69.0638-9.66016 68.3763-9.38672L68.3763-11.2266C68.6341-11.3203 68.9212-11.4121 69.2376-11.502 69.554-11.5918 69.888-11.6719 70.2396-11.7422 70.5911-11.8125 70.9583-11.8691 71.3411-11.9121 71.724-11.9551 72.1107-11.9766 72.5013-11.9766 73.2122-11.9766 73.8529-11.8984 74.4232-11.7422 74.9935-11.5859 75.4759-11.3477 75.8704-11.0273 76.265-10.707 76.5677-10.3047 76.7786-9.82031 76.9896-9.33594 77.0951-8.76562 77.0951-8.10938L77.0951 0ZM75.0443-5.35547 72.4544-5.35547C71.9466-5.35547 71.5091-5.30469 71.1419-5.20312 70.7747-5.10156 70.474-4.95703 70.2396-4.76953 70.0052-4.58203 69.8314-4.35742 69.7181-4.0957 69.6048-3.83398 69.5482-3.53906 69.5482-3.21094 69.5482-2.98438 69.5833-2.76758 69.6536-2.56055 69.724-2.35352 69.8372-2.16992 69.9935-2.00977 70.1497-1.84961 70.3529-1.72266 70.6029-1.62891 70.8529-1.53516 71.1576-1.48828 71.5169-1.48828 71.9857-1.48828 72.5228-1.63086 73.1283-1.91602 73.7337-2.20117 74.3724-2.65234 75.0443-3.26953ZM90.9297-6.09375C90.9297-5.04688 90.7832-4.13281 90.4902-3.35156 90.1973-2.57031 89.793-1.92187 89.2773-1.40625 88.7617-0.890625 88.1523-0.503906 87.4492-0.246094 86.7461 0.0117187 85.9844 0.140625 85.1641 0.140625 84.7891 0.140625 84.416 0.121094 84.0449 0.0820312 83.6738 0.0429688 83.2969-0.0234375 82.9141-0.117188L82.9141 4.80469 80.875 4.80469 80.875-11.7656 82.6914-11.7656 82.8203-9.79688C83.4062-10.6016 84.0312-11.166 84.6953-11.4902 85.3594-11.8145 86.0781-11.9766 86.8516-11.9766 87.5234-11.9766 88.1133-11.8359 88.6211-11.5547 89.1289-11.2734 89.5547-10.877 89.8984-10.3652 90.2422-9.85352 90.5-9.23633 90.6719-8.51367 90.8438-7.79102 90.9297-6.98437 90.9297-6.09375ZM88.8438-6C88.8438-6.61719 88.7988-7.18359 88.709-7.69922 88.6191-8.21484 88.4766-8.65625 88.2812-9.02344 88.0859-9.39062 87.8359-9.67773 87.5312-9.88477 87.2266-10.0918 86.8633-10.1953 86.4414-10.1953 86.1836-10.1953 85.9219-10.1543 85.6562-10.0723 85.3906-9.99023 85.1152-9.85352 84.8301-9.66211 84.5449-9.4707 84.2441-9.2168 83.9277-8.90039 83.6113-8.58398 83.2734-8.19141 82.9141-7.72266L82.9141-2.01562C83.2891-1.85937 83.6836-1.73633 84.0977-1.64648 84.5117-1.55664 84.918-1.51172 85.3164-1.51172 86.418-1.51172 87.2812-1.88477 87.9062-2.63086 88.5312-3.37695 88.8438-4.5 88.8438-6Z" transform="translate(17.5687 33)"/></g></g><text font-family="Consolas,Consolas_MSFontService,sans-serif" font-weight="400" font-size="24" transform="translate(731.872 407)">TreeMap</text><path d="M478.967 229.5 478.967 264.982 476.033 264.982 476.033 229.5ZM481.9 263.516 477.5 272.316 473.1 263.516Z" fill="#FF0000"/><path d="M478.967 325.5 478.967 372.108 476.033 372.108 476.033 325.5ZM481.9 370.641 477.5 379.441 473.1 370.641Z" fill="#FF0000"/><path d="M639.5 281C639.5 276.306 643.306 272.5 648 272.5L782 272.5C786.694 272.5 790.5 276.306 790.5 281L790.5 315C790.5 319.694 786.694 323.5 782 323.5L648 323.5C643.306 323.5 639.5 319.694 639.5 315Z" stroke="#4BACC6" stroke-width="2.66667" stroke-linejoin="round" stroke-miterlimit="10" fill="#FFFFFF" fill-rule="evenodd"/><g clip-path="url(#clip26)" filter="url(#fx8)" transform="translate(692 276)"><g clip-path="url(#clip27)"><path d="M3.70166-1.10742C3.70166-0.628906 3.62134-0.309326 3.46069-0.148682 3.30005 0.0119629 3.01465 0.0922852 2.60449 0.0922852 2.20801 0.0922852 1.93115 0.0136719 1.77393-0.143555 1.6167-0.300781 1.53809-0.611816 1.53809-1.07666 1.53809-1.55518 1.61841-1.87476 1.77905-2.0354 1.9397-2.19604 2.2251-2.27637 2.63525-2.27637 3.03174-2.27637 3.30859-2.19775 3.46582-2.04053 3.62305-1.8833 3.70166-1.57227 3.70166-1.10742ZM8.32617-1.10742C8.32617-0.628906 8.24756-0.309326 8.09033-0.148682 7.9331 0.0119629 7.64941 0.0922852 7.23926 0.0922852 6.84277 0.0922852 6.56592 0.0136719 6.40869-0.143555 6.25146-0.300781 6.17285-0.611816 6.17285-1.07666 6.17285-1.55518 6.25317-1.87476 6.41382-2.0354 6.57446-2.19604 6.85644-2.27637 7.25977-2.27637 7.66309-2.27637 7.94165-2.19775 8.09546-2.04053 8.24927-1.8833 8.32617-1.57227 8.32617-1.10742ZM12.9609-1.10742C12.9609-0.628906 12.8806-0.309326 12.72-0.148682 12.5593 0.0119629 12.2739 0.0922852 11.8638 0.0922852 11.4673 0.0922852 11.1904 0.0136719 11.0332-0.143555 10.876-0.300781 10.7974-0.611816 10.7974-1.07666 10.7974-1.55518 10.8777-1.87476 11.0383-2.0354 11.199-2.19604 11.4844-2.27637 11.8945-2.27637 12.291-2.27637 12.5679-2.19775 12.7251-2.04053 12.8823-1.8833 12.9609-1.57227 12.9609-1.10742Z" transform="translate(16.0771 29)"/></g></g><text font-family="Calibri,Calibri_MSFontService,sans-serif" font-weight="400" font-size="21" transform="translate(707.422 305)">…</text></g></svg>