<svg width="1141" height="425" xmlns="http://www.w3.org/2000/svg" xmlns:xlink="http://www.w3.org/1999/xlink" overflow="hidden"><defs><clipPath id="clip0"><rect x="108" y="193" width="1141" height="425"/></clipPath></defs><g clip-path="url(#clip0)" transform="translate(-108 -193)"><rect x="110.5" y="229.5" width="607" height="213" stroke="#000000" stroke-width="1.33333" stroke-linejoin="round" stroke-miterlimit="10" fill="#FFFFE4"/><text fill="#000080" font-family="Consolas,Consolas_MSFontService,sans-serif" font-weight="700" font-size="19" transform="translate(119.911 252)">public class <tspan fill="#000000" font-weight="400" font-size="19" x="134.333" y="0">Test2 {</tspan><tspan font-size="19" x="41.3333" y="22">public static void </tspan><tspan fill="#000000" font-weight="400" font-size="19" x="237.667" y="22">main(String[] args) {</tspan><tspan fill="#000000" font-weight="400" font-size="19" x="82.6667" y="67">String s2 = </tspan>new <tspan fill="#000000" font-weight="400" font-size="19" x="248" y="67">String(</tspan><tspan fill="#008000" font-size="19" x="320.333" y="67">"abc"</tspan><tspan fill="#000000" font-weight="400" font-size="19" x="372" y="67">);</tspan><tspan fill="#000000" font-weight="400" font-size="19" x="82.6667" y="112">String s1 = </tspan><tspan fill="#008000" font-size="19" x="206.667" y="112">"abc"</tspan><tspan fill="#000000" font-weight="400" font-size="19" x="258.333" y="112">;</tspan><tspan fill="#000000" font-weight="400" font-size="19" x="82.6667" y="134">System.</tspan><tspan fill="#660E7A" font-style="italic" font-size="19" x="155" y="134">out</tspan><tspan fill="#000000" font-weight="400" font-size="19" x="186" y="134">.println(s1 == s2);</tspan><tspan fill="#000000" font-weight="400" font-size="19" x="41.3333" y="156">}</tspan><tspan fill="#000000" font-weight="400" font-size="19" x="0" y="179">}</tspan></text><path d="M510 376 738.072 376 738.072 378 510 378ZM736.739 373 744.739 377 736.739 381Z" fill="#FF0000"/><text fill="#C00000" font-family="Consolas,Consolas_MSFontService,sans-serif" font-weight="400" font-size="19" transform="translate(754.428 388)">false</text><rect x="193.5" y="299.5" width="322" height="28" stroke="#FF0000" stroke-width="2.66667" stroke-linejoin="round" stroke-miterlimit="10" fill="none"/><path d="M325 328 325 464.222 323 464.222 323 328ZM328 462.889 324 470.889 320 462.889Z" fill="#FF0000"/><text fill="#C00000" font-family="Microsoft YaHei,Microsoft YaHei_MSFontService,sans-serif" font-weight="700" font-size="25" transform="translate(313.022 500)">这句代码实际上创建了两个对象</text><rect x="951" y="203" width="295" height="412" stroke="#00B050" stroke-width="4" stroke-linejoin="round" stroke-miterlimit="10" fill="#9BBB59" fill-opacity="0.101961"/><text fill="#00B050" font-family="Microsoft YaHei,Microsoft YaHei_MSFontService,sans-serif" font-weight="700" font-size="32" transform="translate(1056.19 241)">堆内存</text><path d="M974.5 356C974.5 344.678 983.678 335.5 995 335.5L1214 335.5C1225.32 335.5 1234.5 344.678 1234.5 356L1234.5 438C1234.5 449.322 1225.32 458.5 1214 458.5L995 458.5C983.678 458.5 974.5 449.322 974.5 438Z" stroke="#F79646" stroke-width="2.66667" stroke-linejoin="round" stroke-miterlimit="10" fill="#FDEADA" fill-rule="evenodd"/><text fill="#008000" font-family="Consolas,Consolas_MSFontService,sans-serif" font-weight="700" font-size="32" transform="translate(1060.02 407)">"abc"<tspan fill="#E46C0A" font-family="Microsoft YaHei,Microsoft YaHei_MSFontService,sans-serif" font-size="19" x="-70.4569" y="-100">字符串常量池</tspan></text><rect x="1029.5" y="511.5" width="116" height="44" stroke="#4F81BD" stroke-width="2.66667" stroke-linejoin="round" stroke-miterlimit="10" fill="#FFFFFF"/><text fill="#008000" font-family="Consolas,Consolas_MSFontService,sans-serif" font-weight="700" font-size="32" transform="translate(1043.07 544)">"abc"</text></g></svg>