<svg width="1091" height="382" xmlns="http://www.w3.org/2000/svg" xmlns:xlink="http://www.w3.org/1999/xlink" overflow="hidden"><defs><clipPath id="clip0"><rect x="89" y="261" width="1091" height="382"/></clipPath><clipPath id="clip1"><rect x="955" y="191" width="222" height="203"/></clipPath><clipPath id="clip2"><rect x="281" y="468" width="173" height="147"/></clipPath><clipPath id="clip3"><rect x="281" y="505" width="173" height="147"/></clipPath><clipPath id="clip4"><rect x="281" y="543" width="173" height="146"/></clipPath></defs><g clip-path="url(#clip0)" transform="translate(-89 -261)"><path d="M89.871 262.073 281.418 262.073 281.418 323.386 89.871 323.386Z" fill="#AD2B26" fill-rule="evenodd"/><path d="M281.418 262.073 453.517 262.073 453.517 323.386 281.418 323.386Z" fill="#AD2B26" fill-rule="evenodd"/><path d="M453.517 262.073 955.034 262.073 955.034 323.386 453.517 323.386Z" fill="#AD2B26" fill-rule="evenodd"/><path d="M955.034 262.073 1176.41 262.073 1176.41 323.386 955.034 323.386Z" fill="#AD2B26" fill-rule="evenodd"/><path d="M89.871 323.386 281.418 323.386 281.418 485.25 89.871 485.25Z" fill="#BFBFBF" fill-rule="evenodd"/><path d="M281.418 323.386 453.517 323.386 453.517 360.794 281.418 360.794Z" fill="#F2F2F2" fill-rule="evenodd"/><path d="M453.517 323.386 955.034 323.386 955.034 360.794 453.517 360.794Z" fill="#F2F2F2" fill-rule="evenodd"/><path d="M955.034 323.386 1176.41 323.386 1176.41 360.794 955.034 360.794Z" fill="#F2F2F2" fill-rule="evenodd"/><path d="M281.418 360.794 453.517 360.794 453.517 398.201 281.418 398.201Z" fill="#D9D9D9" fill-rule="evenodd"/><path d="M453.517 360.794 955.034 360.794 955.034 398.201 453.517 398.201Z" fill="#D9D9D9" fill-rule="evenodd"/><path d="M955.034 360.794 1176.41 360.794 1176.41 398.201 955.034 398.201Z" fill="#D9D9D9" fill-rule="evenodd"/><path d="M281.418 398.201 453.517 398.201 453.517 435.609 281.418 435.609Z" fill="#F2F2F2" fill-rule="evenodd"/><path d="M453.517 398.201 955.034 398.201 955.034 435.609 453.517 435.609Z" fill="#F2F2F2" fill-rule="evenodd"/><path d="M955.034 398.201 1176.41 398.201 1176.41 435.609 955.034 435.609Z" fill="#F2F2F2" fill-rule="evenodd"/><path d="M281.418 435.609 453.517 435.609 453.517 485.25 281.418 485.25Z" fill="#D9D9D9" fill-rule="evenodd"/><path d="M453.517 435.609 955.034 435.609 955.034 485.25 453.517 485.25Z" fill="#D9D9D9" fill-rule="evenodd"/><path d="M955.034 435.609 1176.41 435.609 1176.41 485.25 955.034 485.25Z" fill="#D9D9D9" fill-rule="evenodd"/><path d="M89.871 485.25 281.418 485.25 281.418 560.065 89.871 560.065Z" fill="#BFBFBF" fill-rule="evenodd"/><path d="M281.418 485.25 453.517 485.25 453.517 522.658 281.418 522.658Z" fill="#F2F2F2" fill-rule="evenodd"/><path d="M453.517 485.25 955.034 485.25 955.034 522.658 453.517 522.658Z" fill="#F2F2F2" fill-rule="evenodd"/><path d="M955.034 485.25 1176.41 485.25 1176.41 522.658 955.034 522.658Z" fill="#F2F2F2" fill-rule="evenodd"/><path d="M281.418 522.658 453.517 522.658 453.517 560.065 281.418 560.065Z" fill="#D9D9D9" fill-rule="evenodd"/><path d="M453.517 522.658 955.034 522.658 955.034 560.065 453.517 560.065Z" fill="#D9D9D9" fill-rule="evenodd"/><path d="M955.034 522.658 1176.41 522.658 1176.41 560.065 955.034 560.065Z" fill="#D9D9D9" fill-rule="evenodd"/><path d="M89.871 560.065 281.418 560.065 281.418 597.473 89.871 597.473Z" fill="#BFBFBF" fill-rule="evenodd"/><path d="M281.418 560.065 453.517 560.065 453.517 597.473 281.418 597.473Z" fill="#F2F2F2" fill-rule="evenodd"/><path d="M453.517 560.065 955.034 560.065 955.034 597.473 453.517 597.473Z" fill="#F2F2F2" fill-rule="evenodd"/><path d="M955.034 560.065 1176.41 560.065 1176.41 597.473 955.034 597.473Z" fill="#F2F2F2" fill-rule="evenodd"/><path d="M89.871 597.473 281.418 597.473 281.418 634.881 89.871 634.881Z" fill="#BFBFBF" fill-rule="evenodd"/><path d="M281.418 597.473 453.517 597.473 453.517 634.881 281.418 634.881Z" fill="#D9D9D9" fill-rule="evenodd"/><path d="M453.517 597.473 955.034 597.473 955.034 634.881 453.517 634.881Z" fill="#D9D9D9" fill-rule="evenodd"/><path d="M955.034 597.473 1176.41 597.473 1176.41 634.881 955.034 634.881Z" fill="#D9D9D9" fill-rule="evenodd"/><path d="M281.418 261.407 281.418 635.547" stroke="#FFFFFF" stroke-width="1.33333" stroke-linejoin="round" stroke-miterlimit="10" fill="none" fill-rule="evenodd"/><path d="M453.517 261.407 453.517 635.547" stroke="#FFFFFF" stroke-width="1.33333" stroke-linejoin="round" stroke-miterlimit="10" fill="none" fill-rule="evenodd"/><path d="M955.034 261.407 955.034 635.547" stroke="#FFFFFF" stroke-width="1.33333" stroke-linejoin="round" stroke-miterlimit="10" fill="none" fill-rule="evenodd"/><path d="M89.2043 323.386 1177.07 323.386" stroke="#FFFFFF" stroke-width="4" stroke-linejoin="round" stroke-miterlimit="10" fill="none" fill-rule="evenodd"/><path d="M280.752 360.794 1177.07 360.794" stroke="#FFFFFF" stroke-width="1.33333" stroke-linejoin="round" stroke-miterlimit="10" fill="none" fill-rule="evenodd"/><path d="M280.752 398.201 1177.07 398.201" stroke="#FFFFFF" stroke-width="1.33333" stroke-linejoin="round" stroke-miterlimit="10" fill="none" fill-rule="evenodd"/><path d="M280.752 435.609 1177.07 435.609" stroke="#FFFFFF" stroke-width="1.33333" stroke-linejoin="round" stroke-miterlimit="10" fill="none" fill-rule="evenodd"/><path d="M89.2043 485.25 1177.07 485.25" stroke="#FFFFFF" stroke-width="1.33333" stroke-linejoin="round" stroke-miterlimit="10" fill="none" fill-rule="evenodd"/><path d="M280.752 522.658 1177.07 522.658" stroke="#FFFFFF" stroke-width="1.33333" stroke-linejoin="round" stroke-miterlimit="10" fill="none" fill-rule="evenodd"/><path d="M89.2043 560.065 1177.07 560.065" stroke="#FFFFFF" stroke-width="1.33333" stroke-linejoin="round" stroke-miterlimit="10" fill="none" fill-rule="evenodd"/><path d="M89.2043 597.473 1177.07 597.473" stroke="#FFFFFF" stroke-width="1.33333" stroke-linejoin="round" stroke-miterlimit="10" fill="none" fill-rule="evenodd"/><path d="M89.871 261.407 89.871 635.547" stroke="#FFFFFF" stroke-width="1.33333" stroke-linejoin="round" stroke-miterlimit="10" fill="none" fill-rule="evenodd"/><path d="M1176.41 261.407 1176.41 635.547" stroke="#FFFFFF" stroke-width="1.33333" stroke-linejoin="round" stroke-miterlimit="10" fill="none" fill-rule="evenodd"/><path d="M89.2043 262.073 1177.07 262.073" stroke="#FFFFFF" stroke-width="1.33333" stroke-linejoin="round" stroke-miterlimit="10" fill="none" fill-rule="evenodd"/><path d="M89.2043 634.881 1177.07 634.881" stroke="#FFFFFF" stroke-width="1.33333" stroke-linejoin="round" stroke-miterlimit="10" fill="none" fill-rule="evenodd"/><text fill="#FFFFFF" font-family="Microsoft YaHei,Microsoft YaHei_MSFontService,sans-serif" font-weight="400" font-size="24" transform="translate(137.645 302)">数据类型<tspan font-size="24" x="193.823" y="-1">关键字</tspan><tspan font-size="24" x="518.631" y="-1">取值范围</tspan></text><g clip-path="url(#clip1)"><text fill="#FFFFFF" font-family="Microsoft YaHei,Microsoft YaHei_MSFontService,sans-serif" font-weight="400" font-size="24" transform="translate(957.721 301)">内存占用（字节数）</text></g><text fill="#FFFFFF" font-family="Microsoft YaHei,Microsoft YaHei_MSFontService,sans-serif" font-weight="700" font-size="21" transform="translate(164.311 413)">整数<tspan fill="#262626" font-family="Consolas,Consolas_MSFontService,sans-serif" font-weight="400" font-size="17" x="129.902" y="-65">byte</tspan><tspan fill="#C00000" font-family="Consolas,Consolas_MSFontService,sans-serif" font-weight="400" font-size="17" x="302.003" y="-65">-</tspan><tspan fill="#C00000" font-family="Consolas,Consolas_MSFontService,sans-serif" font-weight="400" font-size="17" x="311.503" y="-65">128~127</tspan><tspan fill="#262626" font-weight="400" font-size="17" x="896.326" y="-64">1</tspan><tspan fill="#262626" font-family="Consolas,Consolas_MSFontService,sans-serif" font-weight="400" font-size="17" x="129.902" y="-28">short</tspan><tspan fill="#262626" font-family="Consolas,Consolas_MSFontService,sans-serif" font-weight="400" font-size="17" x="302.003" y="-28">-</tspan><tspan fill="#262626" font-family="Consolas,Consolas_MSFontService,sans-serif" font-weight="400" font-size="17" x="311.503" y="-28">32768~32767</tspan><tspan fill="#262626" font-weight="400" font-size="17" x="896.326" y="-27">2</tspan><tspan fill="#C00000" font-family="Consolas,Consolas_MSFontService,sans-serif" font-weight="400" font-size="17" x="129.902" y="10">int(</tspan><tspan fill="#C00000" font-weight="400" font-size="17" x="167.902" y="10">默认</tspan><tspan fill="#C00000" font-family="Consolas,Consolas_MSFontService,sans-serif" font-weight="400" font-size="17" x="202.569" y="10">)</tspan><tspan fill="#262626" font-family="Consolas,Consolas_MSFontService,sans-serif" font-weight="400" font-size="17" x="302.003" y="10">-</tspan><tspan fill="#262626" font-family="Consolas,Consolas_MSFontService,sans-serif" font-weight="400" font-size="17" x="311.503" y="10">2147483648~2147483647 </tspan><tspan fill="#C0504D" font-family="Consolas,Consolas_MSFontService,sans-serif" font-size="17" x="520.503" y="10">(10</tspan><tspan fill="#C0504D" font-size="17" x="549.003" y="10">位数</tspan><tspan fill="#C0504D" font-family="Consolas,Consolas_MSFontService,sans-serif" font-size="17" x="583.669" y="10">)</tspan><tspan fill="#262626" font-weight="400" font-size="17" x="896.326" y="11">4</tspan><tspan fill="#262626" font-family="Consolas,Consolas_MSFontService,sans-serif" font-weight="400" font-size="17" x="129.902" y="53">long</tspan><tspan fill="#262626" font-family="Consolas,Consolas_MSFontService,sans-serif" font-weight="400" font-size="17" x="302.003" y="53">-</tspan><tspan fill="#262626" font-family="Consolas,Consolas_MSFontService,sans-serif" font-weight="400" font-size="17" x="311.503" y="53">9223372036854775808 ~ 9223372036854775807 </tspan><tspan fill="#C0504D" font-family="Consolas,Consolas_MSFontService,sans-serif" font-size="17" x="710.503" y="53">(19</tspan><tspan fill="#C0504D" font-size="17" x="739.003" y="53">位数</tspan><tspan fill="#C0504D" font-family="Consolas,Consolas_MSFontService,sans-serif" font-size="17" x="773.669" y="53">)</tspan><tspan fill="#262626" font-weight="400" font-size="17" x="896.326" y="54">8</tspan><tspan font-size="21" x="-10.6667" y="118">浮点数</tspan><tspan fill="#262626" font-family="Consolas,Consolas_MSFontService,sans-serif" font-weight="400" font-size="17" x="129.902" y="97">float</tspan><tspan fill="#262626" font-family="Consolas,Consolas_MSFontService,sans-serif" font-weight="400" font-size="17" x="302.003" y="97">1.401298e</tspan><tspan fill="#262626" font-family="Consolas,Consolas_MSFontService,sans-serif" font-weight="400" font-size="17" x="387.503" y="97">-</tspan><tspan fill="#262626" font-family="Consolas,Consolas_MSFontService,sans-serif" font-weight="400" font-size="17" x="397.003" y="97">45</tspan><tspan fill="#262626" font-weight="400" font-size="17" x="416.003" y="97">到</tspan><tspan fill="#262626" font-family="Consolas,Consolas_MSFontService,sans-serif" font-weight="400" font-size="17" x="433.336" y="97">3.402823e+38 </tspan><tspan fill="#262626" font-weight="400" font-size="17" x="896.326" y="98">4</tspan></text><g clip-path="url(#clip2)"><text fill="#C00000" font-family="Consolas,Consolas_MSFontService,sans-serif" font-weight="400" font-size="17" transform="translate(291.018 547)">double</text></g><text fill="#C00000" font-family="Microsoft YaHei,Microsoft YaHei_MSFontService,sans-serif" font-weight="400" font-size="17" transform="translate(348.018 547)">（默认）<tspan fill="#262626" font-family="Consolas,Consolas_MSFontService,sans-serif" font-size="17" x="118.296" y="0">4.9000000e</tspan><tspan fill="#262626" font-family="Consolas,Consolas_MSFontService,sans-serif" font-size="17" x="213.296" y="0">-</tspan><tspan fill="#262626" font-family="Consolas,Consolas_MSFontService,sans-serif" font-size="17" x="222.796" y="0">324 </tspan><tspan fill="#262626" font-size="17" x="260.796" y="0">到</tspan><tspan fill="#262626" font-family="Consolas,Consolas_MSFontService,sans-serif" font-size="17" x="278.129" y="0">1.797693e+308</tspan><tspan fill="#262626" font-size="17" x="712.619" y="1">8</tspan><tspan fill="#FFFFFF" font-weight="700" font-size="21" x="-183.707" y="40">字符</tspan></text><g clip-path="url(#clip3)"><text fill="#C00000" font-family="Consolas,Consolas_MSFontService,sans-serif" font-weight="400" font-size="17" transform="translate(291.018 584)">char</text></g><text fill="#262626" font-family="Consolas,Consolas_MSFontService,sans-serif" font-weight="400" font-size="17" transform="translate(466.314 584)">0-65535<tspan font-family="Microsoft YaHei,Microsoft YaHei_MSFontService,sans-serif" font-size="17" x="594.323" y="1">2</tspan><tspan fill="#FFFFFF" font-family="Microsoft YaHei,Microsoft YaHei_MSFontService,sans-serif" font-weight="700" font-size="21" x="-302.003" y="40">布尔</tspan></text><g clip-path="url(#clip4)"><text fill="#C00000" font-family="Consolas,Consolas_MSFontService,sans-serif" font-weight="400" font-size="17" transform="translate(291.018 622)">boolean</text></g><text fill="#262626" font-family="Consolas,Consolas_MSFontService,sans-serif" font-weight="400" font-size="17" transform="translate(466.314 622)">true<tspan font-family="Microsoft YaHei,Microsoft YaHei_MSFontService,sans-serif" font-size="17" x="38" y="0">，</tspan><tspan font-size="17" x="55.3333" y="0">false</tspan><tspan font-family="Microsoft YaHei,Microsoft YaHei_MSFontService,sans-serif" font-size="17" x="594.323" y="1">1</tspan></text></g></svg>