<svg width="983" height="269" xmlns="http://www.w3.org/2000/svg" xmlns:xlink="http://www.w3.org/1999/xlink" overflow="hidden"><defs><clipPath id="clip0"><rect x="98" y="155" width="983" height="269"/></clipPath></defs><g clip-path="url(#clip0)" transform="translate(-98 -155)"><path d="M370 162.333C370 158.283 373.283 155 377.333 155L520.667 155C524.717 155 528 158.283 528 162.333L528 191.667C528 195.717 524.717 199 520.667 199L377.333 199C373.283 199 370 195.717 370 191.667Z" fill="#0070C0" fill-rule="evenodd"/><text fill="#FFFFFF" font-family="Microsoft YaHei,Microsoft YaHei_MSFontService,sans-serif" font-weight="700" font-size="21" transform="translate(392.372 185)">Throwable</text><path d="M98 266.167C98 262.209 101.209 259 105.167 259L249.833 259C253.791 259 257 262.209 257 266.167L257 294.833C257 298.791 253.791 302 249.833 302L105.167 302C101.209 302 98 298.791 98 294.833Z" fill="#0070C0" fill-rule="evenodd"/><text fill="#FFFFFF" font-family="Microsoft YaHei,Microsoft YaHei_MSFontService,sans-serif" font-weight="700" font-size="21" transform="translate(150.955 288)">Error</text><path d="M612 266.167C612 262.209 615.209 259 619.167 259L762.833 259C766.791 259 770 262.209 770 266.167L770 294.833C770 298.791 766.791 302 762.833 302L619.167 302C615.209 302 612 298.791 612 294.833Z" fill="#0070C0" fill-rule="evenodd"/><text fill="#FFFFFF" font-family="Microsoft YaHei,Microsoft YaHei_MSFontService,sans-serif" font-weight="700" font-size="21" transform="translate(638.45 288)">Exception</text><path d="M403 361.667C403 356.88 406.88 353 411.667 353L620.333 353C625.12 353 629 356.88 629 361.667L629 396.333C629 401.12 625.12 405 620.333 405L411.667 405C406.88 405 403 401.12 403 396.333Z" fill="#0070C0" fill-rule="evenodd"/><text fill="#FFFFFF" font-family="Microsoft YaHei,Microsoft YaHei_MSFontService,sans-serif" font-weight="700" font-size="21" transform="translate(417.955 375)">RuntimeException<tspan font-size="21" x="55.3933" y="25">及其子类</tspan></text><path d="M768 360C768 355.03 772.03 351 777 351L1032 351C1036.97 351 1041 355.03 1041 360L1041 396C1041 400.97 1036.97 405 1032 405L777 405C772.03 405 768 400.97 768 396Z" fill="#0070C0" fill-rule="evenodd"/><text fill="#FFFFFF" font-family="Microsoft YaHei,Microsoft YaHei_MSFontService,sans-serif" font-weight="700" font-size="21" transform="translate(784.933 374)">除<tspan font-size="21" x="21.3333" y="0">RuntimeException</tspan><tspan font-size="21" x="217.46" y="0">之</tspan><tspan font-size="21" x="55.3933" y="25">外所有的异常</tspan></text><path d="M0-0.666667 30-0.666667C30.3682-0.666667 30.6667-0.36819 30.6667 0L30.6667 242 30 241.333 58.68 241.333 58.68 242.667 30 242.667C29.6318 242.667 29.3333 242.368 29.3333 242L29.3333 0 30 0.666667 0 0.666667ZM51.0159 236.758 60.0031 242 51.0159 247.243C50.6979 247.428 50.2897 247.321 50.1041 247.003 49.9186 246.685 50.026 246.276 50.3441 246.091L58.3441 241.424 58.3441 242.576 50.3441 237.909C50.026 237.724 49.9186 237.316 50.1041 236.998 50.2897 236.679 50.6979 236.572 51.0159 236.758Z" fill="#0070C0" transform="matrix(1.83697e-16 1 1 -1.83697e-16 449.5 199.5)"/><path d="M449.722 199.5 449.722 229.5C449.722 229.868 449.424 230.167 449.056 230.167L177.5 230.167 178.167 229.5 178.167 258.18 176.833 258.18 176.833 229.5C176.833 229.132 177.132 228.834 177.5 228.834L449.056 228.834 448.389 229.5 448.389 199.5ZM182.743 250.516 177.5 259.503 172.258 250.516C172.072 250.198 172.179 249.79 172.497 249.604 172.815 249.419 173.224 249.526 173.409 249.844L178.076 257.844 176.924 257.844 181.591 249.844C181.776 249.526 182.185 249.419 182.503 249.604 182.821 249.79 182.928 250.198 182.743 250.516Z" fill="#0070C0"/><path d="M0-0.666667 24.7779-0.666667C25.1461-0.666667 25.4446-0.36819 25.4446 0L25.4446 213.4 24.7779 212.733 48.2356 212.733 48.2356 214.067 24.7779 214.067C24.4097 214.067 24.1112 213.768 24.1112 213.4L24.1112 0 24.7779 0.666667 0 0.666667ZM40.5715 208.157 49.5587 213.4 40.5715 218.642C40.2535 218.828 39.8453 218.721 39.6597 218.402 39.4742 218.084 39.5816 217.676 39.8997 217.491L47.8997 212.824 47.8997 213.976 39.8997 209.309C39.5816 209.124 39.4742 208.715 39.6597 208.397 39.8453 208.079 40.2535 207.972 40.5715 208.157Z" fill="#0070C0" transform="matrix(1.83697e-16 1 1 -1.83697e-16 691.5 302.5)"/><path d="M692.078 302.5 692.078 328.167C692.078 328.535 691.779 328.833 691.411 328.833L516.5 328.833 517.167 328.167 517.167 352.513 515.833 352.513 515.833 328.167C515.833 327.799 516.132 327.5 516.5 327.5L691.411 327.5 690.745 328.167 690.745 302.5ZM521.743 344.849 516.5 353.836 511.258 344.849C511.072 344.531 511.179 344.123 511.497 343.938 511.815 343.752 512.224 343.859 512.409 344.177L517.076 352.177 515.924 352.177 520.591 344.177C520.776 343.859 521.185 343.752 521.503 343.938 521.821 344.123 521.928 344.531 521.743 344.849Z" fill="#0070C0"/><path d="M379 392.666 379 386.666 381 386.666 381 392.666ZM379 384.666 379 378.666 381 378.666 381 384.666ZM379 376.666 379 370.666 381 370.666 381 376.666ZM379 368.666 379 362.666 381 362.666 381 368.666ZM379 360.666 379 354.666 381 354.666 381 360.666ZM379 352.666 379 346.666 381 346.666 381 352.666ZM379 344.666 379 338.666 381 338.666 381 344.666ZM379 336.666 379 330.666 381 330.666 381 336.666ZM379 328.666 379 322.666 381 322.666 381 328.666ZM379 320.666 379 314.666 381 314.666 381 320.666ZM379 312.666 379 306.666 381 306.666 381 312.666ZM379 304.666 379 298.666 381 298.666 381 304.666ZM379 296.666 379 290.666 381 290.666 381 296.666ZM379 288.666 379 282.666 381 282.666 381 288.666ZM379 280.666 379 275.334 379.076 274.565 381.065 274.775 381 275.334 381 280.666ZM379.287 272.576 379.631 269.332C379.637 269.268 379.65 269.205 379.669 269.144L380.472 266.526 382.384 267.113 381.581 269.731 381.619 269.543 381.276 272.787ZM381.059 264.614 381.356 263.644C381.376 263.582 381.401 263.521 381.432 263.464L383.792 259.073 385.553 260.02 383.193 264.411 383.269 264.231 382.971 265.201ZM385.077 257.292 387.86 253.982C387.897 253.937 387.937 253.897 387.982 253.86L389.264 252.782 390.551 254.313 389.268 255.39 389.39 255.268 386.608 258.579ZM390.795 251.495 392.294 250.235C392.347 250.19 392.404 250.152 392.464 250.119L396.024 248.206 396.971 249.968 393.411 251.881 393.581 251.765 392.082 253.026ZM397.993 247.249 403.144 245.669C403.206 245.65 403.269 245.637 403.333 245.63L403.941 245.566 404.151 247.555 403.542 247.62 403.731 247.581 398.58 249.162ZM405.93 245.357 409.27 245.005 412.016 245 412.016 247 409.48 246.995 406.14 247.346ZM414.016 245 420.016 245 420.016 247 414.016 247ZM422.016 245 428.016 245 428.016 247 422.016 247ZM430.016 245 436.016 245 436.016 247 430.016 247ZM438.016 245 444.016 245 444.016 247 438.016 247ZM446.016 245 452.016 245 452.016 247 446.016 247ZM454.016 245 460.016 245 460.016 247 454.016 247ZM462.016 245 468.016 245 468.016 247 462.016 247ZM470.016 245 476.016 245 476.016 247 470.016 247ZM478.016 245 484.016 245 484.016 247 478.016 247ZM486.016 245 492.016 245 492.016 247 486.016 247ZM494.016 245 500.016 245 500.016 247 494.016 247ZM502.016 245 508.016 245 508.016 247 502.016 247ZM510.016 245 516.016 245 516.016 247 510.016 247ZM518.016 245 524.016 245 524.016 247 518.016 247ZM526.016 245 532.016 245 532.016 247 526.016 247ZM534.016 245 540.016 245 540.016 247 534.016 247ZM542.016 245 548.016 245 548.016 247 542.016 247ZM550.016 245 556.016 245 556.016 247 550.016 247ZM558.016 245 564.016 245 564.016 247 558.016 247ZM566.016 245 572.016 245 572.016 247 566.016 247ZM574.016 245 580.016 245 580.016 247 574.016 247ZM582.016 245 588.016 245 588.016 247 582.016 247ZM590.016 245 596.016 245 596.016 247 590.016 247ZM598.016 245 604.016 245 604.016 247 598.016 247ZM606.016 245 612.016 245 612.016 247 606.016 247ZM614.016 245 620.016 245 620.016 247 614.016 247ZM622.016 245 628.016 245 628.016 247 622.016 247ZM630.016 245 636.016 245 636.016 247 630.016 247ZM638.016 245 644.016 245 644.016 247 638.016 247ZM646.016 245 652.016 245 652.016 247 646.016 247ZM654.016 245 660.016 245 660.016 247 654.016 247ZM662.016 245 668.016 245 668.016 247 662.016 247ZM670.016 245 676.016 245 676.016 247 670.016 247ZM678.016 245 684.016 245 684.016 247 678.016 247ZM686.016 245 692.016 245 692.016 247 686.016 247ZM694.016 245 700.016 245 700.016 247 694.016 247ZM702.016 245 708.016 245 708.016 247 702.016 247ZM710.016 245 716.016 245 716.016 247 710.016 247ZM718.016 245 724.016 245 724.016 247 718.016 247ZM726.016 245 732.016 245 732.016 247 726.016 247ZM734.016 245 740.016 245 740.016 247 734.016 247ZM742.016 245 748.016 245 748.016 247 742.016 247ZM750.016 245 756.016 245 756.016 247 750.016 247ZM758.016 245 764.016 245 764.016 247 758.016 247ZM766.016 245 772.016 245 772.016 247 766.016 247ZM774.016 245 780.016 245 780.016 247 774.016 247ZM782.016 245 788.016 245 788.016 247 782.016 247ZM790.016 245 796.016 245 796.016 247 790.016 247ZM798.016 245 804.016 245 804.016 247 798.016 247ZM806.016 245 812.016 245 812.016 247 806.016 247ZM814.016 245 820.016 245 820.016 247 814.016 247ZM822.016 245 828.016 245 828.016 247 822.016 247ZM830.016 245 836.016 245 836.016 247 830.016 247ZM838.016 245 844.016 245 844.016 247 838.016 247ZM846.016 245 852.016 245 852.016 247 846.016 247ZM854.016 245 860.016 245 860.016 247 854.016 247ZM862.016 245 868.016 245 868.016 247 862.016 247ZM870.016 245 876.016 245 876.016 247 870.016 247ZM878.016 245 884.016 245 884.016 247 878.016 247ZM886.016 245 892.016 245 892.016 247 886.016 247ZM894.016 245 900.016 245 900.016 247 894.016 247ZM902.016 245 908.016 245 908.016 247 902.016 247ZM910.016 245 916.016 245 916.016 247 910.016 247ZM918.016 245 924.016 245 924.016 247 918.016 247ZM926.016 245 932.016 245 932.016 247 926.016 247ZM934.016 245 940.016 245 940.016 247 934.016 247ZM942.016 245 948.016 245 948.016 247 942.016 247ZM950.016 245 956.016 245 956.016 247 950.016 247ZM958.016 245 964.016 245 964.016 247 958.016 247ZM966.016 245 972.016 245 972.016 247 966.016 247ZM974.016 245 980.016 245 980.016 247 974.016 247ZM982.016 245 988.016 245 988.016 247 982.016 247ZM990.016 245 996.016 245 996.016 247 990.016 247ZM998.016 245 1004.02 245 1004.02 247 998.016 247ZM1006.02 245 1012.02 245 1012.02 247 1006.02 247ZM1014.02 245 1020.02 245 1020.02 247 1014.02 247ZM1022.02 245 1028.02 245 1028.02 247 1022.02 247ZM1030.02 245 1036.02 245 1036.02 247 1030.02 247ZM1038.02 245 1044.02 245 1044.02 247 1038.02 247ZM1046.02 245 1049.69 245 1052.11 245.249 1051.9 247.238 1049.69 247 1046.02 247ZM1054.1 245.459 1055.73 245.63C1055.79 245.637 1055.86 245.65 1055.92 245.669L1060.09 246.947 1059.5 248.859 1055.33 247.581 1055.52 247.62 1053.89 247.448ZM1062.14 247.724 1066.54 250.122C1066.6 250.153 1066.65 250.189 1066.7 250.23L1067.46 250.858 1066.18 252.398 1065.42 251.77 1065.58 251.878 1061.18 249.48ZM1069 252.134 1071.08 253.855C1071.12 253.895 1071.17 253.94 1071.21 253.988L1073.31 256.534 1071.77 257.808 1069.67 255.262 1069.8 255.395 1067.72 253.674ZM1074.59 258.076 1074.77 258.301C1074.81 258.351 1074.85 258.406 1074.88 258.464L1077.57 263.464C1077.6 263.522 1077.62 263.582 1077.64 263.645L1077.65 263.675 1075.74 264.261 1075.73 264.23 1075.81 264.411 1073.12 259.411 1073.23 259.574 1073.04 259.35ZM1078.24 265.587 1079.33 269.144C1079.35 269.206 1079.36 269.269 1079.37 269.333L1079.61 271.599 1077.62 271.809 1077.38 269.542 1077.42 269.731 1076.33 266.174ZM1079.82 273.588 1079.99 275.27 1080 279.684 1078 279.684 1078.01 275.48 1077.83 273.798ZM1080 281.684 1080 287.684 1078 287.684 1078 281.684ZM1080 289.684 1080 295.684 1078 295.684 1078 289.684ZM1080 297.684 1080 303.684 1078 303.684 1078 297.684ZM1080 305.684 1080 311.684 1078 311.684 1078 305.684ZM1080 313.684 1080 319.684 1078 319.684 1078 313.684ZM1080 321.684 1080 327.684 1078 327.684 1078 321.684ZM1080 329.684 1080 335.684 1078 335.684 1078 329.684ZM1080 337.684 1080 343.684 1078 343.684 1078 337.684ZM1080 345.684 1080 351.684 1078 351.684 1078 345.684ZM1080 353.684 1080 359.684 1078 359.684 1078 353.684ZM1080 361.684 1080 367.684 1078 367.684 1078 361.684ZM1080 369.684 1080 375.684 1078 375.684 1078 369.684ZM1080 377.684 1080 383.684 1078 383.684 1078 377.684ZM1080 385.684 1080 391.684 1078 391.684 1078 385.684ZM1079.89 393.783 1079.37 398.73C1079.36 398.794 1079.35 398.857 1079.33 398.918L1079.03 399.899 1077.12 399.313 1077.42 398.332 1077.38 398.52 1077.9 393.574ZM1078.44 401.811 1077.64 404.418C1077.62 404.482 1077.6 404.544 1077.57 404.603L1076 407.478 1074.24 406.522 1075.81 403.647 1075.73 403.832 1076.53 401.225ZM1075.04 409.235 1074.88 409.541C1074.85 409.595 1074.81 409.646 1074.78 409.694L1071.21 414.069C1071.17 414.122 1071.12 414.171 1071.07 414.214L1071.06 414.22 1069.8 412.667 1069.81 412.661 1069.66 412.806 1073.22 408.431 1073.12 408.584 1073.29 408.278ZM1069.51 415.482 1066.69 417.775C1066.65 417.814 1066.59 417.849 1066.54 417.878L1064.46 419.01 1063.5 417.254 1065.58 416.122 1065.43 416.225 1068.25 413.931ZM1062.7 419.966 1061.6 420.566C1061.54 420.598 1061.48 420.624 1061.42 420.643L1056.88 422.036 1056.29 420.124 1060.83 418.731 1060.65 418.809 1061.75 418.21ZM1054.74 422.473 1049.79 422.995 1048.66 423 1048.66 421 1049.58 421.005 1054.53 420.484ZM1046.66 423 1040.66 423 1040.66 421 1046.66 421ZM1038.66 423 1032.66 423 1032.66 421 1038.66 421ZM1030.66 423 1024.66 423 1024.66 421 1030.66 421ZM1022.66 423 1016.66 423 1016.66 421 1022.66 421ZM1014.66 423 1008.66 423 1008.66 421 1014.66 421ZM1006.66 423 1000.66 423 1000.66 421 1006.66 421ZM998.665 423 992.665 423 992.665 421 998.665 421ZM990.665 423 984.665 423 984.665 421 990.665 421ZM982.665 423 976.665 423 976.665 421 982.665 421ZM974.665 423 968.665 423 968.665 421 974.665 421ZM966.665 423 960.665 423 960.665 421 966.665 421ZM958.665 423 952.665 423 952.665 421 958.665 421ZM950.665 423 944.665 423 944.665 421 950.665 421ZM942.665 423 936.665 423 936.665 421 942.665 421ZM934.665 423 928.665 423 928.665 421 934.665 421ZM926.665 423 920.665 423 920.665 421 926.665 421ZM918.665 423 912.665 423 912.665 421 918.665 421ZM910.665 423 904.665 423 904.665 421 910.665 421ZM902.665 423 896.665 423 896.665 421 902.665 421ZM894.665 423 888.665 423 888.665 421 894.665 421ZM886.665 423 880.665 423 880.665 421 886.665 421ZM878.665 423 872.665 423 872.665 421 878.665 421ZM870.665 423 864.665 423 864.665 421 870.665 421ZM862.665 423 856.665 423 856.665 421 862.665 421ZM854.665 423 848.665 423 848.665 421 854.665 421ZM846.665 423 840.665 423 840.665 421 846.665 421ZM838.665 423 832.665 423 832.665 421 838.665 421ZM830.665 423 824.665 423 824.665 421 830.665 421ZM822.665 423 816.665 423 816.665 421 822.665 421ZM814.665 423 808.665 423 808.665 421 814.665 421ZM806.665 423 800.665 423 800.665 421 806.665 421ZM798.665 423 792.665 423 792.665 421 798.665 421ZM790.665 423 784.665 423 784.665 421 790.665 421ZM782.665 423 776.665 423 776.665 421 782.665 421ZM774.665 423 768.665 423 768.665 421 774.665 421ZM766.665 423 760.665 423 760.665 421 766.665 421ZM758.665 423 752.665 423 752.665 421 758.665 421ZM750.665 423 744.665 423 744.665 421 750.665 421ZM742.665 423 736.665 423 736.665 421 742.665 421ZM734.665 423 728.665 423 728.665 421 734.665 421ZM726.665 423 720.665 423 720.665 421 726.665 421ZM718.665 423 712.665 423 712.665 421 718.665 421ZM710.665 423 704.665 423 704.665 421 710.665 421ZM702.665 423 696.665 423 696.665 421 702.665 421ZM694.665 423 688.665 423 688.665 421 694.665 421ZM686.665 423 680.665 423 680.665 421 686.665 421ZM678.665 423 672.665 423 672.665 421 678.665 421ZM670.665 423 664.665 423 664.665 421 670.665 421ZM662.665 423 656.665 423 656.665 421 662.665 421ZM654.665 423 648.665 423 648.665 421 654.665 421ZM646.665 423 640.665 423 640.665 421 646.665 421ZM638.665 423 632.665 423 632.665 421 638.665 421ZM630.665 423 624.665 423 624.665 421 630.665 421ZM622.665 423 616.665 423 616.665 421 622.665 421ZM614.665 423 608.665 423 608.665 421 614.665 421ZM606.665 423 600.665 423 600.665 421 606.665 421ZM598.665 423 592.665 423 592.665 421 598.665 421ZM590.665 423 584.665 423 584.665 421 590.665 421ZM582.665 423 576.665 423 576.665 421 582.665 421ZM574.665 423 568.665 423 568.665 421 574.665 421ZM566.665 423 560.665 423 560.665 421 566.665 421ZM558.665 423 552.665 423 552.665 421 558.665 421ZM550.665 423 544.665 423 544.665 421 550.665 421ZM542.665 423 536.665 423 536.665 421 542.665 421ZM534.665 423 528.665 423 528.665 421 534.665 421ZM526.665 423 520.665 423 520.665 421 526.665 421ZM518.665 423 512.665 423 512.665 421 518.665 421ZM510.665 423 504.665 423 504.665 421 510.665 421ZM502.665 423 496.665 423 496.665 421 502.665 421ZM494.665 423 488.665 423 488.665 421 494.665 421ZM486.665 423 480.665 423 480.665 421 486.665 421ZM478.665 423 472.665 423 472.665 421 478.665 421ZM470.665 423 464.665 423 464.665 421 470.665 421ZM462.665 423 456.665 423 456.665 421 462.665 421ZM454.665 423 448.665 423 448.665 421 454.665 421ZM446.665 423 440.665 423 440.665 421 446.665 421ZM438.665 423 432.665 423 432.665 421 438.665 421ZM430.665 423 424.665 423 424.665 421 430.665 421ZM422.665 423 416.665 423 416.665 421 422.665 421ZM414.665 423 409.375 423 408.564 422.92 408.773 420.931 409.375 421 414.665 421ZM406.575 422.711 403.333 422.37C403.269 422.363 403.206 422.35 403.144 422.331L400.525 421.527 401.111 419.615 403.731 420.419 403.542 420.38 406.784 420.722ZM398.613 420.941 397.644 420.643C397.582 420.624 397.521 420.599 397.464 420.568L393.072 418.207 394.018 416.446 398.411 418.807 398.231 418.731 399.199 419.029ZM391.29 416.936 387.988 414.208C387.94 414.168 387.895 414.124 387.855 414.076L386.76 412.754 388.3 411.478 389.395 412.799 389.262 412.667 392.564 415.395ZM385.484 411.214 384.23 409.701C384.189 409.651 384.153 409.597 384.122 409.541L382.193 405.997 383.949 405.04 385.878 408.584 385.77 408.424 387.024 409.938ZM381.235 404.023 379.669 398.918C379.65 398.857 379.637 398.793 379.63 398.729L379.562 398.073 381.551 397.864 381.62 398.521 381.581 398.332 383.147 403.436ZM379.353 396.083 379.005 392.771 380.995 392.562 381.342 395.875Z" fill="#FF0000"/></g></svg>