<svg width="951" height="276" xmlns="http://www.w3.org/2000/svg" xmlns:xlink="http://www.w3.org/1999/xlink" overflow="hidden"><defs><clipPath id="clip0"><rect x="70" y="404" width="951" height="276"/></clipPath></defs><g clip-path="url(#clip0)" transform="translate(-70 -404)"><path d="M71.295 405.527 255.75 405.527 255.75 487.988 71.295 487.988Z" fill="#558ED5" fill-rule="evenodd"/><path d="M255.75 405.527 440.321 405.527 440.321 487.988 255.75 487.988Z" fill="#558ED5" fill-rule="evenodd"/><path d="M440.321 405.527 624.891 405.527 624.891 487.988 440.321 487.988Z" fill="#558ED5" fill-rule="evenodd"/><path d="M624.891 405.527 820.997 405.527 820.997 487.988 624.891 487.988Z" fill="#558ED5" fill-rule="evenodd"/><path d="M820.997 405.527 1017.1 405.527 1017.1 487.988 820.997 487.988Z" fill="#558ED5" fill-rule="evenodd"/><path d="M71.295 487.988 255.75 487.988 255.75 533.937 71.295 533.937Z" fill="#EBF5FF" fill-rule="evenodd"/><path d="M255.75 487.988 440.321 487.988 440.321 533.937 255.75 533.937Z" fill="#EBF5FF" fill-rule="evenodd"/><path d="M440.321 487.988 624.891 487.988 624.891 533.937 440.321 533.937Z" fill="#EBF5FF" fill-rule="evenodd"/><path d="M624.891 487.988 820.997 487.988 820.997 533.937 624.891 533.937Z" fill="#EBF5FF" fill-rule="evenodd"/><path d="M820.997 487.988 1017.1 487.988 1017.1 533.937 820.997 533.937Z" fill="#EBF5FF" fill-rule="evenodd"/><path d="M71.295 533.937 255.75 533.937 255.75 581.889 71.295 581.889Z" fill="#B3D9FF" fill-rule="evenodd"/><path d="M255.75 533.937 440.321 533.937 440.321 581.889 255.75 581.889Z" fill="#B3D9FF" fill-rule="evenodd"/><path d="M440.321 533.937 624.891 533.937 624.891 581.889 440.321 581.889Z" fill="#B3D9FF" fill-rule="evenodd"/><path d="M624.891 533.937 820.997 533.937 820.997 581.889 624.891 581.889Z" fill="#B3D9FF" fill-rule="evenodd"/><path d="M820.997 533.937 1017.1 533.937 1017.1 581.889 820.997 581.889Z" fill="#B3D9FF" fill-rule="evenodd"/><path d="M71.295 581.889 255.75 581.889 255.75 629.841 71.295 629.841Z" fill="#EBF5FF" fill-rule="evenodd"/><path d="M255.75 581.889 440.321 581.889 440.321 629.841 255.75 629.841Z" fill="#EBF5FF" fill-rule="evenodd"/><path d="M440.321 581.889 624.891 581.889 624.891 629.841 440.321 629.841Z" fill="#EBF5FF" fill-rule="evenodd"/><path d="M624.891 581.889 820.997 581.889 820.997 629.841 624.891 629.841Z" fill="#EBF5FF" fill-rule="evenodd"/><path d="M820.997 581.889 1017.1 581.889 1017.1 629.841 820.997 629.841Z" fill="#EBF5FF" fill-rule="evenodd"/><path d="M71.295 629.841 255.75 629.841 255.75 677.793 71.295 677.793Z" fill="#B3D9FF" fill-rule="evenodd"/><path d="M255.75 629.841 440.321 629.841 440.321 677.793 255.75 677.793Z" fill="#B3D9FF" fill-rule="evenodd"/><path d="M440.321 629.841 624.891 629.841 624.891 677.793 440.321 677.793Z" fill="#B3D9FF" fill-rule="evenodd"/><path d="M624.891 629.841 820.997 629.841 820.997 677.793 624.891 677.793Z" fill="#B3D9FF" fill-rule="evenodd"/><path d="M820.997 629.841 1017.1 629.841 1017.1 677.793 820.997 677.793Z" fill="#B3D9FF" fill-rule="evenodd"/><path d="M255.75 404.86 255.75 678.46" stroke="#FFFFFF" stroke-width="1.33333" stroke-linejoin="round" stroke-miterlimit="10" fill="none" fill-rule="evenodd"/><path d="M440.321 404.86 440.321 678.46" stroke="#FFFFFF" stroke-width="1.33333" stroke-linejoin="round" stroke-miterlimit="10" fill="none" fill-rule="evenodd"/><path d="M624.891 404.86 624.891 678.46" stroke="#FFFFFF" stroke-width="1.33333" stroke-linejoin="round" stroke-miterlimit="10" fill="none" fill-rule="evenodd"/><path d="M820.997 404.86 820.997 678.46" stroke="#FFFFFF" stroke-width="1.33333" stroke-linejoin="round" stroke-miterlimit="10" fill="none" fill-rule="evenodd"/><path d="M70.6283 487.988 1017.77 487.988" stroke="#FFFFFF" stroke-width="4" stroke-linejoin="round" stroke-miterlimit="10" fill="none" fill-rule="evenodd"/><path d="M70.6283 533.937 1017.77 533.937" stroke="#FFFFFF" stroke-width="1.33333" stroke-linejoin="round" stroke-miterlimit="10" fill="none" fill-rule="evenodd"/><path d="M70.6283 581.889 1017.77 581.889" stroke="#FFFFFF" stroke-width="1.33333" stroke-linejoin="round" stroke-miterlimit="10" fill="none" fill-rule="evenodd"/><path d="M70.6283 629.841 1017.77 629.841" stroke="#FFFFFF" stroke-width="1.33333" stroke-linejoin="round" stroke-miterlimit="10" fill="none" fill-rule="evenodd"/><path d="M71.295 404.86 71.295 678.46" stroke="#FFFFFF" stroke-width="1.33333" stroke-linejoin="round" stroke-miterlimit="10" fill="none" fill-rule="evenodd"/><path d="M1017.1 404.86 1017.1 678.46" stroke="#FFFFFF" stroke-width="1.33333" stroke-linejoin="round" stroke-miterlimit="10" fill="none" fill-rule="evenodd"/><path d="M70.6283 405.527 1017.77 405.527" stroke="#FFFFFF" stroke-width="1.33333" stroke-linejoin="round" stroke-miterlimit="10" fill="none" fill-rule="evenodd"/><path d="M70.6283 677.793 1017.77 677.793" stroke="#FFFFFF" stroke-width="1.33333" stroke-linejoin="round" stroke-miterlimit="10" fill="none" fill-rule="evenodd"/><text fill="#FFFFFF" font-family="Microsoft YaHei,Microsoft YaHei_MSFontService,sans-serif" font-weight="700" font-size="16" transform="translate(139.523 457)">修饰符<tspan font-size="16" x="166.096" y="0">同一</tspan><tspan font-size="16" x="202.929" y="0">个类中</tspan><tspan font-size="16" x="353.083" y="-16">同一个包中</tspan><tspan font-size="16" x="369.083" y="16">其他类</tspan><tspan font-size="16" x="543.421" y="-16">不同包下的</tspan><tspan font-size="16" x="567.421" y="16">子类</tspan><tspan font-size="16" x="739.528" y="-16">不同包下的</tspan><tspan font-size="16" x="755.528" y="16">无关类</tspan><tspan fill="#262626" font-weight="400" font-size="16" x="-2.19339" y="59">private</tspan><tspan fill="#262626" font-weight="400" font-size="15" x="203.346" y="59">√</tspan><tspan fill="#262626" font-weight="400" font-size="16" x="8" y="106">缺省</tspan><tspan fill="#262626" font-weight="400" font-size="15" x="203.346" y="106">√</tspan><tspan fill="#262626" font-weight="400" font-size="15" x="387.916" y="106">√</tspan><tspan fill="#262626" font-weight="400" font-size="16" x="-13.0867" y="154">protected</tspan><tspan fill="#262626" font-weight="400" font-size="15" x="203.346" y="154">√</tspan><tspan fill="#262626" font-weight="400" font-size="15" x="387.916" y="154">√</tspan><tspan fill="#262626" font-weight="400" font-size="15" x="578.255" y="154">√</tspan><tspan fill="#262626" font-weight="400" font-size="16" x="0.583298" y="202">public</tspan><tspan fill="#262626" font-weight="400" font-size="15" x="203.346" y="202">√</tspan><tspan fill="#262626" font-weight="400" font-size="15" x="387.916" y="202">√</tspan><tspan fill="#262626" font-weight="400" font-size="15" x="578.255" y="202">√</tspan><tspan fill="#262626" font-weight="400" font-size="15" x="774.361" y="202">√</tspan></text></g></svg>