<svg width="1172" height="221" xmlns="http://www.w3.org/2000/svg" xmlns:xlink="http://www.w3.org/1999/xlink" overflow="hidden"><defs><clipPath id="clip0"><rect x="120" y="183" width="1172" height="221"/></clipPath></defs><g clip-path="url(#clip0)" transform="translate(-120 -183)"><rect x="122.5" y="185.5" width="508" height="77" stroke="#000000" stroke-linejoin="round" stroke-miterlimit="10" fill="#FFFFE4"/><text fill="#0033B3" font-family="Consolas,Consolas_MSFontService,sans-serif" font-weight="400" font-size="19" transform="translate(131.978 208)">enum <tspan fill="#000000" font-size="19" x="51.6667" y="0">Season</tspan><tspan fill="#080808" font-size="19" x="113.667" y="0">{</tspan><tspan fill="#871094" font-style="italic" font-size="19" x="41.3333" y="22">SPRING </tspan><tspan fill="#080808" font-size="19" x="113.667" y="22">, </tspan><tspan fill="#871094" font-style="italic" font-size="19" x="134.333" y="22">SUMMER </tspan><tspan fill="#080808" font-size="19" x="206.667" y="22">, </tspan><tspan fill="#871094" font-style="italic" font-size="19" x="227.333" y="22">AUTUMN </tspan><tspan fill="#080808" font-size="19" x="299.667" y="22">, </tspan><tspan fill="#871094" font-style="italic" font-size="19" x="320.333" y="22">WINTER</tspan><tspan fill="#080808" font-size="19" x="382.333" y="22">;</tspan><tspan fill="#080808" font-size="19" x="0" y="44">}</tspan></text><rect x="651.5" y="185.5" width="640" height="213" stroke="#000000" stroke-linejoin="round" stroke-miterlimit="10" fill="#FFFFE4"/><text fill="#080808" font-family="Consolas,Consolas_MSFontService,sans-serif" font-weight="400" font-size="19" transform="translate(660.222 208)">Compiled from <tspan fill="#067D17" font-size="19" x="144.667" y="0">"Season.java"</tspan><tspan fill="#0033B3" font-size="19" x="0" y="22">public final class </tspan><tspan fill="#000000" font-size="19" x="196.333" y="22">Season </tspan><tspan fill="#0033B3" font-size="19" x="268.667" y="22">extends </tspan><tspan fill="#000000" font-size="19" x="351.333" y="22">java.lang.Enum</tspan>&lt;<tspan fill="#000000" font-size="19" x="506.333" y="22">Season</tspan><tspan font-size="19" x="568.333" y="22">&gt; {</tspan><tspan fill="#0033B3" font-size="19" x="41.3334" y="44">public static final </tspan><tspan fill="#000000" font-size="19" x="248" y="44">Season </tspan><tspan fill="#871094" font-style="italic" font-size="19" x="320.333" y="44">SPRING </tspan><tspan font-size="19" x="392.667" y="44">= </tspan><tspan fill="#0033B3" font-size="19" x="413.333" y="44">new </tspan><tspan font-size="19" x="454.667" y="44">Season();</tspan><tspan fill="#0033B3" font-size="19" x="41.3334" y="67">public static final </tspan><tspan fill="#000000" font-size="19" x="248" y="67">Season </tspan><tspan fill="#871094" font-style="italic" font-size="19" x="320.333" y="67">SUMMER </tspan><tspan font-size="19" x="392.667" y="67">= </tspan><tspan fill="#0033B3" font-size="19" x="413.333" y="67">new </tspan><tspan font-size="19" x="454.667" y="67">Season();</tspan><tspan fill="#0033B3" font-size="19" x="41.3334" y="89">public static final </tspan><tspan fill="#000000" font-size="19" x="248" y="89">Season </tspan><tspan fill="#871094" font-style="italic" font-size="19" x="320.333" y="89">AUTUMN </tspan><tspan font-size="19" x="392.667" y="89">= </tspan><tspan fill="#0033B3" font-size="19" x="413.333" y="89">new </tspan><tspan font-size="19" x="454.667" y="89">Season();</tspan><tspan fill="#0033B3" font-size="19" x="41.3334" y="112">public static final </tspan><tspan fill="#000000" font-size="19" x="248" y="112">Season </tspan><tspan fill="#871094" font-style="italic" font-size="19" x="320.333" y="112">WINTER </tspan><tspan font-size="19" x="392.667" y="112">= </tspan><tspan fill="#0033B3" font-size="19" x="413.333" y="112">new </tspan><tspan font-size="19" x="454.667" y="112">Season();</tspan><tspan fill="#0033B3" font-size="19" x="41.3334" y="134">public static </tspan><tspan fill="#000000" font-size="19" x="186" y="134">Season</tspan>[] <tspan fill="#00627A" font-size="19" x="279" y="134">values</tspan>();<tspan fill="#0033B3" font-size="19" x="41.3334" y="156">public static </tspan><tspan fill="#000000" font-size="19" x="186" y="156">Season </tspan><tspan fill="#00627A" font-size="19" x="258.333" y="156">valueOf</tspan><tspan font-size="19" x="330.667" y="156">(</tspan><tspan fill="#000000" font-size="19" x="341" y="156">java.lang.String</tspan><tspan font-size="19" x="506.333" y="156">);</tspan><tspan font-size="19" x="0" y="179">}</tspan></text></g></svg>