<svg width="898" height="172" xmlns="http://www.w3.org/2000/svg" xmlns:xlink="http://www.w3.org/1999/xlink" overflow="hidden"><defs><clipPath id="clip0"><rect x="75" y="165" width="898" height="172"/></clipPath></defs><g clip-path="url(#clip0)" transform="translate(-75 -165)"><path d="M76.8001 166.199 228.49 166.199 228.49 228.189 76.8001 228.189Z" fill="#AD2B26" fill-rule="evenodd"/><path d="M228.49 166.199 381.339 166.199 381.339 228.189 228.49 228.189Z" fill="#AD2B26" fill-rule="evenodd"/><path d="M381.339 166.199 969.256 166.199 969.256 228.189 381.339 228.189Z" fill="#AD2B26" fill-rule="evenodd"/><path d="M76.8001 228.189 228.49 228.189 228.49 281.685 76.8001 281.685Z" fill="#F2F2F2" fill-rule="evenodd"/><path d="M228.49 228.189 381.339 228.189 381.339 281.685 228.49 281.685Z" fill="#F2F2F2" fill-rule="evenodd"/><path d="M381.339 228.189 969.256 228.189 969.256 281.685 381.339 281.685Z" fill="#F2F2F2" fill-rule="evenodd"/><path d="M76.8001 281.685 228.49 281.685 228.49 335.18 76.8001 335.18Z" fill="#D9D9D9" fill-rule="evenodd"/><path d="M228.49 281.685 381.339 281.685 381.339 335.18 228.49 335.18Z" fill="#D9D9D9" fill-rule="evenodd"/><path d="M381.339 281.685 969.256 281.685 969.256 335.18 381.339 335.18Z" fill="#D9D9D9" fill-rule="evenodd"/><path d="M228.49 165.532 228.49 335.847" stroke="#FFFFFF" stroke-width="1.33333" stroke-linejoin="round" stroke-miterlimit="10" fill="none" fill-rule="evenodd"/><path d="M381.339 165.532 381.339 335.847" stroke="#FFFFFF" stroke-width="1.33333" stroke-linejoin="round" stroke-miterlimit="10" fill="none" fill-rule="evenodd"/><path d="M76.1334 228.189 969.923 228.189" stroke="#FFFFFF" stroke-width="4" stroke-linejoin="round" stroke-miterlimit="10" fill="none" fill-rule="evenodd"/><path d="M76.1334 281.685 969.923 281.685" stroke="#FFFFFF" stroke-width="1.33333" stroke-linejoin="round" stroke-miterlimit="10" fill="none" fill-rule="evenodd"/><path d="M76.8001 165.532 76.8001 335.847" stroke="#FFFFFF" stroke-width="1.33333" stroke-linejoin="round" stroke-miterlimit="10" fill="none" fill-rule="evenodd"/><path d="M969.256 165.532 969.256 335.847" stroke="#FFFFFF" stroke-width="1.33333" stroke-linejoin="round" stroke-miterlimit="10" fill="none" fill-rule="evenodd"/><path d="M76.1334 166.199 969.923 166.199" stroke="#FFFFFF" stroke-width="1.33333" stroke-linejoin="round" stroke-miterlimit="10" fill="none" fill-rule="evenodd"/><path d="M76.1334 335.18 969.923 335.18" stroke="#FFFFFF" stroke-width="1.33333" stroke-linejoin="round" stroke-miterlimit="10" fill="none" fill-rule="evenodd"/><text fill="#FFFFFF" font-family="Microsoft YaHei,Microsoft YaHei_MSFontService,sans-serif" font-weight="400" font-size="24" transform="translate(128.645 206)">符号<tspan font-size="24" x="152.27" y="0">介绍</tspan><tspan font-size="24" x="522.653" y="0">说明</tspan><tspan fill="#000000" font-family="Consolas,Consolas_MSFontService,sans-serif" font-size="19" x="13.6667" y="56">&amp;&amp;</tspan><tspan fill="#262626" font-size="19" x="148.27" y="56">短路与</tspan><tspan fill="#000000" font-size="19" x="265.49" y="56">判断结果与“</tspan><tspan fill="#000000" font-family="Consolas,Consolas_MSFontService,sans-serif" font-size="19" x="377.49" y="56">&amp;</tspan><tspan fill="#000000" font-size="19" x="387.823" y="56">”一样。过程是</tspan><tspan fill="#C0504D" font-weight="700" font-size="19" x="518.49" y="56">左边为</tspan><tspan fill="#C0504D" font-family="Consolas,Consolas_MSFontService,sans-serif" font-weight="700" font-size="19" x="584.823" y="56">false</tspan><tspan fill="#C0504D" font-weight="700" font-size="19" x="636.49" y="56">，右边则不执行。</tspan><tspan fill="#000000" font-family="Consolas,Consolas_MSFontService,sans-serif" font-size="19" x="13.6667" y="109">||</tspan><tspan fill="#262626" font-size="19" x="148.27" y="109">短路或</tspan><tspan fill="#000000" font-size="19" x="265.49" y="109">判断结果与“</tspan><tspan fill="#000000" font-family="Consolas,Consolas_MSFontService,sans-serif" font-size="19" x="377.49" y="109">|</tspan><tspan fill="#000000" font-size="19" x="387.823" y="109">”一样。过程是</tspan><tspan fill="#C0504D" font-weight="700" font-size="19" x="518.49" y="109">左边为</tspan><tspan fill="#C0504D" font-family="Consolas,Consolas_MSFontService,sans-serif" font-weight="700" font-size="19" x="584.823" y="109">true</tspan><tspan fill="#C0504D" font-weight="700" font-size="19" x="626.156" y="109">，</tspan><tspan fill="#C0504D" font-weight="700" font-size="19" x="655.156" y="109">右边则不执行。</tspan></text></g></svg>